<svg width="192" height="22" viewBox="0 0 192 22" fill="none" xmlns="http://www.w3.org/2000/svg">
<path fill-rule="evenodd" clip-rule="evenodd" d="M188.33 21.777V17.992H173.926V3.84578H184.506L188.33 0.0608295H170.284V21.777H188.33ZM183.563 12.6525H175.454V8.86759H187.387L183.563 12.6525ZM166.831 21.777H155.022C151.985 21.777 149.468 20.7293 147.479 18.6273C145.489 16.5321 144.494 13.8826 144.494 10.679C144.494 7.50231 145.476 4.93395 147.446 2.9874C149.416 1.04086 151.94 0.0608295 155.015 0.0608295H166.825L163.001 3.84578H155.015C153.019 3.84578 151.367 4.5149 150.073 5.84639C148.779 7.18464 148.129 8.90138 148.129 10.9966C148.129 13.0716 148.779 14.7613 150.073 16.0522C151.367 17.3432 153.013 17.992 155.015 17.992H166.825V21.777H166.831ZM140.065 19.9048C140.065 21.3038 139.61 22 138.693 22C138.017 22 137.263 21.5674 136.43 20.6955L123.034 6.70476V21.777H119.425V1.93979C119.425 1.43287 119.555 0.993548 119.822 0.621813C120.088 0.250077 120.466 0.0675883 120.953 0.0675883C121.623 0.0675883 122.319 0.439324 123.034 1.1828L136.43 15.1398V0.0608295H140.072V19.9048H140.065ZM117.461 21.777L112.779 21.7432L109.261 15.6737H99.3508L101.555 11.9226H107.089L103.448 5.65714L94.025 21.7432H89.3429L100.69 2.12903C100.977 1.62212 101.373 1.15576 101.887 0.729954C102.498 0.243318 103.051 0 103.539 0C104.072 0 104.618 0.2298 105.19 0.702919C105.678 1.10845 106.075 1.58157 106.38 2.13579L117.461 21.777ZM87.301 21.777H74.0222C70.9853 21.777 68.4687 20.7293 66.4853 18.6273C64.4955 16.5321 63.5005 13.8826 63.5005 10.679C63.5005 7.50231 64.4825 4.93395 66.4528 2.9874C68.4232 1.04086 70.9463 0.0608295 74.0222 0.0608295H87.7107L83.887 3.84578H74.0222C72.0258 3.84578 70.3806 4.5149 69.08 5.84639C67.7859 7.18464 67.1356 8.90138 67.1356 10.9966C67.1356 13.0716 67.7794 14.7613 69.08 16.0522C70.3741 17.3432 72.0193 17.992 74.0222 17.992H83.6594V13.7475H73.749L77.1956 10.2802H87.301V21.777ZM59.9565 21.777V17.992H45.5461V3.84578H56.1328L59.9565 0.0608295H41.9045V21.777H59.9565ZM55.1833 12.6525H47.0743V8.86759H59.007L55.1833 12.6525ZM39.1863 21.777H21.1733V0.0608295H24.8149V17.992H39.1928V21.777H39.1863ZM18.0455 21.777V17.992H3.64161V3.84578H14.2218L18.0455 0.0608295H0V21.777H18.0455ZM13.2724 12.6525H5.16978V8.86759H17.096L13.2724 12.6525Z" fill="white"/>
</svg>
