<svg width="330" height="38" viewBox="0 0 330 38" fill="none" xmlns="http://www.w3.org/2000/svg">
<path fill-rule="evenodd" clip-rule="evenodd" d="M325.297 37.6147V31.0771H300.417V6.6427H318.692L325.297 0.105069H294.127V37.6147H325.297ZM317.063 21.8544H303.057V15.3167H323.668L317.063 21.8544ZM288.163 37.6147H267.765C262.52 37.6147 258.173 35.8052 254.736 32.1745C251.299 28.5555 249.58 23.9791 249.58 18.4455C249.58 12.9585 251.276 8.52227 254.68 5.16006C258.083 1.79785 262.441 0.105069 267.754 0.105069H288.152L281.547 6.6427H267.754C264.306 6.6427 261.453 7.79846 259.217 10.0983C256.982 12.4098 255.859 15.3751 255.859 18.9942C255.859 22.5782 256.982 25.4968 259.217 27.7266C261.453 29.9564 264.294 31.0771 267.754 31.0771H288.152V37.6147H288.163ZM241.931 34.381C241.931 36.7975 241.145 38 239.561 38C238.393 38 237.09 37.2528 235.652 35.7469L212.514 11.581V37.6147H206.28V3.35054C206.28 2.47496 206.505 1.71613 206.965 1.07404C207.426 0.431951 208.077 0.116743 208.919 0.116743C210.076 0.116743 211.278 0.758833 212.514 2.04301L235.652 26.1505V0.105069H241.942V34.381H241.931ZM202.888 37.6147L194.801 37.5564L188.724 27.0728H171.606L175.414 20.5935H184.972L178.682 9.77143L162.407 37.5564H154.32L173.92 3.67742C174.414 2.80184 175.099 1.99631 175.987 1.26083C177.042 0.420276 177.997 0 178.84 0C179.761 0 180.704 0.396928 181.693 1.21413C182.535 1.91459 183.22 2.7318 183.748 3.68909L202.888 37.6147ZM150.793 37.6147H127.856C122.611 37.6147 118.264 35.8052 114.838 32.1745C111.401 28.5555 109.683 23.9791 109.683 18.4455C109.683 12.9585 111.379 8.52227 114.782 5.16006C118.186 1.79785 122.544 0.105069 127.856 0.105069H151.5L144.896 6.6427H127.856C124.408 6.6427 121.566 7.79846 119.32 10.0983C117.085 12.4098 115.962 15.3751 115.962 18.9942C115.962 22.5782 117.074 25.4968 119.32 27.7266C121.555 29.9564 124.397 31.0771 127.856 31.0771H144.503V23.7456H127.385L133.338 17.7567H150.793V37.6147ZM103.561 37.6147V31.0771H78.6705V6.6427H96.9566L103.561 0.105069H72.3805V37.6147H103.561ZM95.3167 21.8544H81.3101V15.3167H101.921L95.3167 21.8544ZM67.6854 37.6147H36.5721V0.105069H42.8622V31.0771H67.6966V37.6147H67.6854ZM31.1694 37.6147V31.0771H6.29005V6.6427H24.5649L31.1694 0.105069H0V37.6147H31.1694ZM22.925 21.8544H8.92962V15.3167H29.5295L22.925 21.8544Z" fill="white"/>
</svg>
