<svg width="139" height="16" viewBox="0 0 139 16" fill="none" xmlns="http://www.w3.org/2000/svg">
<path fill-rule="evenodd" clip-rule="evenodd" d="M136.967 15.8378V13.0851H126.491V2.79693H134.186L136.967 0.0442396H123.843V15.8378H136.967ZM133.5 9.20184H127.603V6.44915H136.281L133.5 9.20184ZM121.332 15.8378H112.743C110.535 15.8378 108.704 15.0759 107.257 13.5472C105.81 12.0233 105.086 10.0965 105.086 7.76651C105.086 5.45622 105.801 3.58833 107.234 2.17266C108.667 0.756989 110.501 0.0442396 112.738 0.0442396H121.327L118.546 2.79693H112.738C111.287 2.79693 110.085 3.28356 109.144 4.25192C108.203 5.22519 107.73 6.47373 107.73 7.99754C107.73 9.50661 108.203 10.7355 109.144 11.6743C110.085 12.6132 111.282 13.0851 112.738 13.0851H121.327V15.8378H121.332ZM101.866 14.4762C101.866 15.4937 101.535 16 100.868 16C100.376 16 99.8273 15.6854 99.222 15.0513L89.4795 4.87619V15.8378H86.8547V1.41075C86.8547 1.04209 86.9493 0.722581 87.1432 0.452227C87.3371 0.181874 87.6114 0.0491551 87.9661 0.0491551C88.4532 0.0491551 88.9593 0.319508 89.4795 0.860215L99.222 11.0108V0.0442396H101.87V14.4762H101.866ZM85.4264 15.8378L82.0213 15.8132L79.4627 11.3991H72.2552L73.8584 8.67097H77.8831L75.2347 4.11429L68.3818 15.8132H64.9767L73.2294 1.54839C73.4375 1.17972 73.726 0.840553 74.0996 0.530876C74.5442 0.176959 74.9462 0 75.3009 0C75.6887 0 76.0859 0.167127 76.5021 0.511213C76.8568 0.806144 77.1453 1.15023 77.3676 1.5533L85.4264 15.8378ZM63.4917 15.8378H53.8343C51.6257 15.8378 49.7954 15.0759 48.353 13.5472C46.9058 12.0233 46.1822 10.0965 46.1822 7.76651C46.1822 5.45622 46.8963 3.58833 48.3293 2.17266C49.7623 0.756989 51.5973 0.0442396 53.8343 0.0442396H63.7896L61.0087 2.79693H53.8343C52.3824 2.79693 51.1859 3.28356 50.24 4.25192C49.2988 5.22519 48.8259 6.47373 48.8259 7.99754C48.8259 9.50661 49.2941 10.7355 50.24 11.6743C51.1811 12.6132 52.3777 13.0851 53.8343 13.0851H60.8432V9.99816H53.6357L56.1422 7.4765H63.4917V15.8378ZM43.6047 15.8378V13.0851H33.1244V2.79693H40.8238L43.6047 0.0442396H30.476V15.8378H43.6047ZM40.1333 9.20184H34.2358V6.44915H42.9142L40.1333 9.20184ZM28.4991 15.8378H15.3988V0.0442396H18.0472V13.0851H28.5039V15.8378H28.4991ZM13.124 15.8378V13.0851H2.64844V2.79693H10.3431L13.124 0.0442396H0V15.8378H13.124ZM9.65262 9.20184H3.75984V6.44915H12.4335L9.65262 9.20184Z" fill="white"/>
</svg>
