<svg width="139" height="16" viewBox="0 0 139 16" fill="none" xmlns="http://www.w3.org/2000/svg">
<g clip-path="url(#clip0_170_95)">
<mask id="mask0_170_95" style="mask-type:luminance" maskUnits="userSpaceOnUse" x="0" y="0" width="139" height="13">
<path d="M135.332 0.00417943H138.947L138.839 0.271395H135.039L135.332 0.00417943ZM123.052 0.00417943L123.106 0.271395H119.332L119.44 0.00417943H123.052ZM130.459 12.8392L130.81 11.9624H134.133L133.782 12.8392H130.459ZM114.275 12.8392L114.626 11.9624H117.975L117.624 12.8392H114.275ZM133.945 1.33194H138.409L138.087 2.12943H133.119L133.945 1.33194ZM118.901 1.33194H123.365L123.549 2.12943H118.58L118.901 1.33194ZM132.952 6.64715H136.275L135.816 7.79121H132.492L132.952 6.64715ZM116.764 6.64715H120.112L119.653 7.79121H116.304L116.764 6.64715ZM122.087 12.8392L121.883 11.9624H126.906L125.995 12.8392H122.087ZM132.233 8.42586H135.557L135.056 9.67428H131.732L132.233 8.42586ZM116.05 8.42586H119.398L118.897 9.67428H115.549L116.05 8.42586ZM131.519 10.2087H134.843L134.309 11.5365H130.985L131.519 10.2087ZM115.332 10.2087H118.68L118.146 11.5365H114.797L115.332 10.2087ZM128.43 6.64715H132.467L131.29 7.79121H127.248L128.43 6.64715ZM120.567 6.64715H124.634L124.893 7.79121H120.856L120.567 6.64715ZM132.1 3.13986H137.682L137.327 4.01669H131.16L132.1 3.13986ZM118.175 3.13986H123.757L123.987 4.01669H117.82L118.175 3.13986ZM130.254 4.89351H136.977L136.572 5.90394H129.21L130.254 4.89351ZM117.469 4.89351H124.192L124.451 5.90394H117.064L117.469 4.89351ZM121.444 10.2087H128.751L127.365 11.5365H121.757L121.444 10.2087ZM125.336 9.64923L126.597 8.42586H130.609L129.311 9.67428H121.311L121.014 8.42586H125.056L125.336 9.64923ZM111.783 4.89351H115.185L114.78 5.90394H111.378L111.783 4.89351ZM98.4966 4.89351H101.899L101.494 5.90394H98.0915L98.4966 4.89351ZM114.467 0.00417943C114.751 0.00417943 115.027 0.0918552 115.29 0.271395H100.355L100.463 0.00417943H114.467ZM97.7909 6.64715H101.194L100.735 7.79121H97.3316L97.7909 6.64715ZM111.077 6.64715H114.48L114.021 7.79121H110.618L111.077 6.64715ZM112.384 3.40291H102.497L102.25 4.01669H98.8473L99.2022 3.13986H115.891L115.54 4.01669H112.137L112.384 3.40291ZM100.33 9.51563H109.924L110.363 8.42586H113.766L113.265 9.67428H96.5759L97.0769 8.42586H100.48L100.158 9.22335L100.33 9.51563ZM111.357 11.9624C110.947 12.2296 110.517 12.4425 110.062 12.6012C109.607 12.7599 109.215 12.8392 108.876 12.8392H98.4047C98.0498 12.8392 97.7199 12.7599 97.411 12.6012C97.102 12.4425 96.8515 12.2296 96.6594 11.9624H111.357ZM116.112 1.33194C116.179 1.4739 116.221 1.61168 116.238 1.74529C116.254 1.87891 116.258 2.00835 116.242 2.12943H99.6072L99.9287 1.33194H116.112ZM113.048 10.2087C112.826 10.668 112.463 11.1106 111.954 11.5365H96.4089C96.2293 11.1482 96.2126 10.7056 96.3588 10.2087H113.048ZM82.9141 12.8392L83.2649 11.9624H86.6678L86.3129 12.8392H82.9141ZM86.1125 4.89351H89.5154L89.1104 5.90394H85.7075L86.1125 4.89351ZM85.4068 6.64715H88.8097L88.3505 7.79121H84.9475L85.4068 6.64715ZM84.6887 8.42586H88.0916L87.5905 9.67428H84.1876L84.6887 8.42586ZM81.4862 0.00417943H98.1751L98.0665 0.271395H81.3776L81.4862 0.00417943ZM83.9747 10.2087H87.3776L86.8432 11.5365H83.4402L83.9747 10.2087ZM80.1501 3.32358L80.2252 3.13569H96.9141L96.8389 3.32358H90.1459L89.8661 4.01669H86.4632L86.7429 3.32358H80.1501ZM80.9517 1.33194H97.6406L97.3191 2.12943H80.6302L80.9517 1.33194ZM75.9079 0.00417943H79.2023L79.0937 0.271395H75.7993L75.9079 0.00417943ZM65.862 0.00417943L66.075 0.271395H62.409L62.5175 0.00417943H65.862ZM75.3735 1.33194H78.6678L78.3463 2.12943H75.052L75.3735 1.33194ZM74.6469 3.13986H77.9413L77.5906 4.01669H74.2962L74.6469 3.13986ZM57.3485 12.8392L57.7034 11.9624H61.1063L60.7555 12.8392H57.3485ZM73.9413 4.89351H77.2357L76.8307 5.90394H73.5363L73.9413 4.89351ZM60.5468 4.89351H63.9497L63.5447 5.90394H60.1418L60.5468 4.89351ZM70.6386 12.8392L69.9538 11.9624H74.3923L74.0373 12.8392H70.6386ZM73.2357 6.64715H76.53L76.0707 7.79121H72.7764L73.2357 6.64715ZM59.8411 6.64715H63.2441L62.7848 7.79121H59.3819L59.8411 6.64715ZM59.123 8.42586H62.5259L62.0249 9.67428H58.6219L59.123 8.42586ZM61.9789 1.33194H66.9225L67.5572 2.12943H61.6574L61.9789 1.33194ZM58.409 10.2087H61.8119L61.2775 11.5365H57.8746L58.409 10.2087ZM64.3714 4.89351H69.791L70.6052 5.90394H65.1564L64.3714 4.89351ZM65.766 6.64715H71.2148L72.1376 7.79121H66.6637L65.766 6.64715ZM61.2524 3.13986H68.3463L69.0812 4.01669H60.8975L61.2524 3.13986ZM68.5593 10.2087H75.0979L74.5634 11.5365H69.6198L68.5593 10.2087ZM67.1522 8.42586H75.816L75.315 9.67428H68.1376L67.1522 8.42586ZM51.3777 0.267216C51.8036 0.0918511 52.2128 0 52.6011 0H60.2295L60.1209 0.267216H51.3777ZM51.741 12.8392L52.1042 11.9373H55.4278L55.0645 12.8392H51.741ZM54.9393 4.89351H58.2629L57.8579 5.90394H54.5343L54.9393 4.89351ZM38.3924 11.9373H42.3506L41.4028 12.8392H37.4696L38.3924 11.9373ZM49.7034 4.89351C49.503 5.08975 49.3151 5.26929 49.1397 5.4363C48.9644 5.60332 48.8057 5.75781 48.6596 5.89977H44.7013L45.7702 4.88933H49.7034V4.89351ZM52.8015 10.2087H56.1209L55.5865 11.5365H52.2629L52.8015 10.2087ZM40.2045 10.2087H44.2462L42.8057 11.5365H38.8182L40.2045 10.2087ZM51.5364 3.37786C51.4487 3.37786 51.1564 3.5908 50.6679 4.01669H46.6804L47.6032 3.11481H58.9768L58.6136 4.01669H55.29L55.5447 3.37786H51.5364ZM48.6721 2.10438L49.052 1.75782C49.1982 1.61586 49.3694 1.4739 49.5698 1.33194H59.695L59.3735 2.12943H48.6387L48.6721 2.10438ZM43.9205 6.64715H57.5531L57.0938 7.79121H42.7431L43.9205 6.64715ZM53.0353 9.62418H44.8767L44.8015 9.67846H40.764L42.0625 8.43004H56.8391L56.338 9.67846H53.0144L53.0353 9.62418ZM27.4321 0.267216H24.0292L24.1377 0H27.5406L27.4321 0.267216ZM40.7222 0.00417943L40.6136 0.271395H37.2107L37.3193 0.00417943H40.7222ZM23.6033 1.33194H27.0062L26.6847 2.12943H23.2818L23.6033 1.33194ZM36.7849 1.33194H40.1878L39.8663 2.12943H36.4634L36.7849 1.33194ZM32.1544 12.8392L32.5093 11.9624H35.9122L35.5615 12.8392H32.1544ZM18.977 12.8392L19.3277 11.9624H22.7306L22.3799 12.8392H18.977ZM36.0583 3.13986H39.4613L39.1063 4.01669H35.7034L36.0583 3.13986ZM22.8768 3.13986H26.2797L25.9289 4.01669H22.526L22.8768 3.13986ZM20.7473 8.42586H24.1502L23.6492 9.67428H20.2463L20.7473 8.42586ZM33.9289 8.42586H37.3318L36.8308 9.67428H33.4279L33.9289 8.42586ZM20.0333 10.2087H23.4363L22.9018 11.5365H19.4989L20.0333 10.2087ZM33.2149 10.2087H36.6178L36.0834 11.5365H32.6805L33.2149 10.2087ZM22.1711 4.89351H38.7556L38.3506 5.90394H21.7661L22.1711 4.89351ZM21.4655 6.64715H38.05L37.5907 7.79121H21.0062L21.4655 6.64715ZM0 12.8392L0.354905 11.9624H3.75782L3.40291 12.8392H0ZM16.5386 4.89351H19.8872L19.4822 5.90394H16.1336L16.5386 4.89351ZM3.19414 4.89351H6.59706L6.19205 5.90394H2.78914L3.19414 4.89351ZM18.7974 0.00417943C19.2567 0.00417943 19.6283 0.0918552 19.9123 0.271395H5.05635L5.16491 0.00417943H18.7974ZM1.05636 10.2087H4.45928L3.92483 11.5365H0.521919L1.05636 10.2087ZM6.95196 4.01669H3.54905L3.89978 3.13986H20.5093C20.4383 3.44884 20.3465 3.74111 20.2379 4.01669H16.8893L17.0939 3.51147L16.8517 3.32358H7.22753L6.95196 4.01669ZM20.6262 1.33194C20.6596 1.4739 20.6763 1.61168 20.6847 1.74529C20.693 1.87891 20.6889 2.00835 20.6763 2.12943H4.30896L4.63047 1.33194H20.6262ZM4.67222 9.67846H1.27348L1.77452 8.43004H17.9331C17.5657 8.76824 17.1607 9.05217 16.7139 9.28181C16.2672 9.51146 15.7954 9.62836 15.2985 9.62836H4.6931L4.67222 9.67846ZM19.0855 6.88515C19.0271 7.02711 18.9519 7.17326 18.8559 7.32357C18.7599 7.47388 18.6513 7.62837 18.5344 7.78703H2.02922L2.48851 6.64299H19.1774L19.0855 6.88515Z" fill="white"/>
</mask>
<g mask="url(#mask0_170_95)">
<path d="M138.943 0.00427246H0V12.8393H138.943V0.00427246Z" fill="url(#paint0_linear_170_95)"/>
</g>
</g>
<defs>
<linearGradient id="paint0_linear_170_95" x1="69.4719" y1="-1.87501" x2="69.4719" y2="11.5362" gradientUnits="userSpaceOnUse">
<stop stop-color="#878786"/>
<stop offset="1" stop-color="white"/>
</linearGradient>
<clipPath id="clip0_170_95">
<rect width="138.947" height="16" fill="white"/>
</clipPath>
</defs>
</svg>
