<svg width="192" height="22" viewBox="0 0 192 22" fill="none" xmlns="http://www.w3.org/2000/svg">
<g clip-path="url(#clip0_147_660)">
<mask id="mask0_147_660" style="mask-type:luminance" maskUnits="userSpaceOnUse" x="0" y="0" width="192" height="18">
<path d="M186.081 0.00574672H191.053L190.903 0.373169H185.679L186.081 0.00574672ZM169.196 0.00574672L169.271 0.373169H164.081L164.23 0.00574672H169.196ZM179.381 17.6539L179.863 16.4483H184.433L183.951 17.6539H179.381ZM157.128 17.6539L157.611 16.4483H162.215L161.733 17.6539H157.128ZM184.175 1.83142H190.312L189.87 2.92797H183.038L184.175 1.83142ZM163.49 1.83142H169.627L169.879 2.92797H163.048L163.49 1.83142ZM182.808 9.13984H187.378L186.747 10.7129H182.177L182.808 9.13984ZM160.55 9.13984H165.154L164.523 10.7129H159.919L160.55 9.13984ZM167.87 17.6539L167.589 16.4483H174.495L173.244 17.6539H167.87ZM181.821 11.5856H186.391L185.702 13.3021H181.132L181.821 11.5856ZM159.568 11.5856H164.173L163.484 13.3021H158.879L159.568 11.5856ZM180.839 14.037H185.409L184.674 15.8627H180.104L180.839 14.037ZM158.581 14.037H163.185L162.45 15.8627H157.846L158.581 14.037ZM176.591 9.13984H182.142L180.523 10.7129H174.966L176.591 9.13984ZM165.78 9.13984H171.372L171.728 10.7129H166.176L165.78 9.13984ZM181.637 4.31731H189.313L188.825 5.52294H180.345L181.637 4.31731ZM162.491 4.31731H170.166L170.482 5.52294H162.003L162.491 4.31731ZM179.1 6.72858H188.343L187.786 8.11792H177.664L179.1 6.72858ZM161.52 6.72858H170.764L171.12 8.11792H160.963L161.52 6.72858ZM166.986 14.037H177.033L175.127 15.8627H167.416L166.986 14.037ZM172.337 13.2677L174.07 11.5856H179.588L177.802 13.3021H166.802L166.395 11.5856H171.952L172.337 13.2677ZM153.701 6.72858H158.38L157.823 8.11792H153.144L153.701 6.72858ZM135.433 6.72858H140.112L139.555 8.11792H134.876L135.433 6.72858ZM157.393 0.00574672C157.783 0.00574672 158.162 0.126301 158.523 0.373169H137.988L138.137 0.00574672H157.393ZM134.463 9.13984H139.142L138.51 10.7129H133.831L134.463 9.13984ZM152.731 9.13984H157.41L156.778 10.7129H152.099L152.731 9.13984ZM154.528 4.679H140.933L140.594 5.52294H135.915L136.403 4.31731H159.35L158.868 5.52294H154.189L154.528 4.679ZM137.953 13.084H151.146L151.749 11.5856H156.428L155.739 13.3021H132.792L133.481 11.5856H138.16L137.718 12.6821L137.953 13.084ZM153.115 16.4483C152.553 16.8157 151.961 17.1085 151.336 17.3267C150.71 17.5448 150.17 17.6539 149.705 17.6539H135.306C134.818 17.6539 134.365 17.5448 133.94 17.3267C133.515 17.1085 133.171 16.8157 132.907 16.4483H153.115ZM159.655 1.83142C159.746 2.02661 159.804 2.21606 159.827 2.39978C159.85 2.58349 159.855 2.76148 159.832 2.92797H136.96L137.402 1.83142H159.655ZM155.441 14.037C155.136 14.6685 154.637 15.2771 153.936 15.8627H132.562C132.315 15.3288 132.292 14.7202 132.493 14.037H155.441ZM114.007 17.6539L114.489 16.4483H119.168L118.68 17.6539H114.007ZM118.405 6.72858H123.084L122.527 8.11792H117.848L118.405 6.72858ZM117.434 9.13984H122.113L121.482 10.7129H116.803L117.434 9.13984ZM116.447 11.5856H121.126L120.437 13.3021H115.758L116.447 11.5856ZM112.043 0.00574672H134.991L134.841 0.373169H111.894L112.043 0.00574672ZM115.465 14.037H120.144L119.409 15.8627H114.73L115.465 14.037ZM110.206 4.56992L110.31 4.31158H133.257L133.154 4.56992H123.951L123.566 5.52294H118.887L119.272 4.56992H110.206ZM111.309 1.83142H134.256L133.814 2.92797H110.867L111.309 1.83142ZM104.373 0.00574672H108.903L108.754 0.373169H104.224L104.373 0.00574672ZM90.5603 0.00574672L90.8531 0.373169H85.8124L85.9616 0.00574672H90.5603ZM103.639 1.83142H108.168L107.726 2.92797H103.196L103.639 1.83142ZM102.64 4.31731H107.169L106.687 5.52294H102.157L102.64 4.31731ZM78.8541 17.6539L79.3421 16.4483H84.0211L83.5389 17.6539H78.8541ZM101.669 6.72858H106.199L105.642 8.11792H101.112L101.669 6.72858ZM83.2518 6.72858H87.9308L87.3739 8.11792H82.6949L83.2518 6.72858ZM97.1281 17.6539L96.1865 16.4483H102.289L101.801 17.6539H97.1281ZM100.699 9.13984H105.229L104.597 10.7129H100.068L100.699 9.13984ZM82.2816 9.13984H86.9606L86.3291 10.7129H81.6501L82.2816 9.13984ZM81.2941 11.5856H85.9731L85.2842 13.3021H80.6052L81.2941 11.5856ZM85.221 1.83142H92.0185L92.8912 2.92797H84.779L85.221 1.83142ZM80.3124 14.037H84.9914L84.2565 15.8627H79.5775L80.3124 14.037ZM88.5107 6.72858H95.9626L97.0822 8.11792H89.59L88.5107 6.72858ZM90.4282 9.13984H97.9204L99.1891 10.7129H91.6626L90.4282 9.13984ZM84.2221 4.31731H93.9762L94.9866 5.52294H83.7341L84.2221 4.31731ZM94.269 14.037H103.26L102.525 15.8627H95.7273L94.269 14.037ZM92.3343 11.5856H104.247L103.558 13.3021H93.6892L92.3343 11.5856ZM70.6443 0.367422C71.2299 0.126295 71.7926 0 72.3265 0H82.8155L82.6662 0.367422H70.6443ZM71.1438 17.6539L71.6433 16.4138H76.2132L75.7138 17.6539H71.1438ZM75.5415 6.72858H80.1114L79.5546 8.11792H74.9846L75.5415 6.72858ZM52.7895 16.4138H58.2321L56.9288 17.6539H51.5207L52.7895 16.4138ZM68.3422 6.72858C68.0666 6.99841 67.8082 7.24527 67.5671 7.47492C67.326 7.70456 67.1078 7.91699 66.9069 8.11219H61.4643L62.934 6.72283H68.3422V6.72858ZM72.6021 14.037H77.1663L76.4314 15.8627H71.8615L72.6021 14.037ZM55.2811 14.037H60.8385L58.8578 15.8627H53.3751L55.2811 14.037ZM70.8625 4.64455C70.742 4.64455 70.3401 4.93735 69.6684 5.52294H64.1856L65.4544 4.28286H81.0932L80.5937 5.52294H76.0238L76.374 4.64455H70.8625ZM66.9241 2.89352L67.4466 2.417C67.6475 2.2218 67.8829 2.02661 68.1584 1.83142H82.0806L81.6386 2.92797H66.8782L66.9241 2.89352ZM60.3907 9.13984H79.1354L78.5039 10.7129H58.7717L60.3907 9.13984ZM72.9236 13.2332H61.7054L61.6021 13.3079H56.0504L57.8359 11.5913H78.1537L77.4648 13.3079H72.8949L72.9236 13.2332ZM37.7191 0.367422H33.0401L33.1894 0H37.8684L37.7191 0.367422ZM55.993 0.00574672L55.8438 0.373169H51.1648L51.314 0.00574672H55.993ZM32.4545 1.83142H37.1335L36.6914 2.92797H32.0124L32.4545 1.83142ZM50.5792 1.83142H55.2582L54.8161 2.92797H50.1371L50.5792 1.83142ZM44.2123 17.6539L44.7003 16.4483H49.3793L48.897 17.6539H44.2123ZM26.0933 17.6539L26.5756 16.4483H31.2546L30.7723 17.6539H26.0933ZM49.5802 4.31731H54.2592L53.7712 5.52294H49.0922L49.5802 4.31731ZM31.4555 4.31731H36.1345L35.6523 5.52294H30.9733L31.4555 4.31731ZM28.5276 11.5856H33.2066L32.5176 13.3021H27.8386L28.5276 11.5856ZM46.6523 11.5856H51.3313L50.6423 13.3021H45.9633L46.6523 11.5856ZM27.5458 14.037H32.2248L31.49 15.8627H26.811L27.5458 14.037ZM45.6705 14.037H50.3495L49.6147 15.8627H44.9357L45.6705 14.037ZM30.4853 6.72858H53.289L52.7321 8.11792H29.9284L30.4853 6.72858ZM29.515 9.13984H52.3187L51.6872 10.7129H28.8835L29.515 9.13984ZM0 17.6539L0.487994 16.4483H5.167L4.679 17.6539H0ZM22.7405 6.72858H27.3449L26.788 8.11792H22.1836L22.7405 6.72858ZM4.39195 6.72858H9.07095L8.51406 8.11792H3.83506L4.39195 6.72858ZM25.8465 0.00574672C26.478 0.00574672 26.989 0.126301 27.3793 0.373169H6.95248L7.10175 0.00574672H25.8465ZM1.4525 14.037H6.13151L5.39664 15.8627H0.717639L1.4525 14.037ZM9.55895 5.52294H4.87994L5.3622 4.31731H28.2003C28.1027 4.74215 27.9764 5.14403 27.8272 5.52294H23.2228L23.5041 4.82827L23.1711 4.56992H9.93786L9.55895 5.52294ZM28.3611 1.83142C28.407 2.02661 28.43 2.21606 28.4415 2.39978C28.4529 2.58349 28.4472 2.76148 28.43 2.92797H5.92482L6.36689 1.83142H28.3611ZM6.4243 13.3079H1.75104L2.43997 11.5913H24.6581C24.1528 12.0563 23.596 12.4467 22.9817 12.7625C22.3674 13.0783 21.7186 13.239 21.0354 13.239H6.45301L6.4243 13.3079ZM26.2426 9.46708C26.1622 9.66228 26.0589 9.86323 25.9268 10.0699C25.7948 10.2766 25.6455 10.489 25.4848 10.7072H2.79018L3.4217 9.13411H26.3689L26.2426 9.46708Z" fill="white"/>
</mask>
<g mask="url(#mask0_147_660)">
<path d="M191.047 0.00579834H0V17.654H191.047V0.00579834Z" fill="url(#paint0_linear_147_660)"/>
</g>
</g>
<defs>
<linearGradient id="paint0_linear_147_660" x1="95.5238" y1="-2.57822" x2="95.5238" y2="15.8622" gradientUnits="userSpaceOnUse">
<stop stop-color="#878786"/>
<stop offset="1" stop-color="white"/>
</linearGradient>
<clipPath id="clip0_147_660">
<rect width="191.053" height="22" fill="white"/>
</clipPath>
</defs>
</svg>
