<svg width="330" height="38" viewBox="0 0 330 38" fill="none" xmlns="http://www.w3.org/2000/svg">
<mask id="mask0_147_485" style="mask-type:luminance" maskUnits="userSpaceOnUse" x="0" y="0" width="330" height="31">
<path d="M321.412 0.00992614H330L329.742 0.644564H320.718L321.412 0.00992614ZM292.248 0.00992614L292.377 0.644564H283.412L283.67 0.00992614H292.248ZM309.84 30.4931L310.673 28.4107H318.566L317.733 30.4931H309.84ZM271.404 30.4931L272.237 28.4107H280.19L279.357 30.4931H271.404ZM318.12 3.16335H328.721L327.957 5.0574H316.157L318.12 3.16335ZM282.391 3.16335H292.992L293.428 5.0574H281.628L282.391 3.16335ZM315.76 15.787H323.653L322.563 18.5041H314.669L315.76 15.787ZM277.314 15.787H285.267L284.176 18.5041H276.223L277.314 15.787ZM289.957 30.4931L289.471 28.4107H301.401L299.239 30.4931H289.957ZM314.054 20.0114H321.948L320.758 22.9764H312.864L314.054 20.0114ZM275.618 20.0114H283.571L282.381 22.9764H274.428L275.618 20.0114ZM312.359 24.2457H320.252L318.983 27.3992H311.089L312.359 24.2457ZM273.912 24.2457H281.865L280.596 27.3992H272.643L273.912 24.2457ZM305.02 15.787H314.61L311.813 18.5041H302.214L305.02 15.787ZM286.348 15.787H296.006L296.621 18.5041H287.032L286.348 15.787ZM313.737 7.45717H326.995L326.152 9.53963H311.506L313.737 7.45717ZM280.666 7.45717H293.924L294.469 9.53963H279.823L280.666 7.45717ZM309.354 11.6221H325.319L324.358 14.0219H306.875L309.354 11.6221ZM278.99 11.6221H294.955L295.57 14.0219H278.028L278.99 11.6221ZM288.43 24.2457H305.784L302.492 27.3992H289.174L288.43 24.2457ZM297.672 22.9169L300.667 20.0114H310.197L307.113 22.9764H288.113L287.409 20.0114H297.008L297.672 22.9169ZM265.483 11.6221H273.565L272.604 14.0219H264.522L265.483 11.6221ZM233.929 11.6221H242.011L241.049 14.0219H232.967L233.929 11.6221ZM271.86 0.00992614C272.534 0.00992614 273.189 0.218156 273.813 0.644564H238.342L238.6 0.00992614H271.86ZM232.253 15.787H240.335L239.245 18.5041H231.163L232.253 15.787ZM263.808 15.787H271.89L270.799 18.5041H262.717L263.808 15.787ZM266.911 8.08191H243.429L242.844 9.53963H234.762L235.605 7.45717H275.241L274.408 9.53963H266.326L266.911 8.08191ZM238.283 22.5996H261.071L262.112 20.0114H270.194L269.004 22.9764H229.368L230.558 20.0114H238.64L237.876 21.9055L238.283 22.5996ZM264.472 28.4107C263.5 29.0453 262.479 29.551 261.398 29.9279C260.317 30.3047 259.385 30.4931 258.582 30.4931H233.711C232.868 30.4931 232.085 30.3047 231.351 29.9279C230.617 29.551 230.022 29.0453 229.566 28.4107H264.472ZM275.767 3.16335C275.926 3.50051 276.025 3.82775 276.064 4.14507C276.104 4.4624 276.114 4.76982 276.074 5.0574H236.567L237.331 3.16335H275.767ZM268.488 24.2457C267.963 25.3365 267.1 26.3877 265.89 27.3992H228.971C228.545 26.477 228.505 25.4258 228.852 24.2457H268.488ZM196.921 30.4931L197.754 28.4107H205.836L204.993 30.4931H196.921ZM204.517 11.6221H212.599L211.637 14.0219H203.555L204.517 11.6221ZM202.841 15.787H210.923L209.832 18.5041H201.75L202.841 15.787ZM201.136 20.0114H209.217L208.028 22.9764H199.946L201.136 20.0114ZM193.53 0.00992614H233.166L232.908 0.644564H193.272L193.53 0.00992614ZM199.44 24.2457H207.522L206.252 27.3992H198.171L199.44 24.2457ZM190.356 7.89349L190.535 7.44727H230.171L229.992 7.89349H214.096L213.432 9.53963H205.35L206.014 7.89349H190.356ZM192.26 3.16335H231.896L231.133 5.0574H191.497L192.26 3.16335ZM180.281 0.00992614H188.105L187.848 0.644564H180.023L180.281 0.00992614ZM156.422 0.00992614L156.928 0.644564H148.221L148.479 0.00992614H156.422ZM179.012 3.16335H186.836L186.072 5.0574H178.248L179.012 3.16335ZM177.286 7.45717H185.111L184.278 9.53963H176.454L177.286 7.45717ZM136.203 30.4931L137.045 28.4107H145.127L144.294 30.4931H136.203ZM175.611 11.6221H183.435L182.473 14.0219H174.649L175.611 11.6221ZM143.799 11.6221H151.881L150.919 14.0219H142.837L143.799 11.6221ZM167.767 30.4931L166.14 28.4107H176.682L175.839 30.4931H167.767ZM173.935 15.787H181.759L180.668 18.5041H172.844L173.935 15.787ZM142.123 15.787H150.205L149.114 18.5041H141.032L142.123 15.787ZM140.417 20.0114H148.499L147.309 22.9764H139.227L140.417 20.0114ZM147.2 3.16335H158.941L160.448 5.0574H146.436L147.2 3.16335ZM138.721 24.2457H146.803L145.534 27.3992H137.452L138.721 24.2457ZM152.882 11.6221H165.754L167.687 14.0219H154.746L152.882 11.6221ZM156.194 15.787H169.135L171.327 18.5041H158.326L156.194 15.787ZM145.474 7.45717H162.323L164.068 9.53963H144.632L145.474 7.45717ZM162.828 24.2457H178.357L177.088 27.3992H165.347L162.828 24.2457ZM159.486 20.0114H180.063L178.873 22.9764H161.827L159.486 20.0114ZM122.022 0.634638C123.034 0.218146 124.005 0 124.928 0H143.045L142.787 0.634638H122.022ZM122.885 30.4931L123.748 28.3512H131.641L130.778 30.4931H122.885ZM130.481 11.6221H138.374L137.412 14.0219H129.519L130.481 11.6221ZM91.1819 28.3512H100.583L98.3316 30.4931H88.9903L91.1819 28.3512ZM118.046 11.6221C117.57 12.0882 117.123 12.5146 116.707 12.9112C116.29 13.3079 115.914 13.6748 115.566 14.012H106.166L108.704 11.6122H118.046V11.6221ZM125.404 24.2457H133.287L132.018 27.3992H124.124L125.404 24.2457ZM95.4856 24.2457H105.085L101.664 27.3992H92.1933L95.4856 24.2457ZM122.399 8.02241C122.191 8.02241 121.496 8.52815 120.336 9.53963H110.866L113.058 7.39767H140.07L139.207 9.53963H131.314L131.919 8.02241H122.399ZM115.596 4.9979L116.499 4.17482C116.846 3.83766 117.252 3.50051 117.728 3.16335H141.776L141.012 5.0574H115.517L115.596 4.9979ZM104.311 15.787H136.688L135.598 18.5041H101.515L104.311 15.787ZM125.959 22.8574H106.582L106.404 22.9863H96.8144L99.8984 20.0213H134.993L133.803 22.9863H125.909L125.959 22.8574ZM65.1511 0.634638H57.0692L57.3271 0H65.409L65.1511 0.634638ZM96.7152 0.00992614L96.4574 0.644564H88.3755L88.6333 0.00992614H96.7152ZM56.0578 3.16335H64.1397L63.3761 5.0574H55.2942L56.0578 3.16335ZM87.364 3.16335H95.4459L94.6824 5.0574H86.6005L87.364 3.16335ZM76.3667 30.4931L77.2096 28.4107H85.2915L84.4585 30.4931H76.3667ZM45.0703 30.4931L45.9033 28.4107H53.9852L53.1522 30.4931H45.0703ZM85.6386 7.45717H93.7205L92.8776 9.53963H84.7957L85.6386 7.45717ZM54.3323 7.45717H62.4142L61.5812 9.53963H53.4993L54.3323 7.45717ZM49.2749 20.0114H57.3568L56.1668 22.9764H48.0849L49.2749 20.0114ZM80.5812 20.0114H88.6631L87.4731 22.9764H79.3912L80.5812 20.0114ZM47.5792 24.2457H55.6611L54.3918 27.3992H46.3099L47.5792 24.2457ZM78.8855 24.2457H86.9674L85.6981 27.3992H77.6161L78.8855 24.2457ZM52.6564 11.6221H92.0446L91.0827 14.0219H51.6945L52.6564 11.6221ZM50.9805 15.787H90.3687L89.2779 18.5041H49.8897L50.9805 15.787ZM0 30.4931L0.842899 28.4107H8.92482L8.08192 30.4931H0ZM39.2791 11.6221H47.2321L46.2702 14.0219H38.3172L39.2791 11.6221ZM7.58609 11.6221H15.668L14.7061 14.0219H6.6242L7.58609 11.6221ZM44.6439 0.00992614C45.7347 0.00992614 46.6173 0.218156 47.2916 0.644564H12.0088L12.2667 0.00992614H44.6439ZM2.50886 24.2457H10.5908L9.32147 27.3992H1.23956L2.50886 24.2457ZM16.5109 9.53963H8.42899L9.26198 7.45717H48.7097C48.5411 8.19099 48.3229 8.88514 48.0651 9.53963H40.1121L40.598 8.33975L40.0228 7.89349H17.1654L16.5109 9.53963ZM48.9873 3.16335C49.0667 3.50051 49.1063 3.82775 49.1261 4.14507C49.146 4.4624 49.1361 4.76982 49.1063 5.0574H10.2338L10.9974 3.16335H48.9873ZM11.0965 22.9863H3.02452L4.2145 20.0213H42.5912C41.7186 20.8246 40.7567 21.4989 39.6956 22.0443C38.6345 22.5897 37.514 22.8674 36.3339 22.8674H11.1461L11.0965 22.9863ZM45.3281 16.3522C45.1893 16.6894 45.0108 17.0365 44.7827 17.3935C44.5547 17.7505 44.2968 18.1174 44.0192 18.4942H4.8194L5.91021 15.7771H45.5463L45.3281 16.3522Z" fill="white"/>
</mask>
<g mask="url(#mask0_147_485)">
<path d="M329.99 0.0100098H0V30.4932H329.99V0.0100098Z" fill="url(#paint0_linear_147_485)"/>
</g>
<defs>
<linearGradient id="paint0_linear_147_485" x1="164.996" y1="-4.45329" x2="164.996" y2="27.3984" gradientUnits="userSpaceOnUse">
<stop stop-color="#878786"/>
<stop offset="1" stop-color="white"/>
</linearGradient>
</defs>
</svg>
