<svg width="330" height="38" viewBox="0 0 330 38" fill="none" xmlns="http://www.w3.org/2000/svg">
<path fill-rule="evenodd" clip-rule="evenodd" d="M311.55 8.75562H326.669C327.303 8.75562 327.848 8.36624 328.037 7.75435L329.929 1.88018C330.073 1.42404 329.995 0.979028 329.717 0.589642C329.439 0.211381 329.028 0 328.56 0H317.991C317.613 0 317.29 0.122378 317.023 0.378261L310.582 6.25243C310.137 6.66406 309.992 7.27596 310.215 7.83222C310.426 8.41074 310.938 8.75562 311.55 8.75562ZM281.267 0H270.141C269.507 0 268.962 0.389386 268.773 1.00128L266.882 6.87545C266.737 7.33158 266.804 7.7766 267.093 8.16598C267.371 8.54424 267.783 8.75562 268.261 8.75562H283.937C284.437 8.75562 284.871 8.52199 285.149 8.09923C285.427 7.67647 285.461 7.18695 285.249 6.71969L282.579 0.845524C282.335 0.322634 281.845 0 281.267 0ZM266.103 12.5271H272.155C272.633 12.5271 273.045 12.7385 273.323 13.1167C273.601 13.5061 273.679 13.9511 273.523 14.4073L270.097 24.9207C269.985 25.2767 269.997 25.6216 270.152 25.9665L272.644 31.4735C272.856 31.9297 272.811 32.4192 272.544 32.8531C272.266 33.2758 271.843 33.5095 271.332 33.5095H260.206C259.728 33.5095 259.316 33.2981 259.038 32.9198C258.76 32.5304 258.682 32.0854 258.838 31.6293L264.745 13.5395C264.935 12.9276 265.469 12.5271 266.103 12.5271ZM323.654 33.4983L312.573 33.5095C312.095 33.5095 311.683 33.2981 311.405 32.9198C311.127 32.5304 311.049 32.0854 311.205 31.6293L317.112 13.5395C317.313 12.9387 317.847 12.5494 318.481 12.5494L324.544 12.5382C325.022 12.5382 325.434 12.7496 325.712 13.1279C325.99 13.5061 326.068 13.9623 325.912 14.4184L322.475 24.943C322.363 25.299 322.375 25.6327 322.53 25.9776L324.978 31.4735C325.178 31.9297 325.145 32.4192 324.867 32.8419C324.589 33.2647 324.155 33.4983 323.654 33.4983ZM286.885 12.5271H279.086C278.585 12.5271 278.151 12.7607 277.884 13.1835C277.606 13.6063 277.573 14.0958 277.773 14.5519L285.717 32.6417C285.95 33.1757 286.451 33.4983 287.041 33.4983H291.235C291.613 33.4983 291.925 33.3759 292.203 33.1201L312.006 15.0303C312.451 14.6187 312.595 14.0068 312.373 13.4505C312.15 12.8831 311.639 12.5271 311.027 12.5271H304.296C303.918 12.5271 303.606 12.6495 303.328 12.9054L293.894 21.483C293.538 21.8056 293.093 21.928 292.626 21.8279C292.158 21.7277 291.802 21.4385 291.602 21.0046L288.187 13.3838C287.964 12.8497 287.463 12.5271 286.885 12.5271ZM260.329 7.76547L262.22 1.8913C262.365 1.43517 262.287 0.990153 262.009 0.600767C261.73 0.211381 261.319 0 260.84 0H249.181C248.681 0 248.247 0.233632 247.968 0.656394C247.69 1.07916 247.657 1.56867 247.857 2.02481L250.472 7.89897C250.705 8.43299 251.206 8.75562 251.784 8.75562H258.938C259.594 8.75562 260.128 8.36624 260.329 7.76547ZM244.787 33.5095H250.906C251.54 33.5095 252.074 33.1201 252.274 32.5193L258.17 14.4295C258.315 13.9734 258.248 13.5173 257.97 13.139C257.692 12.7496 257.28 12.5494 256.802 12.5494H250.683C250.049 12.5494 249.515 12.9387 249.315 13.5395L243.418 31.6293C243.274 32.0854 243.34 32.5415 243.618 32.9198C243.908 33.2981 244.319 33.5095 244.787 33.5095ZM191.185 8.75562H244.598V8.63325L241.071 0.845524C240.837 0.322634 240.337 0 239.758 0H188.537C188.036 0 187.603 0.233632 187.324 0.656394C187.046 1.07916 187.013 1.56867 187.224 2.02481L189.861 7.89897C190.106 8.44412 190.595 8.75562 191.185 8.75562ZM190.228 33.5095H184.176C183.698 33.5095 183.286 33.2981 183.008 32.9198C182.73 32.5304 182.652 32.0854 182.808 31.6293L188.715 13.5395C188.915 12.9387 189.449 12.5494 190.083 12.5494H241.46C241.939 12.5494 242.339 12.7607 242.628 13.139C242.906 13.5284 242.984 13.9734 242.84 14.4295L241.071 19.9254C240.871 20.5262 240.337 20.9267 239.702 20.9267H232.938C232.426 20.9267 231.993 21.1604 231.726 21.5942C231.459 22.017 231.425 22.5176 231.637 22.9738L235.608 31.4735C235.82 31.9297 235.786 32.4303 235.519 32.8531C235.252 33.2758 234.807 33.5206 234.307 33.5206H227.409C226.853 33.5206 226.385 33.2313 226.129 32.7418L220.478 21.7166C220.222 21.2271 219.755 20.9378 219.198 20.9378H196.447C195.813 20.9378 195.279 21.3272 195.079 21.928L191.63 32.5304C191.396 33.1089 190.862 33.5095 190.228 33.5095ZM131.676 8.75562H181.751C182.251 8.75562 182.685 8.52199 182.963 8.09923C183.241 7.67647 183.275 7.18695 183.063 6.71969L180.404 0.834399C180.16 0.322634 179.67 0 179.092 0H133.567C132.933 0 132.388 0.389386 132.198 1.00128L130.307 6.88657C130.163 7.34271 130.229 7.78772 130.519 8.17711C130.786 8.55537 131.197 8.75562 131.676 8.75562ZM178.758 24.7983L182.151 14.4184C182.296 13.9623 182.229 13.5061 181.951 13.1279C181.673 12.7385 181.261 12.5382 180.783 12.5382H160.401C159.9 12.5382 159.467 12.7719 159.188 13.1946C158.91 13.6174 158.877 14.1069 159.088 14.563L161.558 20.0589C161.792 20.5818 162.292 20.9045 162.871 20.9045L168.289 20.9156C168.79 20.9156 169.224 21.1492 169.502 21.572C169.769 21.9948 169.813 22.4843 169.602 22.9404L169.201 23.8193C168.968 24.3422 168.467 24.6648 167.888 24.6648H137.739C137.16 24.6648 136.671 24.3422 136.426 23.8193L135.158 21.0157C135.002 20.682 134.991 20.3371 135.102 19.9811L136.871 14.3962C137.016 13.94 136.938 13.495 136.66 13.1056C136.382 12.7274 135.97 12.516 135.503 12.516H129.473C128.839 12.516 128.305 12.9054 128.104 13.5061L125.612 21.1381C125.501 21.4941 125.512 21.839 125.668 22.1839L130.396 32.6417C130.63 33.1646 131.13 33.4872 131.709 33.4872H173.918C174.497 33.4872 174.998 33.1646 175.231 32.6417L178.713 24.9318C178.725 24.8985 178.747 24.854 178.758 24.7983ZM85.5055 8.75562H91.5577C92.1918 8.75562 92.737 8.36624 92.9261 7.75435L94.8174 1.88018C94.962 1.42404 94.8842 0.979028 94.606 0.589642C94.339 0.211381 93.9274 0 93.449 0H87.3968C86.7627 0 86.2175 0.389386 86.0284 1.00128L84.1371 6.87545C83.9925 7.33158 84.0704 7.78772 84.3485 8.16598C84.6266 8.55537 85.0383 8.75562 85.5055 8.75562ZM88.0532 22.7958L90.79 14.4184C90.9347 13.9623 90.8679 13.5061 90.5898 13.1279C90.3117 12.7385 89.9 12.5382 89.4216 12.5382H83.3695C82.7353 12.5382 82.2013 12.9276 82.001 13.5284L76.0935 31.6182C75.9489 32.0743 76.0156 32.5304 76.2938 32.9087C76.5719 33.2981 76.9835 33.4983 77.4619 33.4983H122.264C122.764 33.4983 123.198 33.2647 123.476 32.8419C123.754 32.4192 123.788 31.9297 123.576 31.4624L120.884 25.5215C120.65 24.9986 120.15 24.676 119.571 24.676H89.4216C88.9432 24.676 88.5316 24.4646 88.2535 24.0863C87.9753 23.6969 87.9086 23.2519 88.0532 22.7958ZM77.5954 7.76547L79.4867 1.8913C79.6313 1.43517 79.5646 0.990153 79.2753 0.600767C78.9972 0.211381 78.5856 0 78.1072 0H66.3922C65.8916 0 65.4577 0.233632 65.1796 0.656394C64.9014 1.07916 64.8681 1.56867 65.0794 2.03593L67.7384 7.92123C67.972 8.44412 68.4727 8.76675 69.0512 8.76675H76.2159C76.8611 8.75562 77.3952 8.36624 77.5954 7.76547ZM60.6849 31.6182L66.5814 13.5284C66.7816 12.9276 67.3156 12.5382 67.9498 12.5382H74.0687C74.5471 12.5382 74.9587 12.7496 75.2368 13.1279C75.515 13.5173 75.5929 13.9623 75.4371 14.4184L69.5296 32.5082C69.3293 33.1089 68.7953 33.4983 68.1611 33.4983H62.0422C61.5638 33.4983 61.1522 33.2869 60.8741 32.9087C60.6071 32.5193 60.5403 32.0743 60.6849 31.6182ZM60.9186 6.73082L58.2596 0.845524C58.026 0.322634 57.5253 0 56.9468 0H5.77038C5.28087 0 4.84698 0.233632 4.56884 0.656394C4.30184 1.07916 4.25734 1.5798 4.46872 2.03593L7.12767 7.92123C7.3613 8.44412 7.86194 8.76675 8.44045 8.76675H59.6169C60.1175 8.76675 60.5514 8.53312 60.8296 8.11036C61.0966 7.67647 61.1299 7.18695 60.9186 6.73082ZM8.86322 32.5082L12.3121 21.9057C12.5123 21.305 13.0463 20.9156 13.6805 20.9156H56.8467C57.4808 20.9156 58.026 20.5262 58.2151 19.9143L59.984 14.4184C60.1287 13.9623 60.0619 13.5173 59.7727 13.1279C59.4945 12.7496 59.0829 12.5382 58.6045 12.5382H7.33905C6.70491 12.5382 6.17089 12.9276 5.97063 13.5284L0.0742176 31.6182C-0.0704115 32.0743 -0.00365965 32.5304 0.274473 32.9087C0.552606 33.2869 0.964243 33.4983 1.44263 33.4983H7.4948C8.12895 33.5095 8.66296 33.1089 8.86322 32.5082Z" fill="white"/>
</svg>
