<svg width="192" height="22" viewBox="0 0 192 22" fill="none" xmlns="http://www.w3.org/2000/svg">
<g clip-path="url(#clip0_147_658)">
<path fill-rule="evenodd" clip-rule="evenodd" d="M180.371 5.06905H189.124C189.491 5.06905 189.807 4.84361 189.916 4.48936L191.011 1.08852C191.095 0.824444 191.05 0.566806 190.889 0.341372C190.728 0.122378 190.49 0 190.219 0H184.1C183.881 0 183.694 0.0708507 183.54 0.218993L179.811 3.61983C179.553 3.85814 179.469 4.2124 179.598 4.53444C179.72 4.86937 180.017 5.06905 180.371 5.06905ZM162.839 0H156.398C156.03 0 155.715 0.225434 155.605 0.579687L154.51 3.98052C154.427 4.2446 154.465 4.50224 154.633 4.72767C154.794 4.94667 155.032 5.06905 155.309 5.06905H164.384C164.674 5.06905 164.925 4.93378 165.086 4.68903C165.247 4.44427 165.267 4.16087 165.144 3.89035L163.599 0.489514C163.457 0.186788 163.173 0 162.839 0ZM154.059 7.25253H157.563C157.84 7.25253 158.079 7.37491 158.24 7.59391C158.401 7.81934 158.446 8.07698 158.356 8.34106L156.372 14.4278C156.307 14.6339 156.314 14.8336 156.404 15.0332L157.847 18.2215C157.969 18.4856 157.943 18.769 157.789 19.0202C157.628 19.2649 157.383 19.4002 157.087 19.4002H150.646C150.369 19.4002 150.13 19.2778 149.969 19.0588C149.808 18.8334 149.763 18.5758 149.854 18.3117L153.274 7.83866C153.383 7.48441 153.692 7.25253 154.059 7.25253ZM187.379 19.3938L180.963 19.4002C180.686 19.4002 180.448 19.2778 180.287 19.0588C180.126 18.8334 180.081 18.5758 180.171 18.3117L183.591 7.83866C183.707 7.49085 184.016 7.26542 184.384 7.26542L187.894 7.25898C188.171 7.25898 188.409 7.38135 188.57 7.60035C188.731 7.81934 188.776 8.08342 188.686 8.3475L186.696 14.4407C186.631 14.6468 186.638 14.84 186.728 15.0397L188.145 18.2215C188.261 18.4856 188.242 18.769 188.081 19.0138C187.92 19.2585 187.668 19.3938 187.379 19.3938ZM166.091 7.25253H161.576C161.286 7.25253 161.035 7.3878 160.88 7.63255C160.719 7.87731 160.7 8.16071 160.816 8.42479L165.415 18.8978C165.55 19.207 165.84 19.3938 166.181 19.3938H168.61C168.829 19.3938 169.009 19.3229 169.17 19.1748L180.635 8.70175C180.893 8.46344 180.976 8.10918 180.847 7.78714C180.719 7.45865 180.422 7.25253 180.068 7.25253H176.171C175.952 7.25253 175.772 7.32339 175.611 7.47153L170.149 12.4375C169.943 12.6243 169.685 12.6952 169.415 12.6372C169.144 12.5792 168.938 12.4118 168.822 12.1606L166.845 7.74849C166.716 7.43932 166.426 7.25253 166.091 7.25253ZM150.717 4.4958L151.812 1.09497C151.895 0.830885 151.85 0.573247 151.689 0.347813C151.528 0.122378 151.29 0 151.013 0H144.263C143.973 0 143.722 0.13526 143.561 0.380017C143.4 0.624774 143.38 0.908177 143.496 1.17226L145.01 4.57309C145.145 4.88226 145.435 5.06905 145.77 5.06905H149.911C150.292 5.06905 150.601 4.84361 150.717 4.4958ZM141.719 19.4002H145.261C145.628 19.4002 145.937 19.1748 146.053 18.827L149.467 8.35394C149.551 8.08986 149.512 7.82578 149.351 7.60679C149.19 7.38135 148.952 7.26542 148.675 7.26542H145.132C144.765 7.26542 144.456 7.49085 144.34 7.83866L140.926 18.3117C140.843 18.5758 140.881 18.8398 141.042 19.0588C141.21 19.2778 141.448 19.4002 141.719 19.4002ZM110.686 5.06905H141.609V4.99819L139.567 0.489514C139.432 0.186788 139.142 0 138.807 0H109.153C108.863 0 108.612 0.13526 108.451 0.380017C108.29 0.624774 108.271 0.908177 108.393 1.17226L109.92 4.57309C110.061 4.8887 110.345 5.06905 110.686 5.06905ZM110.132 19.4002H106.628C106.351 19.4002 106.113 19.2778 105.952 19.0588C105.791 18.8334 105.746 18.5758 105.836 18.3117L109.256 7.83866C109.372 7.49085 109.681 7.26542 110.048 7.26542H139.793C140.07 7.26542 140.302 7.3878 140.469 7.60679C140.63 7.83222 140.675 8.08986 140.591 8.35394L139.567 11.5358C139.451 11.8836 139.142 12.1155 138.775 12.1155H134.859C134.563 12.1155 134.311 12.2507 134.157 12.5019C134.002 12.7467 133.983 13.0365 134.105 13.3006L136.405 18.2215C136.527 18.4856 136.508 18.7754 136.353 19.0202C136.199 19.2649 135.941 19.4066 135.651 19.4066H131.658C131.336 19.4066 131.065 19.2392 130.917 18.9558L127.645 12.5728C127.497 12.2894 127.226 12.1219 126.904 12.1219H113.733C113.365 12.1219 113.056 12.3473 112.94 12.6952L110.944 18.8334C110.808 19.1683 110.499 19.4002 110.132 19.4002ZM76.2332 5.06905H105.224C105.514 5.06905 105.765 4.93378 105.926 4.68903C106.087 4.44427 106.106 4.16087 105.984 3.89035L104.445 0.483073C104.303 0.186788 104.02 0 103.685 0H77.3282C76.9611 0 76.6455 0.225434 76.536 0.579687L75.441 3.98696C75.3573 4.25104 75.3959 4.50868 75.5634 4.73411C75.7179 4.95311 75.9563 5.06905 76.2332 5.06905ZM103.491 14.3569L105.456 8.3475C105.54 8.08342 105.501 7.81934 105.34 7.60035C105.179 7.37491 104.941 7.25898 104.664 7.25898H92.8638C92.574 7.25898 92.3228 7.39424 92.1617 7.63899C92.0007 7.88375 91.9814 8.16715 92.1038 8.43123L93.5337 11.6131C93.6689 11.9158 93.9588 12.1026 94.2937 12.1026L97.4305 12.109C97.7203 12.109 97.9715 12.2443 98.1325 12.489C98.2871 12.7338 98.3129 13.0172 98.1905 13.2813L97.9586 13.7901C97.8234 14.0928 97.5335 14.2796 97.1986 14.2796H79.7436C79.4086 14.2796 79.1252 14.0928 78.9835 13.7901L78.2493 12.167C78.1591 11.9738 78.1526 11.7741 78.217 11.568L79.2412 8.33462C79.3249 8.07054 79.2798 7.8129 79.1188 7.58746C78.9578 7.36847 78.7194 7.24609 78.4489 7.24609H74.9579C74.5908 7.24609 74.2816 7.47153 74.1657 7.81934L72.7229 12.2378C72.6585 12.444 72.6649 12.6436 72.7551 12.8433L75.4925 18.8978C75.6278 19.2005 75.9176 19.3873 76.2525 19.3873H100.69C101.025 19.3873 101.314 19.2005 101.45 18.8978L103.466 14.4342C103.472 14.4149 103.485 14.3891 103.491 14.3569ZM49.5032 5.06905H53.0071C53.3742 5.06905 53.6898 4.84361 53.7993 4.48936L54.8943 1.08852C54.978 0.824444 54.9329 0.566806 54.7719 0.341372C54.6173 0.122378 54.379 0 54.102 0H50.5982C50.231 0 49.9154 0.225434 49.8059 0.579687L48.711 3.98052C48.6272 4.2446 48.6723 4.50868 48.8333 4.72767C48.9944 4.95311 49.2327 5.06905 49.5032 5.06905ZM50.9782 13.1976L52.5627 8.3475C52.6464 8.08342 52.6077 7.81934 52.4467 7.60035C52.2857 7.37491 52.0474 7.25898 51.7704 7.25898H48.2665C47.8994 7.25898 47.5902 7.48441 47.4743 7.83222L44.0541 18.3052C43.9704 18.5693 44.009 18.8334 44.1701 19.0524C44.3311 19.2778 44.5694 19.3938 44.8464 19.3938H70.7842C71.074 19.3938 71.3252 19.2585 71.4862 19.0138C71.6473 18.769 71.6666 18.4856 71.5442 18.2151L69.9855 14.7756C69.8502 14.4729 69.5604 14.2861 69.2254 14.2861H51.7704C51.4935 14.2861 51.2551 14.1637 51.0941 13.9447C50.9331 13.7193 50.8944 13.4616 50.9782 13.1976ZM44.9237 4.4958L46.0186 1.09497C46.1024 0.830885 46.0637 0.573247 45.8963 0.347813C45.7352 0.122378 45.4969 0 45.2199 0H38.4376C38.1478 0 37.8966 0.13526 37.7355 0.380017C37.5745 0.624774 37.5552 0.908177 37.6776 1.1787L39.217 4.58597C39.3522 4.8887 39.6421 5.07549 39.977 5.07549H44.125C44.4986 5.06905 44.8077 4.84361 44.9237 4.4958ZM35.1334 18.3052L38.5471 7.83222C38.663 7.48441 38.9722 7.25898 39.3393 7.25898H42.8819C43.1588 7.25898 43.3972 7.38135 43.5582 7.60035C43.7192 7.82578 43.7643 8.08342 43.6741 8.3475L40.254 18.8205C40.138 19.1683 39.8289 19.3938 39.4617 19.3938H35.9192C35.6422 19.3938 35.4039 19.2714 35.2429 19.0524C35.0883 18.827 35.0497 18.5693 35.1334 18.3052ZM35.2686 3.89679L33.7293 0.489514C33.594 0.186788 33.3041 0 32.9692 0H3.34075C3.05734 0 2.80614 0.13526 2.64512 0.380017C2.49054 0.624774 2.46477 0.914618 2.58715 1.1787L4.12654 4.58597C4.2618 4.8887 4.55165 5.07549 4.88658 5.07549H34.5151C34.8049 5.07549 35.0561 4.94023 35.2171 4.69547C35.3717 4.44427 35.391 4.16087 35.2686 3.89679ZM5.13134 18.8205L7.12804 12.6823C7.24397 12.3345 7.55314 12.109 7.92028 12.109H32.9112C33.2784 12.109 33.594 11.8836 33.7035 11.5293L34.7276 8.3475C34.8113 8.08342 34.7727 7.82578 34.6052 7.60035C34.4442 7.38135 34.2059 7.25898 33.9289 7.25898H4.24892C3.88179 7.25898 3.57262 7.48441 3.45668 7.83222L0.0429681 18.3052C-0.0407646 18.5693 -0.00211874 18.8334 0.158906 19.0524C0.31993 19.2714 0.558246 19.3938 0.835208 19.3938H4.3391C4.70623 19.4002 5.0154 19.1683 5.13134 18.8205Z" fill="white"/>
</g>
<defs>
<clipPath id="clip0_147_658">
<rect width="191.053" height="22" fill="white"/>
</clipPath>
</defs>
</svg>
