<svg width="139" height="16" viewBox="0 0 139 16" fill="none" xmlns="http://www.w3.org/2000/svg">
<g clip-path="url(#clip0_147_675)">
<path fill-rule="evenodd" clip-rule="evenodd" d="M131.179 3.68658H137.545C137.812 3.68658 138.041 3.52263 138.121 3.26499L138.917 0.791654C138.978 0.599596 138.945 0.412222 138.828 0.24827C138.711 0.0890025 138.538 0 138.341 0H133.891C133.732 0 133.596 0.0515278 133.484 0.159268L130.771 2.6326C130.584 2.80592 130.523 3.06356 130.617 3.29778C130.706 3.54136 130.921 3.68658 131.179 3.68658ZM118.428 0H113.744C113.477 0 113.247 0.163952 113.168 0.421591L112.371 2.89492C112.31 3.08698 112.338 3.27436 112.46 3.43831C112.577 3.59758 112.751 3.68658 112.952 3.68658H119.552C119.763 3.68658 119.946 3.58821 120.063 3.4102C120.18 3.2322 120.194 3.02609 120.105 2.82934L118.981 0.35601C118.878 0.135846 118.672 0 118.428 0ZM112.043 5.27457H114.592C114.793 5.27457 114.966 5.36357 115.083 5.52284C115.201 5.68679 115.233 5.87417 115.168 6.06622L113.725 10.4929C113.678 10.6428 113.683 10.788 113.748 10.9333L114.798 13.252C114.887 13.4441 114.868 13.6502 114.756 13.8329C114.638 14.0109 114.46 14.1092 114.245 14.1092H109.561C109.359 14.1092 109.186 14.0202 109.069 13.861C108.952 13.697 108.919 13.5096 108.984 13.3176L111.472 5.70085C111.551 5.44321 111.776 5.27457 112.043 5.27457ZM136.275 14.1046L131.61 14.1092C131.408 14.1092 131.235 14.0202 131.118 13.861C131.001 13.697 130.968 13.5096 131.034 13.3176L133.521 5.70085C133.605 5.44789 133.83 5.28394 134.097 5.28394L136.65 5.27926C136.852 5.27926 137.025 5.36826 137.142 5.52753C137.259 5.68679 137.292 5.87885 137.226 6.07091L135.779 10.5023C135.732 10.6522 135.737 10.7927 135.802 10.9379L136.833 13.252C136.917 13.4441 136.903 13.6502 136.786 13.8282C136.669 14.0062 136.486 14.1046 136.275 14.1046ZM120.794 5.27457H117.51C117.299 5.27457 117.116 5.37294 117.004 5.55095C116.887 5.72895 116.873 5.93506 116.957 6.12712L120.302 13.7439C120.4 13.9687 120.611 14.1046 120.859 14.1046H122.625C122.784 14.1046 122.916 14.053 123.033 13.9453L131.371 6.32855C131.558 6.15523 131.619 5.89759 131.525 5.66337C131.432 5.42447 131.216 5.27457 130.959 5.27457H128.125C127.965 5.27457 127.834 5.3261 127.717 5.43384L123.745 9.04547C123.595 9.18131 123.407 9.23284 123.211 9.19068C123.014 9.14852 122.864 9.02673 122.78 8.84404L121.342 5.63526C121.248 5.41042 121.037 5.27457 120.794 5.27457ZM109.612 3.26967L110.408 0.796338C110.469 0.60428 110.437 0.416907 110.319 0.252955C110.202 0.0890025 110.029 0 109.828 0H104.918C104.708 0 104.525 0.0983712 104.408 0.276376C104.291 0.454381 104.277 0.660492 104.361 0.852551L105.462 3.32588C105.56 3.55073 105.771 3.68658 106.015 3.68658H109.027C109.303 3.68658 109.528 3.52263 109.612 3.26967ZM103.068 14.1092H105.644C105.911 14.1092 106.136 13.9453 106.221 13.6923L108.703 6.07559C108.764 5.88354 108.736 5.69148 108.619 5.53221C108.502 5.36826 108.329 5.28394 108.127 5.28394H105.551C105.284 5.28394 105.059 5.44789 104.975 5.70085L102.492 13.3176C102.431 13.5096 102.459 13.7017 102.576 13.861C102.698 14.0202 102.871 14.1092 103.068 14.1092ZM80.4989 3.68658H102.988V3.63505L101.504 0.35601C101.405 0.135846 101.194 0 100.951 0H79.384C79.1732 0 78.9905 0.0983712 78.8734 0.276376C78.7563 0.454381 78.7423 0.660492 78.8313 0.852551L79.9415 3.32588C80.0445 3.55542 80.2506 3.68658 80.4989 3.68658ZM80.0961 14.1092H77.5478C77.3463 14.1092 77.173 14.0202 77.0559 13.861C76.9388 13.697 76.906 13.5096 76.9716 13.3176L79.459 5.70085C79.5433 5.44789 79.7681 5.28394 80.0351 5.28394H101.667C101.869 5.28394 102.038 5.37294 102.159 5.53221C102.276 5.69616 102.309 5.88354 102.248 6.07559L101.504 8.38966C101.419 8.64261 101.194 8.81125 100.927 8.81125H98.0792C97.8638 8.81125 97.6811 8.90962 97.5686 9.09231C97.4562 9.27032 97.4422 9.48111 97.5312 9.67317L99.2035 13.252C99.2925 13.4441 99.2784 13.6549 99.166 13.8329C99.0536 14.0109 98.8662 14.1139 98.6554 14.1139H95.7511C95.5169 14.1139 95.3202 13.9921 95.2124 13.786L92.8328 9.14384C92.725 8.93773 92.5283 8.81593 92.2941 8.81593H82.7146C82.4476 8.81593 82.2227 8.97989 82.1384 9.23284L80.6863 13.697C80.5879 13.9406 80.3631 14.1092 80.0961 14.1092ZM55.4424 3.68658H76.5266C76.7374 3.68658 76.9201 3.58821 77.0372 3.4102C77.1543 3.2322 77.1683 3.02609 77.0793 2.82934L75.9598 0.351326C75.8567 0.135846 75.6506 0 75.407 0H56.2387C55.9717 0 55.7421 0.163952 55.6625 0.421591L54.8662 2.89961C54.8053 3.09167 54.8334 3.27904 54.9552 3.44299C55.0676 3.60226 55.2409 3.68658 55.4424 3.68658ZM75.2665 10.4414L76.6952 6.07091C76.7561 5.87885 76.728 5.68679 76.6109 5.52753C76.4938 5.36357 76.3205 5.27926 76.119 5.27926H67.5373C67.3265 5.27926 67.1438 5.37763 67.0267 5.55563C66.9096 5.73364 66.8956 5.93975 66.9846 6.13181L68.0245 8.44587C68.1229 8.66604 68.3337 8.80188 68.5772 8.80188L70.8585 8.80657C71.0693 8.80657 71.252 8.90494 71.3691 9.08294C71.4815 9.26095 71.5003 9.46706 71.4113 9.65912L71.2426 10.0292C71.1443 10.2493 70.9335 10.3852 70.6899 10.3852H57.9953C57.7517 10.3852 57.5456 10.2493 57.4426 10.0292L56.9086 8.84872C56.843 8.70819 56.8383 8.56298 56.8851 8.41308L57.6299 6.06154C57.6908 5.86948 57.658 5.68211 57.5409 5.51816C57.4238 5.35889 57.2505 5.26989 57.0538 5.26989H54.5149C54.2478 5.26989 54.023 5.43384 53.9387 5.68679L52.8894 8.90025C52.8425 9.05015 52.8472 9.19537 52.9128 9.34058L54.9037 13.7439C55.002 13.964 55.2128 14.0999 55.4564 14.0999H73.2288C73.4724 14.0999 73.6832 13.964 73.7815 13.7439L75.2477 10.4976C75.2524 10.4836 75.2618 10.4648 75.2665 10.4414ZM36.0023 3.68658H38.5506C38.8176 3.68658 39.0471 3.52263 39.1268 3.26499L39.9231 0.791654C39.984 0.599596 39.9512 0.412222 39.8341 0.24827C39.7217 0.0890025 39.5484 0 39.3469 0H36.7987C36.5317 0 36.3021 0.163952 36.2225 0.421591L35.4261 2.89492C35.3653 3.08698 35.398 3.27904 35.5152 3.43831C35.6323 3.60226 35.8056 3.68658 36.0023 3.68658ZM37.075 9.59822L38.2274 6.07091C38.2883 5.87885 38.2602 5.68679 38.1431 5.52753C38.026 5.36357 37.8526 5.27926 37.6512 5.27926H35.1029C34.8359 5.27926 34.6111 5.44321 34.5268 5.69616L32.0394 13.3129C31.9785 13.505 32.0066 13.697 32.1237 13.8563C32.2408 14.0202 32.4141 14.1046 32.6155 14.1046H51.4794C51.6902 14.1046 51.8729 14.0062 51.99 13.8282C52.1071 13.6502 52.1212 13.4441 52.0322 13.2473L50.8985 10.7459C50.8002 10.5257 50.5894 10.3899 50.3458 10.3899H37.6512C37.4498 10.3899 37.2765 10.3009 37.1594 10.1416C37.0423 9.97765 37.0141 9.79028 37.075 9.59822ZM32.6718 3.26967L33.4681 0.796338C33.529 0.60428 33.5009 0.416907 33.3791 0.252955C33.262 0.0890025 33.0887 0 32.8872 0H27.9546C27.7438 0 27.5611 0.0983712 27.444 0.276376C27.3269 0.454381 27.3129 0.660492 27.4019 0.857235L28.5214 3.33525C28.6198 3.55542 28.8306 3.69126 29.0742 3.69126H32.0909C32.3626 3.68658 32.5874 3.52263 32.6718 3.26967ZM25.5516 13.3129L28.0343 5.69616C28.1186 5.44321 28.3434 5.27926 28.6104 5.27926H31.1868C31.3882 5.27926 31.5616 5.36826 31.6787 5.52753C31.7958 5.69148 31.8286 5.87885 31.763 6.07091L29.2756 13.6877C29.1913 13.9406 28.9664 14.1046 28.6994 14.1046H26.123C25.9216 14.1046 25.7483 14.0156 25.6312 13.8563C25.5188 13.6923 25.4907 13.505 25.5516 13.3129ZM25.6499 2.83403L24.5304 0.35601C24.432 0.135846 24.2212 0 23.9776 0H2.42963C2.22352 0 2.04083 0.0983712 1.92372 0.276376C1.8113 0.454381 1.79256 0.665177 1.88157 0.857235L3.00112 3.33525C3.09949 3.55542 3.31029 3.69126 3.55388 3.69126H25.1019C25.3127 3.69126 25.4953 3.59289 25.6125 3.41489C25.7249 3.2322 25.7389 3.02609 25.6499 2.83403ZM3.73188 13.6877L5.18403 9.22347C5.26835 8.97052 5.49319 8.80657 5.7602 8.80657H23.9355C24.2025 8.80657 24.432 8.64261 24.5116 8.38497L25.2564 6.07091C25.3173 5.87885 25.2892 5.69148 25.1674 5.52753C25.0503 5.36826 24.877 5.27926 24.6756 5.27926H3.09013C2.82312 5.27926 2.59827 5.44321 2.51395 5.69616L0.0312495 13.3129C-0.029647 13.505 -0.0015409 13.697 0.115568 13.8563C0.232676 14.0156 0.405997 14.1046 0.607424 14.1046H3.15571C3.42271 14.1092 3.64756 13.9406 3.73188 13.6877Z" fill="white"/>
</g>
<defs>
<clipPath id="clip0_147_675">
<rect width="138.947" height="16" fill="white"/>
</clipPath>
</defs>
</svg>
