<svg width="330" height="38" viewBox="0 0 330 38" fill="none" xmlns="http://www.w3.org/2000/svg">
<mask id="mask0_147_474" style="mask-type:luminance" maskUnits="userSpaceOnUse" x="0" y="0" width="330" height="31">
<path d="M0 0L0.0385679 23.5779L8.65207 30.5072L8.60065 6.32514H41.3062C42.2447 6.38942 42.7333 6.82652 42.759 7.66216V12.3674C42.759 13.1388 42.2319 13.5759 41.1905 13.6659H12.9717L21.2766 20.351H29.9159L43.0418 30.4944H55.9749L42.7847 19.8753H48.9556C50.794 19.8753 51.681 19.0526 51.6424 17.407L51.6039 2.66119C51.501 0.887062 50.3054 0 48.0428 0H0ZM66.3368 7.94499C66.3368 6.87795 66.9539 6.35085 68.2395 6.35085H89.2976L99.261 14.1673H66.3497L66.3368 7.94499ZM62.9557 0C60.0245 0 58.6875 1.45273 58.6875 4.44817L58.7004 24.3364L66.3754 30.5072L66.3625 20.5053L102.488 20.5438L102.501 24.1307L110.394 30.4815L110.381 20.4796L110.394 13.2031L93.5401 0H62.9557ZM112.4 0L112.425 23.5907L121.039 30.5201L121.013 6.32514H153.719C154.657 6.38942 155.146 6.82652 155.172 7.66216L155.184 12.3674C155.184 13.1388 154.657 13.5759 153.603 13.6659H125.371L133.676 20.351H161.355C163.181 20.351 164.042 19.5282 164.042 17.8827L164.017 2.66119C163.901 0.887062 162.705 0 160.443 0H112.4ZM165.251 0L173.041 6.32514H187.286L187.363 25.4034L193.881 30.5201L193.817 6.32514H216.88V0H165.251ZM226.471 13.2802L226.458 6.78795H252.607L265.129 16.5971L265.116 23.1022H239.005L226.471 13.2802ZM223.385 0C220.647 0.347111 220.197 3.40683 220.03 4.19105L220.043 10.6319L220.056 17.9084L236.139 30.5072H244.778H267.764C271.261 30.3144 271.415 27.1775 271.608 26.0462L271.595 19.2711L271.582 11.9689L256.284 0H223.385ZM274.012 0L274.038 23.5779L282.651 30.5072L282.613 6.31228H315.318C316.257 6.37656 316.745 6.81367 316.771 7.6493L316.784 12.3546C316.784 13.1259 316.27 13.5631 315.216 13.653H286.997L295.302 20.3382H303.941L317.067 30.4815H330L316.81 19.8625H322.981C324.819 19.8625 325.706 19.0397 325.668 17.3941L325.642 2.64833C325.513 0.887062 324.331 0 322.055 0H274.012Z" fill="white"/>
</mask>
<g mask="url(#mask0_147_474)">
<path d="M329.987 0H0V30.5072H329.987V0Z" fill="white"/>
</g>
</svg>
