<svg width="192" height="22" viewBox="0 0 192 22" fill="none" xmlns="http://www.w3.org/2000/svg">
<g clip-path="url(#clip0_147_649)">
<mask id="mask0_147_649" style="mask-type:luminance" maskUnits="userSpaceOnUse" x="0" y="0" width="192" height="18">
<path d="M0 0L0.0223288 13.6503L5.00909 17.6621L4.97932 3.66192H23.9141C24.4575 3.69914 24.7403 3.9522 24.7552 4.43599V7.1601C24.7552 7.60668 24.45 7.85974 23.8472 7.91184H7.50992L12.3181 11.7822H17.3197L24.9189 17.6546H32.4065L24.7701 11.5068H28.3427C29.407 11.5068 29.9206 11.0304 29.8983 10.0777L29.8759 1.54069C29.8164 0.513562 29.1242 0 27.8142 0H0ZM38.4055 4.59973C38.4055 3.98197 38.7628 3.67681 39.5071 3.67681H51.6986L57.4669 8.20211H38.413L38.4055 4.59973ZM36.448 0C34.7511 0 33.977 0.841051 33.977 2.57525L33.9844 14.0895L38.4279 17.6621L38.4204 11.8715L59.3351 11.8938L59.3425 13.9704L63.9125 17.6472L63.905 11.8566L63.9125 7.64389L54.1548 0H36.448ZM65.0736 0L65.0884 13.6578L70.0752 17.6695L70.0603 3.66192H88.9951C89.5385 3.69914 89.8213 3.9522 89.8362 4.43599L89.8436 7.1601C89.8436 7.60668 89.5385 7.85974 88.9282 7.91184H72.5835L77.3916 11.7822H93.4162C94.4731 11.7822 94.9718 11.3058 94.9718 10.3531L94.9569 1.54069C94.8899 0.513562 94.1978 0 92.8878 0H65.0736ZM95.6714 0L100.182 3.66192H108.429L108.473 14.7072L112.247 17.6695L112.21 3.66192H125.562V0H95.6714ZM131.115 7.68855L131.107 3.92987H146.246L153.496 9.60882L153.488 13.3749H138.372L131.115 7.68855ZM129.328 0C127.743 0.200959 127.483 1.97238 127.386 2.4264L127.393 6.1553L127.401 10.368L136.712 17.6621H141.713H155.021C157.046 17.5504 157.135 15.7344 157.247 15.0794L157.239 11.157L157.232 6.92937L148.375 0H129.328ZM158.639 0L158.654 13.6503L163.64 17.6621L163.618 3.65448H182.553C183.096 3.69169 183.379 3.94475 183.394 4.42854L183.401 7.15266C183.401 7.59923 183.104 7.85229 182.493 7.90439H166.156L170.964 11.7747H175.966L183.565 17.6472H191.053L183.416 11.4993H186.989C188.053 11.4993 188.567 11.023 188.544 10.0703L188.529 1.53324C188.455 0.513562 187.77 0 186.453 0H158.639Z" fill="white"/>
</mask>
<g mask="url(#mask0_147_649)">
<path d="M191.045 0H0V17.6621H191.045V0Z" fill="white"/>
</g>
</g>
<defs>
<clipPath id="clip0_147_649">
<rect width="191.053" height="22" fill="white"/>
</clipPath>
</defs>
</svg>
