<svg width="139" height="16" viewBox="0 0 139 16" fill="none" xmlns="http://www.w3.org/2000/svg">
<g clip-path="url(#clip0_147_666)">
<mask id="mask0_147_666" style="mask-type:luminance" maskUnits="userSpaceOnUse" x="0" y="0" width="139" height="13">
<path d="M0 0L0.0162391 9.92752L3.64298 12.8451L3.62133 2.66322H17.3921C17.7873 2.69028 17.993 2.87432 18.0038 3.22617V5.20735C18.0038 5.53213 17.7818 5.71617 17.3434 5.75406H5.46176L8.95858 8.56884H12.5961L18.1229 12.8397H23.5684L18.0146 8.36856H20.6129C21.3869 8.36856 21.7604 8.02213 21.7442 7.32926L21.7279 1.1205C21.6846 0.3735 21.1812 0 20.2285 0H0ZM27.9313 3.34526C27.9313 2.89598 28.1911 2.67404 28.7324 2.67404H37.599L41.7941 5.96517H27.9367L27.9313 3.34526ZM26.5077 0C25.2735 0 24.7105 0.611674 24.7105 1.87291L24.7159 10.2469L27.9475 12.8451L27.9421 8.6338L43.1528 8.65004L43.1582 10.1603L46.4818 12.8343L46.4764 8.62297L46.4818 5.55919L39.3853 0H26.5077ZM47.3262 0L47.337 9.93293L50.9638 12.8506L50.953 2.66322H64.7237C65.1189 2.69028 65.3246 2.87432 65.3354 3.22617L65.3408 5.20735C65.3408 5.53213 65.1189 5.71617 64.675 5.75406H52.788L56.2848 8.56884H67.9391C68.7077 8.56884 69.0704 8.22241 69.0704 7.52954L69.0596 1.1205C69.0109 0.3735 68.5075 0 67.5548 0H47.3262ZM69.5792 0L72.8595 2.66322H78.8572L78.8897 10.6962L81.6341 12.8506L81.607 2.66322H91.318V0H69.5792ZM95.3561 5.59167L95.3507 2.85809H106.361L111.633 6.98824L111.628 9.72723H100.634L95.3561 5.59167ZM94.057 0C92.904 0.146152 92.7146 1.43446 92.6442 1.76465L92.6496 4.47659L92.655 7.54037L99.4267 12.8451H103.064H112.743C114.215 12.764 114.28 11.4432 114.361 10.9668L114.356 8.11415L114.351 5.03954L107.909 0H94.057ZM115.374 0L115.384 9.92752L119.011 12.8451L118.995 2.6578H132.766C133.161 2.68487 133.367 2.86891 133.377 3.22076L133.383 5.20193C133.383 5.52671 133.166 5.71076 132.722 5.74865H120.841L124.338 8.56343H127.975L133.502 12.8343H138.947L133.394 8.36315H135.992C136.766 8.36315 137.139 8.01671 137.123 7.32384L137.112 1.11509C137.058 0.3735 136.56 0 135.602 0H115.374Z" fill="white"/>
</mask>
<g mask="url(#mask0_147_666)">
<path d="M138.942 0H0V12.8451H138.942V0Z" fill="white"/>
</g>
</g>
<defs>
<clipPath id="clip0_147_666">
<rect width="138.947" height="16" fill="white"/>
</clipPath>
</defs>
</svg>
