<svg width="26" height="23" viewBox="0 0 26 23" fill="none" xmlns="http://www.w3.org/2000/svg">
<g filter="url(#filter0_d_124_1568)">
<path fill-rule="evenodd" clip-rule="evenodd" d="M20.84 0.649696L20.54 0.759696L4.38 6.5797C4.27 6.6197 4.17 6.6897 4.1 6.7897C4.03 6.8897 4 7.0097 4 7.12969C4.01 7.24969 4.05 7.35969 4.13 7.45969C4.21 7.5497 4.31 7.60969 4.43 7.6397L8.61 8.7897L9.39 11.0797L10.17 13.3697C10.21 13.4797 10.29 13.5797 10.38 13.6597C10.47 13.7397 10.58 13.7897 10.7 13.8197C10.82 13.8497 10.94 13.8397 11.06 13.8097C11.18 13.7797 11.28 13.7197 11.37 13.6397L13.53 11.5997L17.77 14.4797C18.29 14.8297 19.03 14.5697 19.16 13.9897L21.97 1.5697C22.11 0.939696 21.47 0.429696 20.84 0.649696ZM18.78 3.4097L11.48 9.37969L11.14 9.6597C11.06 9.7197 11.02 9.8097 11 9.8997L10.92 10.5297L10.71 12.3097C10.71 12.3297 10.71 12.3497 10.69 12.3697C10.68 12.3897 10.66 12.3997 10.63 12.3997C10.61 12.3997 10.59 12.3997 10.57 12.3797C10.55 12.3697 10.54 12.3497 10.54 12.3197L9.95 10.5397L9.34 8.7197C9.31 8.6397 9.32 8.5497 9.35 8.4697C9.38 8.3897 9.44 8.3197 9.52 8.2797L17.12 3.9297L18.55 3.1097C18.75 2.9997 18.96 3.2597 18.78 3.4097Z" fill="white" fill-opacity="0.5" shape-rendering="crispEdges"/>
</g>
<defs>
<filter id="filter0_d_124_1568" x="0" y="0.597656" width="25.9893" height="22.0403" filterUnits="userSpaceOnUse" color-interpolation-filters="sRGB">
<feFlood flood-opacity="0" result="BackgroundImageFix"/>
<feColorMatrix in="SourceAlpha" type="matrix" values="0 0 0 0 0 0 0 0 0 0 0 0 0 0 0 0 0 0 127 0" result="hardAlpha"/>
<feOffset dy="4"/>
<feGaussianBlur stdDeviation="2"/>
<feComposite in2="hardAlpha" operator="out"/>
<feColorMatrix type="matrix" values="0 0 0 0 0 0 0 0 0 0 0 0 0 0 0 0 0 0 0.25 0"/>
<feBlend mode="normal" in2="BackgroundImageFix" result="effect1_dropShadow_124_1568"/>
<feBlend mode="normal" in="SourceGraphic" in2="effect1_dropShadow_124_1568" result="shape"/>
</filter>
</defs>
</svg>
