<svg width="330" height="38" viewBox="0 0 330 38" fill="none" xmlns="http://www.w3.org/2000/svg">
<g clip-path="url(#clip0_147_6584)">
<path d="M66.4023 0.10061C66.4023 0.0964177 66.3981 0.0922256 66.3939 0.0838415C66.3897 0.0712652 66.3855 0.0628811 66.3813 0.0503049C66.373 0.0377287 66.3688 0.0293445 66.3562 0.0209604C66.352 0.0167683 66.352 0.0125762 66.3436 0.00838415C66.3352 0.00419207 66.3268 0.00838415 66.3227 0.00838415C66.3143 0.00838415 66.3101 0 66.3017 0H58.102C58.0978 0 58.0936 0.00419207 58.0852 0.00838415C58.0726 0.0125762 58.0643 0.0167683 58.0517 0.0209604C58.0391 0.0293445 58.0307 0.0335366 58.0223 0.0461128C58.0182 0.0503049 58.014 0.0503049 58.0098 0.058689L41.8619 32.8533C41.8577 32.8617 41.8619 32.87 41.8619 32.8784C41.8619 32.8868 41.8535 32.891 41.8535 32.8994C41.8535 32.9036 41.8577 32.9078 41.8619 32.9162C41.8661 32.9287 41.8703 32.9371 41.8745 32.9497C41.8829 32.9623 41.8871 32.9707 41.8996 32.979C41.9038 32.9832 41.9038 32.9874 41.9122 32.9916C41.9248 33 41.9415 33.0042 41.9583 33.0042H50.1077C50.1329 33.0042 50.1538 32.9916 50.1706 32.979C50.1748 32.9748 50.179 32.9707 50.1832 32.9665C50.1874 32.9623 50.1957 32.9581 50.1999 32.9497L66.3981 0.150915C66.4023 0.14253 66.3981 0.134146 66.3981 0.125762C66.3939 0.113186 66.4023 0.108994 66.4023 0.10061Z" fill="white"/>
<path d="M188.392 0.10061C188.392 0.0964177 188.387 0.0922256 188.383 0.0838415C188.379 0.0712652 188.375 0.0628811 188.371 0.0503049C188.362 0.0377287 188.358 0.0293445 188.346 0.0209604C188.341 0.0167683 188.341 0.0125762 188.333 0.00838415C188.325 0.00419207 188.316 0.00838415 188.312 0.00838415C188.304 0.00838415 188.299 0 188.291 0H134.465C134.456 0 134.452 0.00419207 134.448 0.00838415C134.435 0.0125762 134.427 0.0167683 134.414 0.0209604C134.402 0.0293445 134.394 0.0335366 134.385 0.0461128C134.381 0.0503049 134.377 0.0503049 134.373 0.058689L130.6 7.95655C130.596 7.96494 130.6 7.97332 130.6 7.97752C130.6 7.9859 130.591 7.99009 130.591 7.99848C130.591 8.00686 130.596 8.00686 130.6 8.01524C130.604 8.02782 130.608 8.0362 130.612 8.04878C130.621 8.06136 130.625 8.06974 130.637 8.07812C130.642 8.08232 130.642 8.08651 130.65 8.0907C130.663 8.09908 130.679 8.09908 130.692 8.09908H184.367C184.392 8.09908 184.413 8.08651 184.43 8.07393C184.434 8.06974 184.438 8.06555 184.443 8.06136C184.447 8.05716 184.455 8.05297 184.455 8.04459L188.379 0.146723C188.383 0.138338 188.379 0.129954 188.379 0.125762C188.383 0.113186 188.392 0.108994 188.392 0.10061Z" fill="white"/>
<path d="M51.8096 0.104821C51.8096 0.0880529 51.8012 0.0796687 51.7971 0.0670925C51.7929 0.0545163 51.7929 0.0419401 51.7845 0.0335559H51.7803C51.7719 0.0251718 51.7551 0.0209797 51.7426 0.0167876C51.73 0.0125956 51.7216 0.00421143 51.709 0.00421143H51.7048H42.4487C42.4362 0.00421143 42.4278 0.0125956 42.4194 0.0167876C42.4068 0.0209797 42.3942 0.0209797 42.3859 0.0293639L12.5383 25.1189L12.4209 24.532L7.64195 0.482108C7.64195 0.473724 7.63356 0.469532 7.62937 0.461147C7.62518 0.452763 7.62937 0.444379 7.62099 0.435995C7.6168 0.431803 7.6126 0.431803 7.60841 0.427611C7.60003 0.423419 7.58745 0.419227 7.57487 0.415035C7.5623 0.410843 7.54972 0.40665 7.53715 0.40665C7.53295 0.40665 7.52876 0.402458 7.52457 0.402458C7.51619 0.402458 7.51199 0.410843 7.50361 0.415035C7.49522 0.419227 7.48684 0.415035 7.47846 0.423419L0.0333341 6.71153C0.0291421 6.71572 0.0291421 6.71991 0.02495 6.7241C0.0165658 6.73249 0.0123738 6.74507 0.00818169 6.75764C0.00398962 6.77022 -0.000202458 6.78279 -0.000202458 6.79537C-0.000202458 6.79956 -0.00439453 6.80375 -0.00439453 6.80795L4.97579 32.9162C4.97998 32.9287 4.98837 32.9371 4.99675 32.9497C5.00094 32.9581 5.00094 32.9665 5.00933 32.9707C5.02609 32.9874 5.05125 33 5.0764 33H13.1252C13.1503 33 13.1713 32.9916 13.1923 32.9749L51.7761 0.176086V0.171894C51.7845 0.16351 51.7887 0.150934 51.7929 0.134166C51.8013 0.125782 51.8096 0.117397 51.8096 0.104821Z" fill="white"/>
<path d="M182.154 12.7271C182.154 12.7229 182.15 12.7188 182.145 12.7104C182.141 12.6978 182.137 12.6894 182.133 12.6768C182.124 12.6643 182.12 12.6559 182.108 12.6475C182.103 12.6433 182.103 12.6391 182.095 12.6349C182.087 12.6307 182.078 12.6349 182.074 12.6349C182.066 12.6349 182.062 12.6265 182.053 12.6265H128.378C128.374 12.6265 128.369 12.6307 128.361 12.6349C128.349 12.6391 128.34 12.6433 128.328 12.6475C128.315 12.6559 128.307 12.6601 128.298 12.6726C128.294 12.6768 128.29 12.6768 128.286 12.6852L118.325 32.8575C118.321 32.8659 118.325 32.8742 118.325 32.8826C118.325 32.891 118.317 32.8952 118.317 32.9036C118.317 32.9078 118.321 32.912 118.325 32.9203C118.329 32.9329 118.334 32.9413 118.338 32.9539C118.346 32.9665 118.35 32.9748 118.363 32.9832C118.367 32.9874 118.367 32.9916 118.376 32.9958C118.388 33.0042 118.405 33.0084 118.422 33.0084H172.097C172.122 33.0084 172.143 32.9958 172.16 32.9832C172.164 32.979 172.168 32.9748 172.172 32.9707C172.177 32.9665 172.185 32.9623 172.185 32.9539L176.109 25.0057C176.113 24.9973 176.109 24.9889 176.109 24.9848C176.109 24.9764 176.117 24.9722 176.117 24.9638C176.117 24.9596 176.113 24.9554 176.109 24.947C176.105 24.9345 176.1 24.9261 176.096 24.9135C176.088 24.9009 176.084 24.8925 176.071 24.8841C176.067 24.88 176.067 24.8758 176.059 24.8716C176.05 24.8674 176.042 24.8716 176.038 24.8716C176.029 24.8716 176.025 24.8632 176.017 24.8632H130.6L132.863 20.3357H178.331C178.356 20.3357 178.377 20.3232 178.393 20.3106C178.398 20.3064 178.402 20.3022 178.406 20.298C178.41 20.2938 178.419 20.2896 178.419 20.2813L182.141 12.7858C182.145 12.7774 182.141 12.7691 182.141 12.7649C182.145 12.7397 182.154 12.7355 182.154 12.7271Z" fill="white"/>
<path d="M246.289 4.7203C246.289 4.72449 246.293 4.72449 246.293 4.72868V4.82929V4.98021V5.03051V5.08081V5.18142C246.293 5.18562 246.289 5.18981 246.284 5.19819C246.284 5.20238 246.289 5.21077 246.284 5.21496L246.238 5.34911V5.43295V5.48325V5.68447C246.238 5.69286 246.23 5.69705 246.23 5.70543C246.23 5.71382 246.234 5.7222 246.23 5.73059L246.192 5.81024V5.83539V5.88569V5.936C246.192 5.94438 246.184 5.94857 246.184 5.95696C246.184 5.96534 246.188 5.97373 246.184 5.97792L246.146 6.05757V6.08272V6.13303V6.23363C246.146 6.25879 246.138 6.28394 246.117 6.3049L246.096 6.32586V6.33424C246.096 6.34263 246.087 6.34682 246.087 6.3552C246.087 6.36359 246.092 6.37197 246.087 6.38036L246.05 6.46001V6.48516V6.53546C246.05 6.54385 246.041 6.54804 246.041 6.55642C246.041 6.56481 246.045 6.57319 246.041 6.58158L246.003 6.66123V6.68638V6.73668C246.003 6.74507 245.995 6.74926 245.995 6.75764C245.995 6.76603 245.999 6.77441 245.995 6.7828L245.949 6.87502L245.903 7.06367C245.903 7.06786 245.899 7.06786 245.894 7.07205C245.894 7.07624 245.894 7.08043 245.894 7.08043L245.844 7.18104C245.84 7.18943 245.836 7.18943 245.832 7.19781C245.827 7.202 245.832 7.2062 245.827 7.2062L245.794 7.23973L245.752 7.36969L245.702 7.5206C245.702 7.52479 245.697 7.52479 245.697 7.52899C245.697 7.53318 245.697 7.53318 245.697 7.53737L245.66 7.61702V7.64217C245.66 7.68828 245.626 7.72182 245.58 7.7344L245.4 8.18295C245.4 8.18295 245.4 8.18295 245.396 8.18714V8.19133L243.082 12.92L243.031 13.0206C243.031 13.0248 243.027 13.0248 243.027 13.0248V13.029L242.931 13.1715L242.893 13.247V13.2721C242.893 13.2805 242.885 13.2847 242.885 13.2931C242.885 13.3015 242.889 13.3099 242.885 13.3182L242.834 13.4188C242.834 13.423 242.83 13.423 242.83 13.423V13.4272L242.734 13.574L242.688 13.6704C242.683 13.6788 242.679 13.6788 242.675 13.6871C242.671 13.6913 242.675 13.6955 242.671 13.6955L242.625 13.7416L242.537 13.8758L242.486 13.9722C242.482 13.9806 242.478 13.9806 242.474 13.989C242.47 13.9932 242.474 13.9974 242.47 13.9974L242.449 14.0183V14.0267C242.449 14.0686 242.419 14.098 242.386 14.1105C242.382 14.1231 242.382 14.1357 242.369 14.1483L242.319 14.1986L242.298 14.2195V14.2279L242.293 14.2321C242.293 14.2573 242.281 14.2824 242.264 14.2992L242.193 14.3704V14.3788C242.193 14.4208 242.168 14.4459 242.134 14.4627C242.134 14.4669 242.134 14.4711 242.134 14.4752L242.084 14.5759C242.08 14.5842 242.076 14.5842 242.071 14.5926C242.067 14.5968 242.071 14.601 242.067 14.601L242.017 14.6513C242.004 14.6639 241.983 14.6723 241.962 14.6765L241.937 14.7268C241.933 14.7352 241.929 14.7352 241.925 14.7435C241.92 14.7477 241.925 14.7519 241.92 14.7519L241.899 14.7729V14.7813C241.899 14.8358 241.853 14.8819 241.799 14.8819H241.79L241.774 14.8986L241.681 15.0412C241.677 15.0454 241.673 15.0454 241.673 15.0496C241.673 15.0496 241.673 15.0538 241.669 15.0579L241.568 15.1586L241.518 15.2089L241.422 15.3053L241.329 15.4478C241.325 15.452 241.321 15.452 241.321 15.4562C241.321 15.4562 241.321 15.4604 241.317 15.4646L241.266 15.5149C241.258 15.5233 241.241 15.5233 241.233 15.5317C241.229 15.5442 241.229 15.5568 241.216 15.5652L240.864 15.9173L240.814 15.9676L240.663 16.1185C240.659 16.1227 240.65 16.1227 240.646 16.1269C240.642 16.1311 240.642 16.1353 240.633 16.1395L240.545 16.1814L240.508 16.2192C240.491 16.2359 240.466 16.2485 240.436 16.2485L240.315 16.4078C240.311 16.412 240.302 16.412 240.298 16.4162C240.29 16.4246 240.29 16.4329 240.281 16.4371L240.197 16.4791L240.16 16.5168C240.143 16.5336 240.118 16.5461 240.088 16.5461H240.08L239.908 16.718C239.904 16.7222 239.896 16.7222 239.891 16.7264C239.887 16.7306 239.887 16.7348 239.879 16.739L239.795 16.7809L239.787 16.7893V16.7977C239.787 16.8522 239.741 16.8983 239.686 16.8983H239.661L239.598 16.9318L239.59 16.9402V16.9486C239.59 17.0031 239.543 17.0492 239.489 17.0492H239.464L239.401 17.0827L239.393 17.0911V17.0995C239.393 17.154 239.346 17.2001 239.292 17.2001H239.267L239.2 17.2336L239.162 17.2714C239.158 17.2756 239.154 17.2756 239.145 17.2756C239.141 17.2797 239.141 17.2839 239.133 17.2881L239.045 17.3301L239.007 17.3678L238.957 17.4181C238.94 17.4349 238.915 17.4474 238.885 17.4474H238.877L238.806 17.5187C238.801 17.5229 238.797 17.5187 238.797 17.5229C238.793 17.5271 238.793 17.5271 238.793 17.5313L238.642 17.6319C238.638 17.6319 238.638 17.6319 238.634 17.6361C238.634 17.6361 238.634 17.6403 238.63 17.6403L238.542 17.6822L238.504 17.7199C238.5 17.7241 238.495 17.7241 238.487 17.7241C238.483 17.7283 238.483 17.7325 238.475 17.7367L238.386 17.7786L238.349 17.8163C238.332 17.8331 238.307 17.8457 238.277 17.8457H238.269L238.198 17.9169C238.181 17.9337 238.156 17.9463 238.127 17.9463H238.118L238.097 17.9672L238.047 18.0176C238.043 18.0217 238.034 18.0217 238.03 18.0259C238.026 18.0301 238.026 18.0343 238.018 18.0385L237.917 18.0888C237.904 18.0972 237.888 18.1014 237.871 18.1014H237.862L237.841 18.1224C237.833 18.1307 237.816 18.1307 237.804 18.1391C237.787 18.1768 237.758 18.2062 237.716 18.2062H237.665H237.657L237.636 18.2272L237.586 18.2775C237.569 18.2942 237.544 18.3068 237.515 18.3068H237.494C237.477 18.3361 237.452 18.3571 237.414 18.3571H237.406L237.385 18.3781C237.38 18.3823 237.372 18.3823 237.368 18.3865C237.364 18.3906 237.364 18.3948 237.355 18.399L237.271 18.441L237.234 18.4787C237.217 18.4954 237.192 18.508 237.162 18.508H237.129L237.016 18.5458L236.982 18.5793C236.965 18.5961 236.94 18.6086 236.911 18.6086H236.902L236.882 18.6296C236.877 18.6338 236.873 18.6338 236.865 18.638C236.861 18.6422 236.861 18.6464 236.852 18.6506L236.752 18.7009H236.747C236.743 18.7051 236.739 18.7092 236.735 18.7134C236.726 18.726 236.718 18.7302 236.705 18.7386C236.697 18.7428 236.697 18.7512 236.689 18.7554L236.55 18.8015L236.412 18.8937C236.395 18.9063 236.374 18.9105 236.358 18.9105H236.299L236.278 18.9314C236.274 18.9356 236.261 18.9356 236.257 18.9398C236.249 18.944 236.249 18.9524 236.24 18.9566L236.089 19.0069C236.072 19.0362 236.047 19.0614 236.005 19.0614H235.955H235.93L235.85 19.0991C235.846 19.0991 235.842 19.0991 235.838 19.1033C235.821 19.1368 235.792 19.162 235.754 19.162H235.733C235.716 19.1913 235.691 19.2123 235.653 19.2123H235.603H235.595L235.574 19.2333C235.557 19.25 235.532 19.2626 235.502 19.2626H235.444L235.423 19.2836C235.406 19.3003 235.381 19.3129 235.351 19.3129H235.301H235.276L235.196 19.3506L234.995 19.4512C234.978 19.4596 234.966 19.4638 234.949 19.4638H234.928C234.911 19.4932 234.886 19.5141 234.848 19.5141H234.811L234.626 19.5602L234.479 19.6105C234.467 19.6147 234.459 19.6147 234.446 19.6147H234.438L234.417 19.6357C234.4 19.6525 234.375 19.665 234.345 19.665H234.32L234.241 19.7028C234.228 19.7111 234.211 19.7153 234.194 19.7153H234.094H234.069L233.989 19.7531C233.976 19.7615 233.96 19.7656 233.943 19.7656H233.934L233.914 19.7866C233.897 19.8034 233.872 19.816 233.842 19.816H233.792H233.733L233.712 19.8369C233.696 19.8537 233.67 19.8663 233.641 19.8663H233.591H233.515L233.436 19.904C233.423 19.9124 233.406 19.9166 233.39 19.9166H233.364L233.285 19.9543C233.281 19.9585 233.276 19.9543 233.268 19.9585C233.264 19.9585 233.264 19.9627 233.264 19.9627L233.063 20.013C233.054 20.013 233.046 20.0172 233.037 20.0172H232.937H232.886H232.861L232.782 20.0549C232.769 20.0633 232.752 20.0675 232.736 20.0675H232.61L232.53 20.1052C232.518 20.1136 232.501 20.1178 232.484 20.1178H232.434H232.409L232.329 20.1555C232.316 20.1639 232.3 20.1681 232.283 20.1681H232.082H232.023L232.002 20.189C231.985 20.2058 231.96 20.2184 231.931 20.2184H231.88H231.78H231.65L231.57 20.2561C231.558 20.2645 231.541 20.2687 231.524 20.2687H231.474H231.402H231.151H231.092L231.071 20.2897C231.055 20.3064 231.029 20.319 231 20.319H230.95H230.044H229.122L232.857 32.8659C232.857 32.8701 232.853 32.8743 232.857 32.8826C232.857 32.8868 232.861 32.891 232.861 32.8952C232.861 32.9036 232.853 32.912 232.853 32.9204C232.849 32.9329 232.849 32.9455 232.84 32.9539C232.832 32.9665 232.824 32.9707 232.811 32.9791C232.803 32.9832 232.798 32.9916 232.79 32.9958C232.782 33 232.769 33 232.761 33H223.555C223.53 33 223.509 32.9874 223.492 32.9749C223.488 32.9707 223.484 32.9623 223.479 32.9581C223.475 32.9497 223.467 32.9455 223.463 32.9329L219.162 20.3232H193.842L187.633 32.9455C187.629 32.9539 187.625 32.9581 187.616 32.9623C187.612 32.9665 187.608 32.9707 187.604 32.9749C187.587 32.9916 187.566 33 187.541 33H179.391C179.375 33 179.362 32.9958 179.345 32.9874C179.341 32.9832 179.341 32.9791 179.333 32.9749C179.32 32.9665 179.316 32.9581 179.308 32.9455C179.299 32.9329 179.295 32.9246 179.295 32.912C179.295 32.9078 179.287 32.9036 179.287 32.8952C179.287 32.8868 179.295 32.8826 179.295 32.8743C179.295 32.8659 179.291 32.8575 179.295 32.8533L189.306 12.681C189.31 12.6769 189.314 12.6769 189.318 12.6685C189.327 12.6559 189.335 12.6517 189.348 12.6433C189.36 12.6349 189.369 12.6307 189.381 12.6307C189.385 12.6307 189.39 12.6224 189.398 12.6224H234.861L237.028 8.09491H191.662C191.645 8.09491 191.632 8.09072 191.616 8.08234C191.611 8.07815 191.611 8.07395 191.603 8.06976C191.59 8.06138 191.586 8.05299 191.578 8.04042C191.569 8.02784 191.565 8.01946 191.565 8.00688C191.565 8.00269 191.557 7.9985 191.557 7.99011C191.557 7.98173 191.565 7.97754 191.565 7.96915C191.565 7.96077 191.561 7.95238 191.565 7.94819L195.489 0.0503272C195.493 0.0461351 195.497 0.0461351 195.502 0.037751C195.51 0.0251748 195.518 0.0209827 195.531 0.0125985C195.543 0.0042144 195.552 2.23285e-05 195.564 2.23285e-05C195.569 2.23285e-05 195.573 -0.00836182 195.581 -0.00836182H239.548H239.648H239.85H239.95H240H240.151C240.156 -0.00836182 240.16 -0.00416974 240.168 2.23285e-05C240.172 2.23285e-05 240.181 -0.00416974 240.185 2.23285e-05L240.319 0.0461351H240.403H240.453H240.503H240.654H240.805C240.83 0.0461351 240.856 0.0545193 240.877 0.0754796L240.898 0.09644H240.906H240.956H241.057H241.107H241.157C241.166 0.09644 241.17 0.104824 241.178 0.104824C241.187 0.104824 241.195 0.104824 241.204 0.104824L241.283 0.142553H241.308H241.359H241.409H241.51C241.547 0.142553 241.572 0.163513 241.589 0.192858H241.66H241.711C241.736 0.192858 241.761 0.201242 241.782 0.222202L241.803 0.243163H241.811H241.962C241.971 0.243163 241.975 0.251547 241.983 0.251547C241.992 0.251547 242 0.247355 242.004 0.251547L242.084 0.289275H242.109C242.113 0.289275 242.113 0.293467 242.117 0.293467C242.143 0.293467 242.168 0.306044 242.184 0.322812L242.205 0.343772H242.214H242.314C242.34 0.343772 242.365 0.352156 242.386 0.373117L242.407 0.394077H242.415H242.516C242.541 0.394077 242.566 0.402461 242.587 0.423422L242.608 0.444382H242.616C242.625 0.444382 242.629 0.452766 242.637 0.452766C242.646 0.452766 242.654 0.448574 242.658 0.452766L242.738 0.490495H242.763C242.788 0.490495 242.813 0.498879 242.834 0.519839L242.855 0.5408H242.864H242.914C242.939 0.5408 242.964 0.549184 242.985 0.570144L243.006 0.591105H243.015H243.065C243.073 0.591105 243.077 0.599489 243.086 0.599489C243.103 0.603681 243.124 0.607873 243.136 0.620449L243.157 0.641409H243.165C243.191 0.641409 243.216 0.649794 243.237 0.670754L243.258 0.691714H243.266H243.316C243.354 0.691714 243.379 0.712675 243.396 0.742019H243.417C243.43 0.742019 243.434 0.750403 243.446 0.754595C243.455 0.758787 243.467 0.754595 243.476 0.758787L243.601 0.842629H243.622C243.648 0.842629 243.673 0.851013 243.694 0.871973L243.727 0.90551L243.857 0.947431C243.861 0.947431 243.861 0.951623 243.861 0.951623C243.866 0.951623 243.866 0.951623 243.87 0.951623L243.97 1.00193C243.975 1.00612 243.979 1.01031 243.983 1.0145C243.987 1.0187 243.995 1.0187 244 1.02289L244.021 1.04385H244.029C244.071 1.04385 244.1 1.07319 244.117 1.11092C244.13 1.11511 244.142 1.11511 244.151 1.12769L244.172 1.14865H244.18C244.184 1.14865 244.184 1.15284 244.188 1.15284C244.213 1.15284 244.239 1.16542 244.255 1.18219L244.306 1.23249L244.322 1.25764H244.331C244.339 1.25764 244.343 1.26603 244.352 1.26603C244.369 1.27022 244.39 1.27441 244.402 1.28699L244.452 1.33729L244.503 1.3876L244.553 1.4379L244.574 1.45886H244.582C244.608 1.45886 244.633 1.46725 244.654 1.48821L244.704 1.53851L244.805 1.63912L244.826 1.66008H244.834C244.859 1.66008 244.884 1.66847 244.905 1.68943L245.006 1.79004C245.01 1.79423 245.01 1.80261 245.014 1.80681C245.018 1.811 245.023 1.811 245.027 1.81938L245.052 1.86969C245.085 1.87388 245.111 1.89903 245.123 1.92838C245.136 1.93257 245.148 1.93257 245.157 1.94514L245.207 1.99545L245.257 2.04575C245.274 2.06252 245.287 2.08767 245.287 2.11702C245.341 2.11702 245.387 2.16313 245.387 2.21763V2.22182L245.408 2.24278L245.459 2.29309L245.509 2.34339C245.526 2.36016 245.538 2.38531 245.538 2.41466V2.42304L245.559 2.444C245.563 2.44819 245.563 2.45658 245.567 2.46077C245.572 2.46496 245.576 2.46496 245.58 2.47335L245.63 2.57395L245.656 2.62426C245.702 2.63264 245.739 2.67037 245.739 2.71649V2.74164L245.777 2.82129C245.777 2.82548 245.777 2.82967 245.777 2.83386C245.811 2.85063 245.836 2.87998 245.836 2.91771V2.93867C245.865 2.95543 245.886 2.98059 245.886 3.01831V3.06862V3.077L245.907 3.09796C245.915 3.10635 245.915 3.12312 245.924 3.1315C245.962 3.14827 245.991 3.17761 245.991 3.21953V3.26984V3.2908C246.02 3.30757 246.041 3.33272 246.041 3.37045V3.42075V3.47106V3.47944L246.062 3.5004C246.079 3.51717 246.091 3.54232 246.091 3.57167V3.62197V3.63036L246.112 3.65132C246.129 3.66809 246.142 3.69324 246.142 3.72258V3.83158L246.163 3.85254C246.18 3.86931 246.192 3.89446 246.192 3.9238V3.97411V4.02441V4.09987L246.23 4.17952C246.234 4.1879 246.23 4.19629 246.23 4.20467C246.23 4.21306 246.238 4.21725 246.238 4.22563V4.27594V4.32624V4.37235L246.289 4.7161V4.7203Z" fill="white"/>
<path d="M124.253 4.24655V4.22559V4.12498C124.253 4.11659 124.245 4.1124 124.245 4.10402C124.245 4.09563 124.249 4.08725 124.245 4.07886L124.207 3.99922V3.97406V3.92376V3.87345C124.207 3.86926 124.203 3.86507 124.199 3.85668C124.199 3.85249 124.203 3.8483 124.199 3.83992L124.153 3.70577V3.67223V3.62193C124.153 3.59258 124.14 3.56743 124.123 3.55066L124.102 3.5297V3.52132V3.47101C124.102 3.44167 124.09 3.41652 124.073 3.39975L124.052 3.37879V3.3704V3.3201C124.052 3.29076 124.039 3.2656 124.023 3.24883L124.002 3.22787V3.21949V3.16918C124.002 3.13146 123.981 3.1063 123.951 3.08954V3.06858C123.951 3.02665 123.926 3.0015 123.893 2.98473C123.893 2.98054 123.893 2.97635 123.893 2.97216L123.855 2.89251V2.86736C123.855 2.85897 123.847 2.85478 123.847 2.8464C123.847 2.83801 123.851 2.82963 123.847 2.82124L123.796 2.72063C123.792 2.71644 123.788 2.71644 123.784 2.70806C123.775 2.69548 123.767 2.69129 123.754 2.6829C123.746 2.67871 123.746 2.67033 123.738 2.67033C123.733 2.66194 123.733 2.64937 123.725 2.64518L123.704 2.62422V2.61583C123.704 2.58649 123.691 2.56133 123.675 2.54457L123.654 2.52361V2.51522C123.654 2.4733 123.624 2.44396 123.587 2.42719C123.582 2.41461 123.582 2.40204 123.57 2.39365L123.549 2.37269V2.36431C123.549 2.32239 123.52 2.29304 123.482 2.27627C123.473 2.25112 123.457 2.23435 123.431 2.22597C123.423 2.20082 123.406 2.18405 123.381 2.17566C123.373 2.1547 123.364 2.14213 123.348 2.12955V2.11278C123.348 2.05829 123.302 2.01217 123.247 2.01217H123.239L123.218 1.99121L123.197 1.97025V1.96187C123.197 1.91156 123.159 1.87383 123.113 1.86545L123.088 1.81515C123.084 1.80676 123.071 1.80257 123.063 1.79419C123.054 1.7858 123.05 1.77322 123.042 1.76903L122.991 1.74388C122.983 1.69777 122.945 1.66004 122.895 1.66004H122.887L122.866 1.63908L122.765 1.53847L122.715 1.48816C122.694 1.4672 122.669 1.45882 122.643 1.45882H122.635L122.614 1.43786L122.564 1.38755C122.555 1.37917 122.547 1.38336 122.539 1.37498C122.534 1.36659 122.526 1.3624 122.522 1.35821C122.513 1.34563 122.509 1.33725 122.497 1.32886C122.492 1.32467 122.492 1.32048 122.484 1.31629L122.4 1.27437L122.363 1.23664C122.342 1.21568 122.316 1.20729 122.291 1.20729H122.27C122.266 1.19891 122.266 1.19053 122.262 1.18633L122.212 1.13603C122.191 1.11507 122.165 1.10669 122.14 1.10669H122.119C122.103 1.07734 122.077 1.05638 122.04 1.05638H122.031L122.01 1.03542C122.006 1.03123 122.002 1.03123 121.994 1.02704C121.989 1.02704 121.989 1.01865 121.981 1.01865L121.88 0.968347L121.78 0.918042C121.776 0.918042 121.771 0.918042 121.767 0.918042C121.75 0.884505 121.721 0.859353 121.683 0.859353H121.625L121.553 0.788087C121.541 0.775511 121.524 0.771319 121.503 0.767127C121.495 0.767127 121.491 0.758743 121.482 0.758743H121.461C121.444 0.729398 121.419 0.708438 121.382 0.708438H121.331H121.306L121.243 0.674901L121.206 0.637173C121.185 0.616212 121.159 0.607828 121.134 0.607828H121.063C121.046 0.578484 121.021 0.557523 120.983 0.557523H120.933H120.925L120.904 0.536563C120.883 0.515603 120.858 0.507219 120.832 0.507219H120.807L120.728 0.46949C120.719 0.465298 120.711 0.46949 120.707 0.46949C120.698 0.46949 120.694 0.461106 120.686 0.461106H120.635H120.627L120.606 0.440145C120.602 0.435953 120.589 0.435953 120.585 0.431761C120.577 0.427569 120.577 0.419185 120.568 0.414993L120.417 0.364688C120.413 0.364688 120.405 0.364688 120.401 0.364688C120.396 0.364688 120.392 0.356304 120.384 0.356304H120.313C120.296 0.326959 120.271 0.305999 120.233 0.305999H120.183H120.099L119.965 0.259886C119.96 0.259886 119.952 0.259886 119.948 0.259886C119.944 0.259886 119.939 0.251502 119.931 0.251502H119.872L119.851 0.230542C119.831 0.209581 119.805 0.201197 119.78 0.201197H119.73H119.629H119.621L119.6 0.180237C119.587 0.167661 119.566 0.163469 119.55 0.159276C119.541 0.159276 119.537 0.150892 119.529 0.150892H119.428H119.378H119.353L119.273 0.113164C119.265 0.108972 119.256 0.113164 119.248 0.113164C119.239 0.113164 119.235 0.104779 119.227 0.104779H119.177H119.126H118.975H118.95L118.871 0.0670508C118.862 0.0628588 118.854 0.0670508 118.85 0.0670508C118.841 0.0670508 118.837 0.0586667 118.829 0.0586667H118.728H118.527H118.476H118.388L118.2 0.0125539C118.196 0.0125539 118.191 0.016746 118.187 0.0125539C118.183 0.0125539 118.179 0.00836182 118.175 0.00836182H118.074H118.024H117.973H117.923H117.722H117.621H73.6464C73.6422 0.00836182 73.6381 0.0125539 73.6297 0.016746C73.6171 0.020938 73.6087 0.0251301 73.5961 0.0293222C73.5836 0.0377063 73.5752 0.0418984 73.5668 0.0544746C73.5626 0.0586667 73.5584 0.0586667 73.5542 0.0670508L69.6304 7.96492C69.6262 7.9733 69.6304 7.98168 69.6304 7.98588C69.6304 7.99426 69.622 7.99845 69.622 8.00684C69.622 8.01103 69.6262 8.01522 69.6304 8.02361C69.6346 8.03618 69.6388 8.04457 69.643 8.05714C69.6514 8.06972 69.6556 8.0781 69.6682 8.08649C69.6724 8.09068 69.6723 8.09487 69.6807 8.09906C69.6933 8.10745 69.7101 8.11164 69.7268 8.11164H115.093L112.926 12.6391H67.4086C67.4044 12.6391 67.4002 12.6433 67.3919 12.6433C67.3793 12.6475 67.3667 12.6517 67.3583 12.6558C67.3457 12.6642 67.3374 12.6684 67.329 12.681C67.3248 12.6852 67.3206 12.6852 67.3164 12.6936L57.356 32.8658C57.3519 32.8742 57.356 32.8826 57.356 32.891C57.356 32.8994 57.3477 32.9036 57.3477 32.9119C57.3477 32.9161 57.3519 32.9203 57.356 32.9287C57.3602 32.9413 57.3644 32.9497 57.3686 32.9622C57.377 32.9748 57.3812 32.9832 57.3938 32.9916C57.398 32.9958 57.398 33 57.4063 33.0042C57.4189 33.0126 57.4357 33.0167 57.4525 33.0167H65.5515C65.5767 33.0167 65.5977 33.0042 65.6144 32.9916C65.6186 32.9874 65.6228 32.9832 65.627 32.979C65.6312 32.9748 65.6396 32.9706 65.6396 32.9622L71.8983 20.3399H108.055H109.011C109.028 20.3399 109.04 20.3357 109.057 20.3273L109.137 20.2896H109.212H109.464H109.514C109.531 20.2896 109.543 20.2854 109.56 20.277L109.64 20.2393H109.816H109.916H109.967C109.992 20.2393 110.017 20.2309 110.038 20.21L110.059 20.189H110.117H110.268C110.285 20.189 110.298 20.1848 110.314 20.1764L110.394 20.1387H110.419H110.47C110.486 20.1387 110.499 20.1345 110.516 20.1261L110.595 20.0884H110.771C110.788 20.0884 110.801 20.0842 110.818 20.0758L110.897 20.0381H110.922H111.023C111.04 20.0381 111.052 20.0339 111.069 20.0255L111.149 19.9878H111.174H111.224C111.241 19.9878 111.254 19.9836 111.27 19.9752L111.35 19.9375H111.375H111.476C111.492 19.9375 111.505 19.9333 111.522 19.9249L111.601 19.8872H111.627H111.677C111.702 19.8872 111.727 19.8788 111.748 19.8578L111.769 19.8369H111.778H111.828H111.878C111.916 19.8369 111.941 19.8159 111.958 19.7866H111.979H112.029C112.054 19.7866 112.079 19.7782 112.1 19.7572L112.121 19.7363H112.13H112.18C112.197 19.7363 112.209 19.7321 112.226 19.7237L112.306 19.686H112.331H112.381C112.406 19.686 112.431 19.6776 112.452 19.6566L112.486 19.6231L112.599 19.5853H112.633H112.683C112.7 19.5853 112.712 19.5812 112.729 19.5728L112.809 19.535H112.834C112.872 19.535 112.897 19.5141 112.914 19.4847H112.935C112.951 19.4847 112.964 19.4805 112.981 19.4722L113.06 19.4344H113.085C113.115 19.4344 113.14 19.4219 113.157 19.4051L113.19 19.3715L113.303 19.3338H113.337H113.387C113.404 19.3338 113.417 19.3296 113.433 19.3212L113.513 19.2835H113.538C113.576 19.2835 113.601 19.2626 113.618 19.2332H113.639C113.677 19.2332 113.702 19.2122 113.718 19.1829H113.739H113.79C113.815 19.1829 113.84 19.1745 113.861 19.1536L113.882 19.1326H113.89C113.92 19.1326 113.945 19.12 113.962 19.1033L113.983 19.0823H113.991C114.016 19.0823 114.041 19.0739 114.062 19.0529L114.1 19.0152L114.163 18.9817H114.188H114.238C114.276 18.9817 114.301 18.9565 114.322 18.9272L114.473 18.8769C114.481 18.8727 114.486 18.8643 114.49 18.8601C114.498 18.8559 114.507 18.8559 114.511 18.8517L114.532 18.8308H114.54C114.557 18.8308 114.569 18.8266 114.586 18.8182L114.666 18.7805H114.691C114.733 18.7805 114.762 18.7511 114.779 18.7134C114.792 18.7092 114.804 18.7092 114.813 18.7008L114.846 18.6673L114.976 18.6254C114.98 18.6254 114.98 18.6212 114.984 18.617C114.989 18.6128 114.997 18.617 115.001 18.6128L115.127 18.5289H115.148C115.177 18.5289 115.202 18.5164 115.219 18.4996L115.24 18.4786H115.249C115.265 18.4786 115.278 18.4744 115.295 18.4661L115.395 18.4158C115.399 18.4116 115.399 18.4074 115.408 18.4032C115.42 18.3948 115.425 18.3864 115.433 18.378H115.454C115.496 18.378 115.525 18.3487 115.538 18.311C115.55 18.3068 115.563 18.3068 115.576 18.2942L115.597 18.2732H115.605C115.63 18.2732 115.655 18.2648 115.676 18.2439L115.697 18.2229H115.701C115.726 18.2229 115.752 18.2145 115.773 18.1936L115.794 18.1726H115.802C115.84 18.1726 115.865 18.1517 115.882 18.1223H115.903C115.928 18.1223 115.953 18.1139 115.974 18.093L116.024 18.0427L116.045 18.0217H116.053C116.095 18.0217 116.125 17.9924 116.137 17.9546C116.15 17.9504 116.162 17.9504 116.175 17.9379L116.246 17.8666H116.255C116.28 17.8666 116.305 17.8582 116.326 17.8372L116.359 17.8037L116.489 17.7618C116.498 17.7576 116.502 17.7492 116.506 17.745C116.519 17.7366 116.527 17.7324 116.536 17.7199C116.54 17.7115 116.544 17.7073 116.548 17.6989C116.556 17.6947 116.569 17.6947 116.577 17.6863L116.624 17.6402L116.766 17.5438L116.892 17.46H116.913C116.963 17.46 117.001 17.4222 117.009 17.3761L117.06 17.351C117.064 17.3468 117.068 17.3426 117.072 17.3384C117.076 17.3342 117.085 17.3384 117.089 17.33L117.11 17.309H117.118C117.148 17.309 117.173 17.2965 117.189 17.2797L117.227 17.242L117.315 17.2001C117.319 17.1959 117.319 17.1917 117.328 17.1875C117.34 17.1791 117.345 17.1707 117.353 17.1581C117.357 17.1497 117.366 17.1497 117.37 17.1414C117.378 17.1372 117.391 17.1372 117.395 17.1288L117.433 17.0911L117.521 17.0491C117.525 17.0449 117.525 17.0408 117.533 17.0366C117.546 17.0282 117.55 17.0198 117.558 17.0072C117.563 16.9988 117.571 16.9988 117.575 16.9904C117.584 16.9863 117.592 16.9863 117.6 16.9779L117.638 16.9401L117.726 16.8982C117.73 16.894 117.73 16.8898 117.739 16.8856C117.751 16.8773 117.755 16.8689 117.764 16.8563C117.768 16.8479 117.776 16.8479 117.781 16.8395C117.789 16.8353 117.802 16.8353 117.806 16.827L117.843 16.7892L117.931 16.7473C117.936 16.7431 117.936 16.7389 117.944 16.7347C117.948 16.7305 117.957 16.7305 117.961 16.7263L118.162 16.5251L118.2 16.4874L118.288 16.4455C118.292 16.4413 118.292 16.4371 118.3 16.4329C118.305 16.4287 118.313 16.4287 118.317 16.4245L118.489 16.2526H118.497C118.527 16.2526 118.552 16.2401 118.569 16.2233L118.619 16.173L118.669 16.1227L118.82 15.9718L118.871 15.9215L119.575 15.2172C119.583 15.2088 119.583 15.1921 119.592 15.1837C119.596 15.1711 119.608 15.1627 119.608 15.1501V15.1334L119.617 15.125L119.701 15.0831C119.709 15.0789 119.713 15.0705 119.717 15.0621C119.722 15.0579 119.73 15.0579 119.734 15.0537L119.881 14.8609L119.927 14.8148L119.977 14.7645C119.981 14.7603 119.977 14.7561 119.981 14.7519C119.986 14.7477 119.994 14.7435 119.994 14.7351L120.036 14.6513L120.074 14.6135C120.078 14.6094 120.074 14.6052 120.078 14.6052C120.082 14.601 120.09 14.5968 120.09 14.5884L120.116 14.5381C120.162 14.5297 120.199 14.492 120.199 14.4417V14.4333L120.22 14.4123C120.22 14.4123 120.22 14.4081 120.225 14.4039C120.229 14.3997 120.233 14.3997 120.233 14.3956L120.334 14.2446L120.43 14.1021L120.472 14.0602L120.522 14.0099C120.522 14.0099 120.522 14.0057 120.526 14.0057C120.531 14.0015 120.535 14.0015 120.535 13.9973L120.635 13.8464V13.8422C120.635 13.838 120.64 13.838 120.64 13.838L120.69 13.7374C120.694 13.729 120.69 13.7206 120.69 13.7122C120.69 13.7039 120.698 13.6997 120.698 13.6913V13.6829L120.719 13.6619C120.723 13.6578 120.719 13.6536 120.723 13.6536C120.728 13.6494 120.736 13.6452 120.74 13.6368L120.79 13.5362L120.937 13.293L121.138 12.9409V12.9367C121.138 12.9367 121.143 12.9367 121.143 12.9325L123.406 8.20386L123.649 7.71758L123.687 7.67986C123.708 7.6589 123.717 7.63374 123.717 7.60859V7.53732L123.8 7.41156C123.805 7.40737 123.8 7.40318 123.805 7.39899C123.809 7.39479 123.813 7.3906 123.813 7.38641L123.863 7.2355C123.863 7.2313 123.863 7.22292 123.863 7.21873C123.863 7.21453 123.872 7.21034 123.872 7.20196V7.16842L123.909 7.08877C123.909 7.08458 123.909 7.08039 123.909 7.08039C123.909 7.0762 123.914 7.0762 123.918 7.07201L123.964 6.88336L124.01 6.79114C124.014 6.78275 124.01 6.77437 124.01 6.76598C124.01 6.7576 124.018 6.75341 124.018 6.74502V6.73664L124.039 6.71568C124.06 6.69472 124.069 6.66957 124.069 6.64441V6.62345C124.098 6.60668 124.119 6.58153 124.119 6.5438V6.4935V6.44319V6.42223C124.148 6.40547 124.169 6.38031 124.169 6.34258V6.28809V6.23778V6.17909L124.19 6.15813C124.207 6.14136 124.22 6.11621 124.22 6.08687V6.03656V5.9653C124.249 5.94853 124.27 5.92338 124.27 5.88565V5.83534V5.78504V5.697L124.316 5.50836C124.316 5.50417 124.312 5.49998 124.316 5.49579C124.316 5.49159 124.32 5.4874 124.32 5.48321V5.4329V5.33229V5.18138V5.08077V5.03047V4.92986V4.77894V4.67833V4.3765V4.3262C124.303 4.28847 124.278 4.26332 124.253 4.24655Z" fill="white"/>
</g>
<defs>
<clipPath id="clip0_147_6584">
<rect width="246.293" height="33" fill="white"/>
</clipPath>
</defs>
</svg>
