<svg width="192" height="22" viewBox="0 0 192 22" fill="none" xmlns="http://www.w3.org/2000/svg">
<g clip-path="url(#clip0_147_6600)">
<path d="M38.4434 0.0582478C38.4434 0.0558208 38.441 0.0533938 38.4386 0.0485398C38.4361 0.0412588 38.4337 0.0364048 38.4313 0.0291239C38.4264 0.0218429 38.424 0.0169889 38.4167 0.0121349C38.4143 0.00970796 38.4143 0.00728097 38.4094 0.00485398C38.4046 0.00242699 38.3997 0.00485398 38.3973 0.00485398C38.3924 0.00485398 38.39 0 38.3852 0H33.638C33.6355 0 33.6331 0.00242699 33.6283 0.00485398C33.621 0.00728097 33.6161 0.00970796 33.6088 0.0121349C33.6016 0.0169889 33.5967 0.0194159 33.5919 0.0266969C33.5894 0.0291239 33.587 0.0291239 33.5846 0.0339779L24.2358 19.0203C24.2334 19.0252 24.2358 19.03 24.2358 19.0349C24.2358 19.0397 24.231 19.0422 24.231 19.047C24.231 19.0494 24.2334 19.0519 24.2358 19.0567C24.2382 19.064 24.2407 19.0689 24.2431 19.0761C24.2479 19.0834 24.2504 19.0883 24.2577 19.0931C24.2601 19.0956 24.2601 19.098 24.2649 19.1004C24.2722 19.1053 24.2819 19.1077 24.2916 19.1077H29.0097C29.0243 19.1077 29.0364 19.1004 29.0461 19.0931C29.0485 19.0907 29.051 19.0883 29.0534 19.0858C29.0558 19.0834 29.0607 19.081 29.0631 19.0761L38.441 0.0873716C38.4434 0.0825177 38.441 0.0776637 38.441 0.0728097C38.4386 0.0655287 38.4434 0.0631017 38.4434 0.0582478Z" fill="white"/>
<path d="M109.069 0.0582478C109.069 0.0558208 109.066 0.0533938 109.064 0.0485398C109.062 0.0412588 109.059 0.0364048 109.057 0.0291239C109.052 0.0218429 109.049 0.0169889 109.042 0.0121349C109.04 0.00970796 109.04 0.00728097 109.035 0.00485398C109.03 0.00242699 109.025 0.00485398 109.023 0.00485398C109.018 0.00485398 109.015 0 109.011 0H77.848C77.8432 0 77.8407 0.00242699 77.8383 0.00485398C77.831 0.00728097 77.8262 0.00970796 77.8189 0.0121349C77.8116 0.0169889 77.8068 0.0194159 77.8019 0.0266969C77.7995 0.0291239 77.797 0.0291239 77.7946 0.0339779L75.6103 4.60643C75.6079 4.61128 75.6103 4.61613 75.6103 4.61856C75.6103 4.62342 75.6055 4.62584 75.6055 4.6307C75.6055 4.63555 75.6079 4.63555 75.6103 4.6404C75.6128 4.64769 75.6152 4.65254 75.6176 4.65982C75.6225 4.6671 75.6249 4.67196 75.6322 4.67681C75.6346 4.67924 75.6346 4.68166 75.6395 4.68409C75.6467 4.68894 75.6564 4.68894 75.6637 4.68894H106.739C106.753 4.68894 106.766 4.68166 106.775 4.67438C106.778 4.67196 106.78 4.66953 106.783 4.6671C106.785 4.66467 106.79 4.66225 106.79 4.65739L109.062 0.0849446C109.064 0.0800907 109.062 0.0752367 109.062 0.0728097C109.064 0.0655287 109.069 0.0631017 109.069 0.0582478Z" fill="white"/>
<path d="M29.9952 0.0606892C29.9952 0.0509812 29.9903 0.0461272 29.9879 0.0388463C29.9854 0.0315653 29.9854 0.0242843 29.9806 0.0194303H29.9782C29.9733 0.0145764 29.9636 0.0121494 29.9563 0.00972238C29.949 0.00729539 29.9442 0.00244141 29.9369 0.00244141H29.9345H24.5757C24.5684 0.00244141 24.5635 0.00729539 24.5587 0.00972238C24.5514 0.0121494 24.5441 0.0121494 24.5393 0.0170033L7.25911 14.5425L7.19116 14.2028L4.42439 0.279118C4.42439 0.274264 4.41953 0.271837 4.41711 0.266983C4.41468 0.262129 4.41711 0.257275 4.41225 0.252421C4.40983 0.249994 4.4074 0.249994 4.40497 0.247567C4.40012 0.24514 4.39284 0.242713 4.38556 0.240286C4.37827 0.237859 4.37099 0.235432 4.36371 0.235432C4.36129 0.235432 4.35886 0.233005 4.35643 0.233005C4.35158 0.233005 4.34915 0.237859 4.3443 0.240286C4.33944 0.242713 4.33459 0.240286 4.32974 0.24514L0.0194015 3.88563C0.0169745 3.88805 0.0169745 3.89048 0.0145475 3.89291C0.00969354 3.89776 0.00726655 3.90504 0.00483956 3.91232C0.00241257 3.9196 -1.44166e-05 3.92688 -1.44166e-05 3.93416C-1.44166e-05 3.93659 -0.00244141 3.93902 -0.00244141 3.94145L2.88082 19.0567C2.88325 19.064 2.8881 19.0689 2.89296 19.0762C2.89538 19.081 2.89538 19.0859 2.90024 19.0883C2.90995 19.098 2.92451 19.1053 2.93907 19.1053H7.59889C7.61345 19.1053 7.62559 19.1004 7.63772 19.0907L29.9757 0.101948V0.099521C29.9806 0.094667 29.983 0.087386 29.9854 0.0776781C29.9903 0.0728241 29.9952 0.0679701 29.9952 0.0606892Z" fill="white"/>
<path d="M105.457 7.36837C105.457 7.36594 105.455 7.36351 105.452 7.35866C105.45 7.35138 105.448 7.34652 105.445 7.33924C105.44 7.33196 105.438 7.32711 105.431 7.32225C105.428 7.31983 105.428 7.3174 105.423 7.31497C105.418 7.31255 105.414 7.31497 105.411 7.31497C105.406 7.31497 105.404 7.31012 105.399 7.31012H74.3238C74.3214 7.31012 74.319 7.31255 74.3141 7.31497C74.3068 7.3174 74.302 7.31983 74.2947 7.32225C74.2874 7.32711 74.2825 7.32954 74.2777 7.33682C74.2753 7.33924 74.2728 7.33924 74.2704 7.3441L68.5039 19.0228C68.5015 19.0276 68.5039 19.0325 68.5039 19.0373C68.5039 19.0422 68.499 19.0446 68.499 19.0495C68.499 19.0519 68.5015 19.0543 68.5039 19.0592C68.5063 19.0665 68.5087 19.0713 68.5112 19.0786C68.516 19.0859 68.5184 19.0907 68.5257 19.0956C68.5282 19.098 68.5282 19.1004 68.533 19.1029C68.5403 19.1077 68.55 19.1101 68.5597 19.1101H99.6349C99.6494 19.1101 99.6616 19.1029 99.6713 19.0956C99.6737 19.0932 99.6761 19.0907 99.6786 19.0883C99.681 19.0859 99.6858 19.0834 99.6858 19.0786L101.958 14.477C101.96 14.4722 101.958 14.4673 101.958 14.4649C101.958 14.46 101.962 14.4576 101.962 14.4527C101.962 14.4503 101.96 14.4479 101.958 14.443C101.955 14.4358 101.953 14.4309 101.95 14.4236C101.945 14.4163 101.943 14.4115 101.936 14.4066C101.933 14.4042 101.933 14.4018 101.928 14.3994C101.924 14.3969 101.919 14.3994 101.916 14.3994C101.911 14.3994 101.909 14.3945 101.904 14.3945H75.6101L76.9207 11.7734H103.244C103.258 11.7734 103.271 11.7661 103.28 11.7588C103.283 11.7564 103.285 11.7539 103.287 11.7515C103.29 11.7491 103.295 11.7467 103.295 11.7418L105.45 7.40235C105.452 7.39749 105.45 7.39264 105.45 7.39021C105.452 7.37565 105.457 7.37322 105.457 7.36837Z" fill="white"/>
<path d="M142.588 2.73282C142.588 2.73525 142.59 2.73525 142.59 2.73768V2.79592V2.8833V2.91242V2.94154V2.99979C142.59 3.00222 142.588 3.00465 142.586 3.0095C142.586 3.01193 142.588 3.01678 142.586 3.01921L142.559 3.09687V3.14541V3.17453V3.29103C142.559 3.29588 142.554 3.29831 142.554 3.30316C142.554 3.30802 142.556 3.31287 142.554 3.31773L142.532 3.36384V3.3784V3.40753V3.43665C142.532 3.4415 142.527 3.44393 142.527 3.44878C142.527 3.45364 142.53 3.45849 142.527 3.46092L142.505 3.50703V3.52159V3.55072V3.60897C142.505 3.62353 142.501 3.63809 142.488 3.65022L142.476 3.66236V3.66721C142.476 3.67207 142.471 3.67449 142.471 3.67935C142.471 3.6842 142.474 3.68906 142.471 3.69391L142.45 3.74002V3.75459V3.78371C142.45 3.78856 142.445 3.79099 142.445 3.79584C142.445 3.8007 142.447 3.80555 142.445 3.81041L142.423 3.85652V3.87108V3.9002C142.423 3.90506 142.418 3.90749 142.418 3.91234C142.418 3.91719 142.42 3.92205 142.418 3.9269L142.391 3.98029L142.365 4.08951C142.365 4.09194 142.362 4.09194 142.36 4.09436C142.36 4.09679 142.36 4.09922 142.36 4.09922L142.331 4.15746C142.328 4.16232 142.326 4.16232 142.323 4.16717C142.321 4.1696 142.323 4.17203 142.321 4.17203L142.302 4.19144L142.277 4.26668L142.248 4.35405C142.248 4.35648 142.246 4.35648 142.246 4.35891C142.246 4.36133 142.246 4.36133 142.246 4.36376L142.224 4.40987V4.42443C142.224 4.45113 142.204 4.47055 142.178 4.47783L142.073 4.73752C142.073 4.73752 142.073 4.73752 142.071 4.73994V4.74237L140.731 7.48001L140.702 7.53826C140.702 7.54069 140.7 7.54069 140.7 7.54069V7.54312L140.644 7.62563L140.622 7.66932V7.68388C140.622 7.68874 140.617 7.69116 140.617 7.69602C140.617 7.70087 140.62 7.70572 140.617 7.71058L140.588 7.76883C140.588 7.77125 140.586 7.77125 140.586 7.77125V7.77368L140.53 7.85862L140.503 7.91445C140.501 7.9193 140.498 7.9193 140.496 7.92415C140.493 7.92658 140.496 7.92901 140.493 7.92901L140.467 7.9557L140.416 8.03337L140.387 8.08919C140.384 8.09404 140.382 8.09404 140.379 8.0989C140.377 8.10132 140.379 8.10375 140.377 8.10375L140.365 8.11588V8.12074C140.365 8.14501 140.348 8.162 140.328 8.16928C140.326 8.17656 140.326 8.18384 140.319 8.19112L140.29 8.22025L140.277 8.23238V8.23723L140.275 8.23966C140.275 8.25422 140.268 8.26879 140.258 8.27849L140.217 8.31975V8.32461C140.217 8.34888 140.202 8.36344 140.183 8.37315C140.183 8.37557 140.183 8.378 140.183 8.38043L140.154 8.43867C140.151 8.44353 140.149 8.44353 140.146 8.44838C140.144 8.45081 140.146 8.45324 140.144 8.45324L140.115 8.48236C140.108 8.48964 140.095 8.4945 140.083 8.49692L140.069 8.52605C140.066 8.5309 140.064 8.5309 140.061 8.53575C140.059 8.53818 140.061 8.54061 140.059 8.54061L140.047 8.55274V8.5576C140.047 8.58915 140.02 8.61584 139.989 8.61584H139.984L139.974 8.62555L139.921 8.70807C139.918 8.7105 139.916 8.7105 139.916 8.71292C139.916 8.71292 139.916 8.71535 139.913 8.71778L139.855 8.77603L139.826 8.80515L139.77 8.86097L139.717 8.94349C139.714 8.94592 139.712 8.94592 139.712 8.94834C139.712 8.94834 139.712 8.95077 139.71 8.9532L139.68 8.98232C139.676 8.98717 139.666 8.98717 139.661 8.99203C139.659 8.99931 139.659 9.00659 139.651 9.01145L139.447 9.21531L139.418 9.24444L139.331 9.33181C139.329 9.33423 139.324 9.33423 139.321 9.33666C139.319 9.33909 139.319 9.34151 139.314 9.34394L139.263 9.36821L139.241 9.39005C139.231 9.39976 139.217 9.40704 139.2 9.40704L139.129 9.49927C139.127 9.5017 139.122 9.5017 139.12 9.50412C139.115 9.50898 139.115 9.51383 139.11 9.51626L139.062 9.54053L139.04 9.56237C139.03 9.57208 139.015 9.57936 138.998 9.57936H138.994L138.894 9.67887C138.892 9.68129 138.887 9.68129 138.884 9.68372C138.882 9.68615 138.882 9.68857 138.877 9.691L138.829 9.71527L138.824 9.72013V9.72498C138.824 9.75653 138.797 9.78323 138.765 9.78323H138.751L138.714 9.80264L138.71 9.8075V9.81235C138.71 9.8439 138.683 9.8706 138.651 9.8706H138.637L138.6 9.89001L138.596 9.89487V9.89972C138.596 9.93127 138.569 9.95797 138.537 9.95797H138.523L138.484 9.97739L138.462 9.99923C138.46 10.0017 138.457 10.0017 138.452 10.0017C138.45 10.0041 138.45 10.0065 138.445 10.0089L138.394 10.0332L138.372 10.055L138.343 10.0842C138.333 10.0939 138.319 10.1012 138.302 10.1012H138.297L138.256 10.1424C138.253 10.1448 138.251 10.1424 138.251 10.1448C138.248 10.1473 138.248 10.1473 138.248 10.1497L138.161 10.208C138.159 10.208 138.159 10.208 138.156 10.2104C138.156 10.2104 138.156 10.2128 138.154 10.2128L138.103 10.2371L138.081 10.2589C138.079 10.2613 138.076 10.2613 138.071 10.2613C138.069 10.2638 138.069 10.2662 138.064 10.2686L138.013 10.2929L137.991 10.3147C137.982 10.3244 137.967 10.3317 137.95 10.3317H137.945L137.904 10.373C137.894 10.3827 137.88 10.39 137.863 10.39H137.858L137.846 10.4021L137.816 10.4312C137.814 10.4337 137.809 10.4337 137.807 10.4361C137.804 10.4385 137.804 10.4409 137.799 10.4434L137.741 10.4725C137.734 10.4773 137.724 10.4798 137.715 10.4798H137.71L137.698 10.4919C137.693 10.4968 137.683 10.4968 137.676 10.5016C137.666 10.5235 137.649 10.5404 137.625 10.5404H137.596H137.591L137.579 10.5526L137.55 10.5817C137.54 10.5914 137.525 10.5987 137.508 10.5987H137.496C137.486 10.6157 137.472 10.6278 137.45 10.6278H137.445L137.433 10.64C137.431 10.6424 137.426 10.6424 137.423 10.6448C137.421 10.6472 137.421 10.6497 137.416 10.6521L137.367 10.6764L137.346 10.6982C137.336 10.7079 137.321 10.7152 137.304 10.7152H137.285L137.219 10.737L137.2 10.7564C137.19 10.7662 137.176 10.7734 137.159 10.7734H137.154L137.142 10.7856C137.139 10.788 137.137 10.788 137.132 10.7904C137.13 10.7929 137.13 10.7953 137.125 10.7977L137.067 10.8268H137.064C137.062 10.8293 137.059 10.8317 137.057 10.8341C137.052 10.8414 137.047 10.8438 137.04 10.8487C137.035 10.8511 137.035 10.856 137.03 10.8584L136.95 10.8851L136.87 10.9385C136.86 10.9458 136.848 10.9482 136.838 10.9482H136.804L136.792 10.9603C136.79 10.9627 136.783 10.9627 136.78 10.9652C136.775 10.9676 136.775 10.9725 136.77 10.9749L136.683 11.004C136.673 11.021 136.659 11.0356 136.635 11.0356H136.605H136.591L136.545 11.0574C136.542 11.0574 136.54 11.0574 136.537 11.0598C136.528 11.0792 136.511 11.0938 136.489 11.0938H136.477C136.467 11.1108 136.453 11.1229 136.431 11.1229H136.402H136.397L136.385 11.1351C136.375 11.1448 136.36 11.152 136.343 11.152H136.309L136.297 11.1642C136.287 11.1739 136.273 11.1812 136.256 11.1812H136.227H136.212L136.166 11.203L136.05 11.2613C136.04 11.2661 136.033 11.2685 136.023 11.2685H136.011C136.001 11.2855 135.987 11.2977 135.965 11.2977H135.943L135.836 11.3244L135.751 11.3535C135.744 11.3559 135.739 11.3559 135.732 11.3559H135.727L135.715 11.3681C135.705 11.3778 135.69 11.385 135.673 11.385H135.659L135.613 11.4069C135.605 11.4117 135.596 11.4142 135.586 11.4142H135.528H135.513L135.467 11.436C135.46 11.4409 135.45 11.4433 135.44 11.4433H135.436L135.423 11.4554C135.414 11.4651 135.399 11.4724 135.382 11.4724H135.353H135.319L135.307 11.4845C135.297 11.4943 135.283 11.5015 135.266 11.5015H135.237H135.193L135.147 11.5234C135.14 11.5282 135.13 11.5307 135.12 11.5307H135.106L135.059 11.5525C135.057 11.5549 135.055 11.5525 135.05 11.5549C135.047 11.5549 135.047 11.5574 135.047 11.5574L134.931 11.5865C134.926 11.5865 134.921 11.5889 134.916 11.5889H134.858H134.829H134.814L134.768 11.6108C134.761 11.6156 134.751 11.618 134.741 11.618H134.669L134.623 11.6399C134.615 11.6447 134.606 11.6472 134.596 11.6472H134.567H134.552L134.506 11.669C134.499 11.6739 134.489 11.6763 134.479 11.6763H134.363H134.329L134.317 11.6884C134.307 11.6981 134.292 11.7054 134.276 11.7054H134.246H134.188H134.113L134.067 11.7272C134.06 11.7321 134.05 11.7345 134.04 11.7345H134.011H133.97H133.824H133.79L133.778 11.7467C133.768 11.7564 133.754 11.7637 133.737 11.7637H133.708H133.183H132.649L134.812 19.0276C134.812 19.0301 134.809 19.0325 134.812 19.0373C134.812 19.0398 134.814 19.0422 134.814 19.0446C134.814 19.0495 134.809 19.0543 134.809 19.0592C134.807 19.0665 134.807 19.0737 134.802 19.0786C134.797 19.0859 134.792 19.0883 134.785 19.0932C134.78 19.0956 134.778 19.1004 134.773 19.1029C134.768 19.1053 134.761 19.1053 134.756 19.1053H129.426C129.412 19.1053 129.4 19.098 129.39 19.0907C129.388 19.0883 129.385 19.0835 129.383 19.081C129.38 19.0762 129.375 19.0737 129.373 19.0665L126.883 11.7661H112.224L108.63 19.0737C108.627 19.0786 108.625 19.081 108.62 19.0834C108.617 19.0859 108.615 19.0883 108.613 19.0907C108.603 19.1004 108.591 19.1053 108.576 19.1053H103.858C103.848 19.1053 103.841 19.1029 103.831 19.098C103.829 19.0956 103.829 19.0932 103.824 19.0907C103.817 19.0859 103.814 19.081 103.81 19.0737C103.805 19.0665 103.802 19.0616 103.802 19.0543C103.802 19.0519 103.797 19.0495 103.797 19.0446C103.797 19.0398 103.802 19.0373 103.802 19.0325C103.802 19.0276 103.8 19.0228 103.802 19.0203L109.598 7.34168C109.6 7.33925 109.603 7.33925 109.605 7.33439C109.61 7.32711 109.615 7.32469 109.622 7.31983C109.629 7.31498 109.634 7.31255 109.642 7.31255C109.644 7.31255 109.646 7.3077 109.651 7.3077H135.972L137.227 4.68655H110.962C110.952 4.68655 110.945 4.68412 110.935 4.67927C110.933 4.67684 110.933 4.67441 110.928 4.67199C110.921 4.66713 110.918 4.66228 110.913 4.655C110.908 4.64772 110.906 4.64286 110.906 4.63558C110.906 4.63316 110.901 4.63073 110.901 4.62587C110.901 4.62102 110.906 4.61859 110.906 4.61374C110.906 4.60889 110.904 4.60403 110.906 4.6016L113.178 0.0291561C113.18 0.0267291 113.183 0.0267291 113.185 0.0218751C113.19 0.0145941 113.195 0.0121671 113.202 0.00731317C113.209 0.00245919 113.214 3.22014e-05 113.221 3.22014e-05C113.224 3.22014e-05 113.226 -0.00482178 113.231 -0.00482178H138.685H138.744H138.86H138.918H138.947H139.035C139.037 -0.00482178 139.04 -0.00239479 139.045 3.22014e-05C139.047 3.22014e-05 139.052 -0.00239479 139.054 3.22014e-05L139.132 0.0267291H139.18H139.21H139.239H139.326H139.413C139.428 0.0267291 139.443 0.0315831 139.455 0.043718L139.467 0.055853H139.472H139.501H139.559H139.588H139.617C139.622 0.055853 139.625 0.0607069 139.629 0.0607069C139.634 0.0607069 139.639 0.0607069 139.644 0.0607069L139.69 0.0825498H139.705H139.734H139.763H139.821C139.843 0.0825498 139.858 0.0946848 139.867 0.111674H139.909H139.938C139.952 0.111674 139.967 0.116528 139.979 0.128663L139.991 0.140798H139.996H140.083C140.088 0.140798 140.091 0.145652 140.095 0.145652C140.1 0.145652 140.105 0.143225 140.108 0.145652L140.154 0.167494H140.168C140.171 0.167494 140.171 0.169921 140.173 0.169921C140.188 0.169921 140.202 0.177202 140.212 0.18691L140.224 0.199045H140.229H140.287C140.302 0.199045 140.316 0.203899 140.328 0.216034L140.341 0.228169H140.345H140.404C140.418 0.228169 140.433 0.233023 140.445 0.245158L140.457 0.257293H140.462C140.467 0.257293 140.469 0.262147 140.474 0.262147C140.479 0.262147 140.484 0.25972 140.486 0.262147L140.532 0.28399H140.547C140.561 0.28399 140.576 0.288844 140.588 0.300979L140.6 0.313114H140.605H140.634C140.649 0.313114 140.663 0.317968 140.675 0.330103L140.688 0.342238H140.692H140.722C140.726 0.342238 140.729 0.347092 140.734 0.347092C140.743 0.349519 140.756 0.351946 140.763 0.359227L140.775 0.371362H140.78C140.794 0.371362 140.809 0.376216 140.821 0.388351L140.833 0.400485H140.838H140.867C140.889 0.400485 140.904 0.41262 140.913 0.429609H140.925C140.933 0.429609 140.935 0.434463 140.942 0.43689C140.947 0.439317 140.955 0.43689 140.959 0.439317L141.032 0.487857H141.044C141.059 0.487857 141.074 0.492711 141.086 0.504846L141.105 0.524262L141.18 0.548532C141.183 0.548532 141.183 0.550959 141.183 0.550959C141.185 0.550959 141.185 0.550959 141.188 0.550959L141.246 0.580083C141.248 0.58251 141.251 0.584937 141.253 0.587364C141.256 0.589791 141.26 0.589791 141.263 0.592218L141.275 0.604353H141.28C141.304 0.604353 141.321 0.621342 141.331 0.643184C141.338 0.645611 141.345 0.645611 141.35 0.652892L141.362 0.665027H141.367C141.37 0.665027 141.37 0.667454 141.372 0.667454C141.387 0.667454 141.401 0.674735 141.411 0.684443L141.44 0.713567L141.45 0.728129H141.455C141.459 0.728129 141.462 0.732983 141.467 0.732983C141.476 0.73541 141.489 0.737837 141.496 0.745118L141.525 0.774242L141.554 0.803366L141.583 0.83249L141.595 0.844625H141.6C141.615 0.844625 141.629 0.849479 141.641 0.861613L141.671 0.890737L141.729 0.948985L141.741 0.96112H141.746C141.76 0.96112 141.775 0.965974 141.787 0.978109L141.845 1.03636C141.848 1.03878 141.848 1.04364 141.85 1.04606C141.853 1.04849 141.855 1.04849 141.857 1.05335L141.872 1.08247C141.891 1.0849 141.906 1.09946 141.913 1.11645C141.921 1.11887 141.928 1.11887 141.933 1.12616L141.962 1.15528L141.991 1.1844C142.001 1.19411 142.008 1.20867 142.008 1.22566C142.039 1.22566 142.066 1.25236 142.066 1.28391V1.28634L142.078 1.29847L142.107 1.3276L142.137 1.35672C142.146 1.36643 142.154 1.38099 142.154 1.39798V1.40283L142.166 1.41497C142.168 1.41739 142.168 1.42225 142.17 1.42467C142.173 1.4271 142.175 1.4271 142.178 1.43196L142.207 1.4902L142.221 1.51933C142.248 1.52418 142.27 1.54602 142.27 1.57272V1.58728L142.292 1.6334C142.292 1.63582 142.292 1.63825 142.292 1.64068C142.311 1.65039 142.326 1.66737 142.326 1.68922V1.70135C142.343 1.71106 142.355 1.72562 142.355 1.74746V1.77659V1.78144L142.367 1.79358C142.372 1.79843 142.372 1.80814 142.377 1.81299C142.399 1.8227 142.416 1.83969 142.416 1.86396V1.89308V1.90522C142.433 1.91493 142.445 1.92949 142.445 1.95133V1.98046V2.00958V2.01443L142.457 2.02657C142.467 2.03628 142.474 2.05084 142.474 2.06783V2.09695V2.10181L142.486 2.11394C142.496 2.12365 142.503 2.13821 142.503 2.1552V2.2183L142.515 2.23044C142.525 2.24014 142.532 2.25471 142.532 2.27169V2.30082V2.32994V2.37363L142.554 2.41974C142.556 2.42459 142.554 2.42945 142.554 2.4343C142.554 2.43916 142.559 2.44158 142.559 2.44644V2.47556V2.50469V2.53138L142.588 2.7304V2.73282Z" fill="white"/>
<path d="M71.9359 2.45851V2.44637V2.38813C71.9359 2.38327 71.9311 2.38084 71.9311 2.37599C71.9311 2.37114 71.9335 2.36628 71.9311 2.36143L71.9092 2.31532V2.30075V2.27163V2.24251C71.9092 2.24008 71.9068 2.23765 71.9044 2.2328C71.9044 2.23037 71.9068 2.22794 71.9044 2.22309L71.8777 2.14543V2.12601V2.09689C71.8777 2.0799 71.8704 2.06534 71.8607 2.05563L71.8486 2.04349V2.03864V2.00952C71.8486 1.99253 71.8413 1.97796 71.8316 1.96826L71.8194 1.95612V1.95127V1.92214C71.8194 1.90515 71.8122 1.89059 71.8024 1.88088L71.7903 1.86875V1.8639V1.83477C71.7903 1.81293 71.7782 1.79837 71.7612 1.78866V1.77652C71.7612 1.75225 71.7466 1.73769 71.7272 1.72798C71.7272 1.72556 71.7272 1.72313 71.7272 1.7207L71.7054 1.67459V1.66003C71.7054 1.65517 71.7005 1.65275 71.7005 1.64789C71.7005 1.64304 71.7029 1.63819 71.7005 1.63333L71.6714 1.57508C71.669 1.57266 71.6665 1.57266 71.6641 1.5678C71.6592 1.56052 71.6544 1.5581 71.6471 1.55324C71.6423 1.55081 71.6423 1.54596 71.6374 1.54596C71.635 1.54111 71.635 1.53383 71.6301 1.5314L71.618 1.51926V1.51441C71.618 1.49742 71.6107 1.48286 71.601 1.47315L71.5889 1.46102V1.45616C71.5889 1.43189 71.5719 1.4149 71.55 1.40519C71.5476 1.39791 71.5476 1.39063 71.5403 1.38578L71.5282 1.37364V1.36879C71.5282 1.34452 71.5112 1.32753 71.4894 1.31782C71.4845 1.30326 71.4748 1.29355 71.4602 1.2887C71.4554 1.27414 71.4457 1.26443 71.4311 1.25958C71.4263 1.24744 71.4214 1.24016 71.4117 1.23288V1.22317C71.4117 1.19162 71.385 1.16492 71.3534 1.16492H71.3486L71.3365 1.15279L71.3243 1.14065V1.1358C71.3243 1.10668 71.3025 1.08483 71.2758 1.07998L71.2612 1.05085C71.2588 1.046 71.2515 1.04357 71.2467 1.03872C71.2418 1.03387 71.2394 1.02658 71.2345 1.02416L71.2054 1.0096C71.2006 0.982899 71.1787 0.961056 71.1496 0.961056H71.1447L71.1326 0.948921L71.0743 0.890673L71.0452 0.861549C71.0331 0.849414 71.0185 0.84456 71.004 0.84456H70.9991L70.987 0.832425L70.9578 0.803301C70.953 0.798447 70.9481 0.800874 70.9433 0.79602C70.9409 0.791166 70.936 0.788739 70.9336 0.786312C70.9287 0.779031 70.9263 0.774177 70.919 0.769324C70.9166 0.766896 70.9166 0.76447 70.9117 0.762043L70.8632 0.737773L70.8414 0.71593C70.8292 0.703795 70.8147 0.698941 70.8001 0.698941H70.788C70.7855 0.694087 70.7855 0.689233 70.7831 0.686806L70.754 0.657682C70.7418 0.645547 70.7273 0.640693 70.7127 0.640693H70.7006C70.6909 0.623704 70.6763 0.611569 70.6545 0.611569H70.6496L70.6375 0.599434C70.6351 0.597007 70.6326 0.597007 70.6278 0.59458C70.6254 0.59458 70.6254 0.589726 70.6205 0.589726L70.5622 0.560602L70.504 0.531479C70.5016 0.531479 70.4991 0.531479 70.4967 0.531479C70.487 0.512063 70.47 0.497501 70.4482 0.497501H70.4142L70.3729 0.456242C70.3657 0.448961 70.356 0.446534 70.3438 0.444107C70.339 0.444107 70.3365 0.439253 70.3317 0.439253H70.3195C70.3098 0.422264 70.2953 0.410129 70.2734 0.410129H70.2443H70.2298L70.1933 0.390713L70.1715 0.36887C70.1594 0.356735 70.1448 0.351881 70.1302 0.351881H70.089C70.0793 0.334892 70.0647 0.322757 70.0429 0.322757H70.0138H70.0089L69.9968 0.310622C69.9846 0.298488 69.9701 0.293634 69.9555 0.293634H69.9409L69.8948 0.271791C69.89 0.269364 69.8851 0.271791 69.8827 0.271791C69.8778 0.271791 69.8754 0.266937 69.8706 0.266937H69.8414H69.8366L69.8244 0.254802C69.822 0.252375 69.8147 0.252375 69.8123 0.249948C69.8075 0.247521 69.8075 0.242667 69.8026 0.24024L69.7152 0.211116C69.7128 0.211116 69.7079 0.211116 69.7055 0.211116C69.7031 0.211116 69.7007 0.206262 69.6958 0.206262H69.6546C69.6448 0.189273 69.6303 0.177138 69.6084 0.177138H69.5793H69.5308L69.4531 0.150441C69.4507 0.150441 69.4458 0.150441 69.4434 0.150441C69.441 0.150441 69.4386 0.145587 69.4337 0.145587H69.3997L69.3876 0.133452C69.3755 0.121317 69.3609 0.116463 69.3463 0.116463H69.3172H69.259H69.2541L69.242 0.104328C69.2347 0.0970474 69.2225 0.0946204 69.2128 0.0921934C69.208 0.0921934 69.2056 0.0873394 69.2007 0.0873394H69.1425H69.1133H69.0988L69.0527 0.0654965C69.0478 0.0630695 69.043 0.0654965 69.0381 0.0654965C69.0332 0.0654965 69.0308 0.0606425 69.026 0.0606425H68.9968H68.9677H68.8803H68.8658L68.8197 0.0387996C68.8148 0.0363726 68.81 0.0387996 68.8075 0.0387996C68.8027 0.0387996 68.8003 0.0339457 68.7954 0.0339457H68.7372H68.6207H68.5915H68.5406L68.4314 0.00724877C68.4289 0.00724877 68.4265 0.00967576 68.4241 0.00724877C68.4216 0.00724877 68.4192 0.00482178 68.4168 0.00482178H68.3585H68.3294H68.3003H68.2712H68.1547H68.0964H42.6373C42.6349 0.00482178 42.6325 0.00724877 42.6276 0.00967576C42.6203 0.0121027 42.6155 0.0145297 42.6082 0.0169567C42.6009 0.0218107 42.596 0.0242377 42.5912 0.0315187C42.5888 0.0339457 42.5863 0.0339457 42.5839 0.0387996L40.3123 4.61125C40.3098 4.6161 40.3123 4.62096 40.3123 4.62338C40.3123 4.62824 40.3074 4.63066 40.3074 4.63552C40.3074 4.63794 40.3098 4.64037 40.3123 4.64523C40.3147 4.65251 40.3171 4.65736 40.3195 4.66464C40.3244 4.67192 40.3268 4.67678 40.3341 4.68163C40.3365 4.68406 40.3365 4.68648 40.3414 4.68891C40.3487 4.69377 40.3584 4.69619 40.3681 4.69619H66.6329L65.3782 7.31734H39.0259C39.0235 7.31734 39.0211 7.31977 39.0162 7.31977C39.009 7.3222 39.0017 7.32462 38.9968 7.32705C38.9895 7.3319 38.9847 7.33433 38.9798 7.34161C38.9774 7.34404 38.975 7.34404 38.9726 7.34889L33.206 19.0276C33.2036 19.0324 33.206 19.0373 33.206 19.0421C33.206 19.047 33.2012 19.0494 33.2012 19.0543C33.2012 19.0567 33.2036 19.0591 33.206 19.064C33.2085 19.0713 33.2109 19.0761 33.2133 19.0834C33.2182 19.0907 33.2206 19.0955 33.2279 19.1004C33.2303 19.1028 33.2303 19.1052 33.2351 19.1077C33.2424 19.1125 33.2521 19.1149 33.2618 19.1149H37.9508C37.9654 19.1149 37.9775 19.1077 37.9872 19.1004C37.9896 19.0979 37.992 19.0955 37.9945 19.0931C37.9969 19.0907 38.0018 19.0882 38.0018 19.0834L41.6253 11.7757H62.558H63.1114C63.1211 11.7757 63.1284 11.7733 63.1381 11.7684L63.1842 11.7466H63.2279H63.3735H63.4026C63.4123 11.7466 63.4196 11.7442 63.4293 11.7393L63.4754 11.7175H63.5774H63.6356H63.6647C63.6793 11.7175 63.6939 11.7126 63.706 11.7005L63.7181 11.6883H63.7521H63.8395C63.8492 11.6883 63.8565 11.6859 63.8662 11.6811L63.9123 11.6592H63.9269H63.956C63.9657 11.6592 63.973 11.6568 63.9827 11.6519L64.0288 11.6301H64.1307C64.1404 11.6301 64.1477 11.6277 64.1574 11.6228L64.2035 11.601H64.2181H64.2763C64.2861 11.601 64.2933 11.5986 64.303 11.5937L64.3492 11.5719H64.3637H64.3928C64.4026 11.5719 64.4098 11.5694 64.4195 11.5646L64.4657 11.5427H64.4802H64.5385C64.5482 11.5427 64.5555 11.5403 64.5652 11.5354L64.6113 11.5136H64.6258H64.655C64.6695 11.5136 64.6841 11.5088 64.6962 11.4966L64.7083 11.4845H64.7132H64.7423H64.7715C64.7933 11.4845 64.8079 11.4723 64.8176 11.4554H64.8297H64.8588C64.8734 11.4554 64.8879 11.4505 64.9001 11.4384L64.9122 11.4262H64.9171H64.9462C64.9559 11.4262 64.9632 11.4238 64.9729 11.419L65.019 11.3971H65.0336H65.0627C65.0772 11.3971 65.0918 11.3923 65.104 11.3801L65.1234 11.3607L65.1889 11.3389H65.2083H65.2374C65.2471 11.3389 65.2544 11.3364 65.2641 11.3316L65.3102 11.3097H65.3248C65.3466 11.3097 65.3612 11.2976 65.3709 11.2806H65.3831C65.3928 11.2806 65.4 11.2782 65.4098 11.2733L65.4559 11.2515H65.4704C65.4874 11.2515 65.502 11.2442 65.5117 11.2345L65.5311 11.2151L65.5966 11.1932H65.616H65.6452C65.6549 11.1932 65.6622 11.1908 65.6719 11.186L65.718 11.1641H65.7325C65.7544 11.1641 65.7689 11.152 65.7787 11.135H65.7908C65.8126 11.135 65.8272 11.1229 65.8369 11.1059H65.849H65.8782C65.8927 11.1059 65.9073 11.101 65.9194 11.0889L65.9316 11.0767H65.9364C65.9534 11.0767 65.968 11.0695 65.9777 11.0598L65.9898 11.0476H65.9947C66.0092 11.0476 66.0238 11.0428 66.0359 11.0306L66.0578 11.0088L66.0942 10.9894H66.1087H66.1379C66.1597 10.9894 66.1743 10.9748 66.1864 10.9578L66.2738 10.9287C66.2786 10.9263 66.281 10.9214 66.2835 10.919C66.2883 10.9166 66.2932 10.9166 66.2956 10.9141L66.3077 10.902H66.3126C66.3223 10.902 66.3296 10.8996 66.3393 10.8947L66.3854 10.8729H66.4C66.4242 10.8729 66.4412 10.8559 66.4509 10.834C66.4582 10.8316 66.4655 10.8316 66.4703 10.8268L66.4898 10.8074L66.565 10.7831C66.5674 10.7831 66.5674 10.7807 66.5699 10.7782C66.5723 10.7758 66.5771 10.7782 66.5796 10.7758L66.6524 10.7273H66.6645C66.6815 10.7273 66.6961 10.72 66.7058 10.7103L66.7179 10.6981H66.7228C66.7325 10.6981 66.7397 10.6957 66.7495 10.6909L66.8077 10.6617C66.8101 10.6593 66.8101 10.6569 66.815 10.6545C66.8223 10.6496 66.8247 10.6447 66.8295 10.6399H66.8417C66.8659 10.6399 66.8829 10.6229 66.8902 10.6011C66.8975 10.5986 66.9048 10.5986 66.9121 10.5913L66.9242 10.5792H66.929C66.9436 10.5792 66.9582 10.5744 66.9703 10.5622L66.9824 10.5501H66.9849C66.9994 10.5501 67.014 10.5452 67.0261 10.5331L67.0383 10.521H67.0431C67.065 10.521 67.0795 10.5088 67.0892 10.4918H67.1014C67.1159 10.4918 67.1305 10.487 67.1426 10.4749L67.1717 10.4457L67.1839 10.4336H67.1887C67.213 10.4336 67.23 10.4166 67.2373 10.3948C67.2446 10.3923 67.2518 10.3923 67.2591 10.3851L67.3004 10.3438H67.3052C67.3198 10.3438 67.3344 10.3389 67.3465 10.3268L67.3659 10.3074L67.4411 10.2831C67.446 10.2807 67.4484 10.2758 67.4509 10.2734C67.4581 10.2686 67.463 10.2661 67.4678 10.2589C67.4703 10.254 67.4727 10.2516 67.4751 10.2467C67.48 10.2443 67.4873 10.2443 67.4921 10.2394L67.5188 10.2127L67.6013 10.1569L67.6741 10.1084H67.6863C67.7154 10.1084 67.7372 10.0865 67.7421 10.0598L67.7712 10.0453C67.7736 10.0429 67.7761 10.0404 67.7785 10.038C67.7809 10.0356 67.7858 10.038 67.7882 10.0331L67.8003 10.021H67.8052C67.8222 10.021 67.8367 10.0137 67.8464 10.004L67.8683 9.98218L67.9193 9.95791C67.9217 9.95548 67.9217 9.95305 67.9265 9.95062C67.9338 9.94577 67.9362 9.94092 67.9411 9.93364C67.9435 9.92878 67.9484 9.92878 67.9508 9.92393C67.9557 9.9215 67.9629 9.9215 67.9654 9.91665L67.9872 9.8948L68.0382 9.87053C68.0406 9.86811 68.0406 9.86568 68.0455 9.86325C68.0527 9.8584 68.0552 9.85355 68.06 9.84626C68.0625 9.84141 68.0673 9.84141 68.0697 9.83656C68.0746 9.83413 68.0794 9.83413 68.0843 9.82928L68.1061 9.80743L68.1571 9.78316C68.1595 9.78074 68.1595 9.77831 68.1644 9.77588C68.1717 9.77103 68.1741 9.76617 68.179 9.75889C68.1814 9.75404 68.1862 9.75404 68.1887 9.74918C68.1935 9.74676 68.2008 9.74676 68.2032 9.7419L68.2251 9.72006L68.276 9.69579C68.2785 9.69336 68.2785 9.69094 68.2833 9.68851C68.2857 9.68608 68.2906 9.68608 68.293 9.68366L68.4095 9.56716L68.4314 9.54532L68.4823 9.52105C68.4847 9.51862 68.4847 9.51619 68.4896 9.51377C68.492 9.51134 68.4969 9.51134 68.4993 9.50891L68.5988 9.40941H68.6037C68.6207 9.40941 68.6352 9.40213 68.6449 9.39242L68.674 9.36329L68.7032 9.33417L68.7905 9.2468L68.8197 9.21767L69.2274 8.80994C69.2323 8.80509 69.2323 8.79538 69.2371 8.79052C69.2395 8.78324 69.2468 8.77839 69.2468 8.77111V8.7614L69.2517 8.75655L69.3002 8.73228C69.3051 8.72985 69.3075 8.72499 69.3099 8.72014C69.3123 8.71771 69.3172 8.71771 69.3196 8.71529L69.4046 8.60365L69.4313 8.57695L69.4604 8.54782C69.4628 8.5454 69.4604 8.54297 69.4628 8.54054C69.4652 8.53812 69.4701 8.53569 69.4701 8.53084L69.4944 8.4823L69.5162 8.46045C69.5186 8.45803 69.5162 8.4556 69.5186 8.4556C69.5211 8.45317 69.5259 8.45074 69.5259 8.44589L69.5405 8.41677C69.5672 8.41191 69.589 8.39007 69.589 8.36095V8.35609L69.6012 8.34396C69.6012 8.34396 69.6012 8.34153 69.6036 8.3391C69.606 8.33668 69.6084 8.33668 69.6084 8.33425L69.6667 8.24688L69.7225 8.16436L69.7468 8.14009L69.7759 8.11097C69.7759 8.11097 69.7759 8.10854 69.7783 8.10854C69.7808 8.10611 69.7832 8.10611 69.7832 8.10369L69.8414 8.01631V8.01389C69.8414 8.01146 69.8439 8.01146 69.8439 8.01146L69.873 7.95321C69.8754 7.94836 69.873 7.9435 69.873 7.93865C69.873 7.9338 69.8778 7.93137 69.8778 7.92652V7.92166L69.89 7.90953C69.8924 7.9071 69.89 7.90467 69.8924 7.90467C69.8948 7.90225 69.8997 7.89982 69.9021 7.89496L69.9312 7.83672L70.0162 7.69595L70.1327 7.49208V7.48966C70.1327 7.48966 70.1351 7.48966 70.1351 7.48723L71.4457 4.74959L71.5864 4.46806L71.6083 4.44621C71.6204 4.43408 71.6253 4.41952 71.6253 4.40495V4.36369L71.6738 4.29089C71.6762 4.28846 71.6738 4.28603 71.6762 4.2836C71.6787 4.28118 71.6811 4.27875 71.6811 4.27632L71.7102 4.18895C71.7102 4.18652 71.7102 4.18167 71.7102 4.17924C71.7102 4.17682 71.7151 4.17439 71.7151 4.16954V4.15012L71.7369 4.10401C71.7369 4.10158 71.7369 4.09915 71.7369 4.09915C71.7369 4.09673 71.7393 4.09673 71.7418 4.0943L71.7685 3.98508L71.7952 3.93169C71.7976 3.92684 71.7952 3.92198 71.7952 3.91713C71.7952 3.91227 71.8 3.90985 71.8 3.90499V3.90014L71.8122 3.88801C71.8243 3.87587 71.8291 3.86131 71.8291 3.84675V3.83461C71.8461 3.8249 71.8583 3.81034 71.8583 3.7885V3.75937V3.73025V3.71812C71.8752 3.70841 71.8874 3.69385 71.8874 3.672V3.64045V3.61133V3.57735L71.8995 3.56522C71.9092 3.55551 71.9165 3.54095 71.9165 3.52396V3.49483V3.45357C71.9335 3.44387 71.9456 3.4293 71.9456 3.40746V3.37834V3.34921V3.29825L71.9723 3.18903C71.9723 3.1866 71.9699 3.18418 71.9723 3.18175C71.9723 3.17932 71.9748 3.1769 71.9748 3.17447V3.14535V3.0871V2.99973V2.94148V2.91236V2.85411V2.76674V2.70849V2.53374V2.50462C71.965 2.48278 71.9505 2.46822 71.9359 2.45851Z" fill="white"/>
</g>
<defs>
<clipPath id="clip0_147_6600">
<rect width="191.053" height="22" fill="white"/>
</clipPath>
</defs>
</svg>
