<svg width="139" height="16" viewBox="0 0 139 16" fill="none" xmlns="http://www.w3.org/2000/svg">
<g clip-path="url(#clip0_170_88)">
<path d="M27.9589 0.042362C27.9589 0.0405969 27.9571 0.0388318 27.9554 0.0353017C27.9536 0.0300064 27.9518 0.0264762 27.9501 0.021181C27.9465 0.0158857 27.9448 0.0123556 27.9395 0.00882542C27.9377 0.00706033 27.9377 0.00529525 27.9342 0.00353017C27.9306 0.00176508 27.9271 0.00353017 27.9254 0.00353017C27.9218 0.00353017 27.9201 0 27.9165 0H24.464C24.4623 0 24.4605 0.00176508 24.457 0.00353017C24.4517 0.00529525 24.4481 0.00706033 24.4428 0.00882542C24.4375 0.0123556 24.434 0.0141207 24.4305 0.0194159C24.4287 0.021181 24.427 0.021181 24.4252 0.0247112L17.6261 13.833C17.6243 13.8365 17.6261 13.84 17.6261 13.8435C17.6261 13.8471 17.6226 13.8488 17.6226 13.8524C17.6226 13.8541 17.6243 13.8559 17.6261 13.8594C17.6279 13.8647 17.6296 13.8683 17.6314 13.8736C17.6349 13.8788 17.6367 13.8824 17.642 13.8859C17.6437 13.8877 17.6437 13.8894 17.6473 13.8912C17.6526 13.8947 17.6596 13.8965 17.6667 13.8965H21.098C21.1086 13.8965 21.1174 13.8912 21.1245 13.8859C21.1263 13.8841 21.128 13.8824 21.1298 13.8806C21.1315 13.8788 21.1351 13.8771 21.1368 13.8736L27.9571 0.063543C27.9589 0.0600128 27.9571 0.0564827 27.9571 0.0529525C27.9554 0.0476573 27.9589 0.0458922 27.9589 0.042362Z" fill="white"/>
<path d="M79.3228 0.042362C79.3228 0.0405969 79.321 0.0388318 79.3193 0.0353017C79.3175 0.0300064 79.3158 0.0264762 79.314 0.021181C79.3105 0.0158857 79.3087 0.0123556 79.3034 0.00882542C79.3016 0.00706033 79.3016 0.00529525 79.2981 0.00353017C79.2946 0.00176508 79.291 0.00353017 79.2893 0.00353017C79.2857 0.00353017 79.284 0 79.2805 0H56.6168C56.6133 0 56.6115 0.00176508 56.6097 0.00353017C56.6044 0.00529525 56.6009 0.00706033 56.5956 0.00882542C56.5903 0.0123556 56.5868 0.0141207 56.5832 0.0194159C56.5815 0.021181 56.5797 0.021181 56.5779 0.0247112L54.9894 3.35013C54.9876 3.35366 54.9894 3.35719 54.9894 3.35895C54.9894 3.36248 54.9858 3.36425 54.9858 3.36778C54.9858 3.37131 54.9876 3.37131 54.9894 3.37484C54.9911 3.38013 54.9929 3.38366 54.9947 3.38896C54.9982 3.39426 55 3.39779 55.0053 3.40132C55.007 3.40308 55.007 3.40485 55.0106 3.40661C55.0158 3.41014 55.0229 3.41014 55.0282 3.41014H77.6283C77.6389 3.41014 77.6478 3.40485 77.6548 3.39955C77.6566 3.39779 77.6583 3.39602 77.6601 3.39426C77.6619 3.39249 77.6654 3.39073 77.6654 3.3872L79.3175 0.0617779C79.3193 0.0582477 79.3175 0.0547176 79.3175 0.0529525C79.3193 0.0476573 79.3228 0.0458922 79.3228 0.042362Z" fill="white"/>
<path d="M21.8145 0.044132C21.8145 0.0370717 21.811 0.0335415 21.8092 0.0282463C21.8074 0.022951 21.8074 0.0176558 21.8039 0.0141256H21.8021C21.7986 0.0105954 21.7915 0.00883035 21.7862 0.00706527C21.7809 0.00530019 21.7774 0.00177002 21.7721 0.00177002H21.7704H17.8731C17.8678 0.00177002 17.8642 0.00530019 17.8607 0.00706527C17.8554 0.00883035 17.8501 0.00883035 17.8466 0.0123605L5.27918 10.5764L5.22975 10.3293L3.21756 0.20299C3.21756 0.199459 3.21403 0.197694 3.21226 0.194164C3.2105 0.190634 3.21226 0.187104 3.20873 0.183574C3.20697 0.181809 3.2052 0.181809 3.20344 0.180043C3.19991 0.178278 3.19461 0.176513 3.18932 0.174748C3.18402 0.172983 3.17873 0.171218 3.17343 0.171218C3.17167 0.171218 3.1699 0.169453 3.16814 0.169453C3.16461 0.169453 3.16284 0.172983 3.15931 0.174748C3.15578 0.176513 3.15225 0.174748 3.14872 0.178278L0.0139326 2.8259C0.0121675 2.82767 0.0121675 2.82943 0.0104025 2.8312C0.00687229 2.83473 0.00510721 2.84002 0.00334213 2.84532C0.00157704 2.85062 -0.000188041 2.85591 -0.000188041 2.86121C-0.000188041 2.86297 -0.00195312 2.86474 -0.00195312 2.8665L2.09497 13.8594C2.09673 13.8647 2.10026 13.8683 2.10379 13.8736C2.10556 13.8771 2.10556 13.8806 2.10909 13.8824C2.11615 13.8894 2.12674 13.8947 2.13733 13.8947H5.52629C5.53688 13.8947 5.5457 13.8912 5.55453 13.8842L21.8004 0.0741384V0.0723734C21.8039 0.0688432 21.8057 0.0635479 21.8074 0.0564876C21.811 0.0529574 21.8145 0.0494273 21.8145 0.044132Z" fill="white"/>
<path d="M76.6966 5.35877C76.6966 5.357 76.6948 5.35524 76.693 5.35171C76.6913 5.34641 76.6895 5.34288 76.6877 5.33759C76.6842 5.33229 76.6824 5.32876 76.6771 5.32523C76.6754 5.32347 76.6754 5.3217 76.6719 5.31994C76.6683 5.31817 76.6648 5.31994 76.663 5.31994C76.6595 5.31994 76.6577 5.31641 76.6542 5.31641H54.0541C54.0523 5.31641 54.0505 5.31817 54.047 5.31994C54.0417 5.3217 54.0382 5.32347 54.0329 5.32523C54.0276 5.32876 54.0241 5.33053 54.0205 5.33582C54.0188 5.33759 54.017 5.33759 54.0152 5.34112L49.8214 13.8347C49.8196 13.8382 49.8214 13.8418 49.8214 13.8453C49.8214 13.8488 49.8179 13.8506 49.8179 13.8541C49.8179 13.8559 49.8196 13.8576 49.8214 13.8612C49.8232 13.8665 49.8249 13.87 49.8267 13.8753C49.8302 13.8806 49.832 13.8841 49.8373 13.8876C49.8391 13.8894 49.8391 13.8912 49.8426 13.8929C49.8479 13.8965 49.8549 13.8982 49.862 13.8982H72.4621C72.4727 13.8982 72.4815 13.8929 72.4886 13.8876C72.4904 13.8859 72.4921 13.8841 72.4939 13.8824C72.4957 13.8806 72.4992 13.8788 72.4992 13.8753L74.1513 10.5287C74.1531 10.5252 74.1513 10.5216 74.1513 10.5199C74.1513 10.5163 74.1548 10.5146 74.1548 10.511C74.1548 10.5093 74.1531 10.5075 74.1513 10.504C74.1495 10.4987 74.1478 10.4952 74.146 10.4899C74.1425 10.4846 74.1407 10.481 74.1354 10.4775C74.1337 10.4757 74.1337 10.474 74.1301 10.4722C74.1266 10.4704 74.1231 10.4722 74.1213 10.4722C74.1178 10.4722 74.116 10.4687 74.1125 10.4687H54.9896L55.9427 8.56239H75.0868C75.0974 8.56239 75.1062 8.5571 75.1133 8.5518C75.115 8.55004 75.1168 8.54827 75.1186 8.54651C75.1203 8.54474 75.1239 8.54298 75.1239 8.53945L76.6913 5.38348C76.693 5.37995 76.6913 5.37642 76.6913 5.37465C76.693 5.36406 76.6966 5.3623 76.6966 5.35877Z" fill="white"/>
<path d="M103.701 1.98747C103.701 1.98924 103.702 1.98924 103.702 1.991V2.03337V2.09691V2.11809V2.13927V2.18163C103.702 2.1834 103.701 2.18516 103.699 2.18869C103.699 2.19046 103.701 2.19399 103.699 2.19575L103.679 2.25224V2.28754V2.30872V2.39344C103.679 2.39697 103.676 2.39874 103.676 2.40227C103.676 2.4058 103.678 2.40933 103.676 2.41286L103.66 2.4464V2.45699V2.47817V2.49935C103.66 2.50288 103.656 2.50464 103.656 2.50817C103.656 2.5117 103.658 2.51523 103.656 2.517L103.641 2.55054V2.56113V2.58231V2.62467C103.641 2.63526 103.637 2.64585 103.628 2.65468L103.619 2.6635V2.66703C103.619 2.67056 103.616 2.67233 103.616 2.67586C103.616 2.67939 103.618 2.68292 103.616 2.68645L103.6 2.71998V2.73057V2.75176C103.6 2.75529 103.596 2.75705 103.596 2.76058C103.596 2.76411 103.598 2.76764 103.596 2.77117L103.581 2.80471V2.8153V2.83648C103.581 2.84001 103.577 2.84177 103.577 2.8453C103.577 2.84883 103.579 2.85237 103.577 2.8559L103.558 2.89473L103.538 2.97416C103.538 2.97592 103.536 2.97592 103.535 2.97769C103.535 2.97945 103.535 2.98122 103.535 2.98122L103.513 3.02358C103.512 3.02711 103.51 3.02711 103.508 3.03064C103.506 3.0324 103.508 3.03417 103.506 3.03417L103.492 3.04829L103.475 3.10301L103.453 3.16655C103.453 3.16831 103.452 3.16831 103.452 3.17008C103.452 3.17184 103.452 3.17184 103.452 3.17361L103.436 3.20715V3.21774C103.436 3.23715 103.422 3.25127 103.402 3.25657L103.326 3.44543C103.326 3.44543 103.326 3.44543 103.325 3.4472V3.44896L102.35 5.43998L102.329 5.48234C102.329 5.4841 102.327 5.4841 102.327 5.4841V5.48587L102.287 5.54588L102.271 5.57765V5.58824C102.271 5.59177 102.267 5.59354 102.267 5.59707C102.267 5.6006 102.269 5.60413 102.267 5.60766L102.246 5.65002C102.246 5.65179 102.244 5.65179 102.244 5.65179V5.65355L102.204 5.71533L102.184 5.75593C102.183 5.75946 102.181 5.75946 102.179 5.76299C102.177 5.76475 102.179 5.76652 102.177 5.76652L102.158 5.78593L102.121 5.84242L102.1 5.88301C102.098 5.88654 102.096 5.88654 102.094 5.89007C102.093 5.89184 102.094 5.8936 102.093 5.8936L102.084 5.90243V5.90596C102.084 5.92361 102.071 5.93597 102.057 5.94126C102.056 5.94656 102.056 5.95185 102.05 5.95715L102.029 5.97833L102.02 5.98715V5.99068L102.018 5.99245C102.018 6.00304 102.013 6.01363 102.006 6.02069L101.976 6.0507V6.05423C101.976 6.07188 101.966 6.08247 101.951 6.08953C101.951 6.09129 101.951 6.09306 101.951 6.09482L101.93 6.13719C101.928 6.14072 101.927 6.14072 101.925 6.14425C101.923 6.14601 101.925 6.14778 101.923 6.14778L101.902 6.16896C101.897 6.17425 101.888 6.17778 101.879 6.17955L101.868 6.20073C101.867 6.20426 101.865 6.20426 101.863 6.20779C101.861 6.20955 101.863 6.21132 101.861 6.21132L101.853 6.22014V6.22367C101.853 6.24662 101.833 6.26604 101.81 6.26604H101.807L101.8 6.2731L101.761 6.33311C101.759 6.33487 101.757 6.33487 101.757 6.33664C101.757 6.33664 101.757 6.3384 101.755 6.34017L101.713 6.38253L101.692 6.40371L101.651 6.44431L101.612 6.50432C101.611 6.50609 101.609 6.50609 101.609 6.50785C101.609 6.50785 101.609 6.50962 101.607 6.51138L101.586 6.53256C101.582 6.53609 101.575 6.53609 101.572 6.53962C101.57 6.54492 101.57 6.55021 101.565 6.55374L101.417 6.70201L101.395 6.72319L101.332 6.78674C101.33 6.7885 101.327 6.7885 101.325 6.79027C101.323 6.79203 101.323 6.7938 101.319 6.79556L101.282 6.81321L101.267 6.8291C101.259 6.83616 101.249 6.84145 101.237 6.84145L101.185 6.90853C101.184 6.91029 101.18 6.91029 101.178 6.91206C101.175 6.91559 101.175 6.91912 101.171 6.92088L101.136 6.93853L101.12 6.95442C101.113 6.96148 101.102 6.96677 101.09 6.96677H101.087L101.014 7.03914C101.012 7.04091 101.009 7.04091 101.007 7.04267C101.005 7.04444 101.005 7.0462 101.002 7.04797L100.966 7.06562L100.963 7.06915V7.07268C100.963 7.09563 100.944 7.11504 100.921 7.11504H100.91L100.884 7.12916L100.88 7.13269V7.13622C100.88 7.15917 100.861 7.17858 100.838 7.17858H100.827L100.801 7.19271L100.797 7.19624V7.19977C100.797 7.22271 100.778 7.24213 100.755 7.24213H100.744L100.716 7.25625L100.7 7.27213C100.698 7.2739 100.696 7.2739 100.693 7.2739C100.691 7.27566 100.691 7.27743 100.688 7.27919L100.651 7.29684L100.635 7.31273L100.613 7.33391C100.606 7.34097 100.596 7.34627 100.583 7.34627H100.58L100.55 7.37627C100.548 7.37804 100.546 7.37627 100.546 7.37804C100.545 7.3798 100.545 7.3798 100.545 7.38157L100.481 7.42393C100.479 7.42393 100.479 7.42393 100.478 7.4257C100.478 7.4257 100.478 7.42746 100.476 7.42746L100.439 7.44511L100.423 7.461C100.421 7.46276 100.419 7.46276 100.416 7.46276C100.414 7.46453 100.414 7.46629 100.41 7.46806L100.373 7.48571L100.358 7.50159C100.35 7.50866 100.34 7.51395 100.328 7.51395H100.324L100.294 7.54396C100.287 7.55102 100.276 7.55631 100.264 7.55631H100.26L100.252 7.56514L100.23 7.58632C100.229 7.58808 100.225 7.58808 100.223 7.58985C100.222 7.59161 100.222 7.59338 100.218 7.59514L100.176 7.61633C100.17 7.61986 100.163 7.62162 100.156 7.62162H100.153L100.144 7.63045C100.14 7.63398 100.133 7.63398 100.128 7.63751C100.121 7.65339 100.109 7.66575 100.091 7.66575H100.07H100.066L100.057 7.67457L100.036 7.69575C100.029 7.70281 100.019 7.70811 100.006 7.70811H99.9974C99.9904 7.72046 99.9798 7.72929 99.9639 7.72929H99.9604L99.9516 7.73812C99.9498 7.73988 99.9463 7.73988 99.9445 7.74165C99.9427 7.74341 99.9427 7.74518 99.9392 7.74694L99.9039 7.76459L99.888 7.78048C99.8809 7.78754 99.8704 7.79283 99.858 7.79283H99.8439L99.7962 7.80872L99.7821 7.82284C99.775 7.8299 99.7645 7.8352 99.7521 7.8352H99.7486L99.7397 7.84402C99.738 7.84579 99.7362 7.84579 99.7327 7.84755C99.7309 7.84932 99.7309 7.85108 99.7274 7.85285L99.685 7.87403H99.6833C99.6815 7.87579 99.6797 7.87756 99.678 7.87932C99.6744 7.88462 99.6709 7.88638 99.6656 7.88991C99.6621 7.89168 99.6621 7.89521 99.6585 7.89697L99.6003 7.91639L99.5421 7.95522C99.535 7.96052 99.5262 7.96228 99.5191 7.96228H99.4944L99.4856 7.97111C99.4838 7.97287 99.4785 7.97287 99.4767 7.97464C99.4732 7.9764 99.4732 7.97993 99.4697 7.9817L99.4061 8.00288C99.3991 8.01523 99.3885 8.02582 99.3708 8.02582H99.3497H99.3391L99.3055 8.04171C99.3038 8.04171 99.302 8.04171 99.3002 8.04348C99.2932 8.0576 99.2808 8.06819 99.2649 8.06819H99.2561C99.2491 8.08054 99.2385 8.08937 99.2226 8.08937H99.2014H99.1979L99.189 8.09819C99.182 8.10525 99.1714 8.11055 99.159 8.11055H99.1343L99.1255 8.11937C99.1184 8.12643 99.1078 8.13173 99.0955 8.13173H99.0743H99.0637L99.0302 8.14762L98.9455 8.18998C98.9384 8.19351 98.9331 8.19527 98.926 8.19527H98.9172C98.9101 8.20763 98.8996 8.21645 98.8837 8.21645H98.8678L98.7901 8.23587L98.7284 8.25705C98.7231 8.25881 98.7195 8.25882 98.7142 8.25882H98.7107L98.7019 8.26764C98.6948 8.2747 98.6842 8.28 98.6719 8.28H98.6613L98.6277 8.29588C98.6224 8.29941 98.6154 8.30118 98.6083 8.30118H98.566H98.5554L98.5218 8.31706C98.5165 8.32059 98.5095 8.32236 98.5024 8.32236H98.4989L98.4901 8.33118C98.483 8.33824 98.4724 8.34354 98.4601 8.34354H98.4389H98.4142L98.4053 8.35236C98.3983 8.35942 98.3877 8.36472 98.3753 8.36472H98.3541H98.3224L98.2888 8.38061C98.2835 8.38414 98.2765 8.3859 98.2694 8.3859H98.2588L98.2253 8.40179C98.2235 8.40355 98.2218 8.40179 98.2182 8.40355C98.2165 8.40355 98.2165 8.40532 98.2165 8.40532L98.1318 8.4265C98.1282 8.4265 98.1247 8.42826 98.1212 8.42826H98.0788H98.0576H98.047L98.0135 8.44415C98.0082 8.44768 98.0011 8.44944 97.9941 8.44944H97.9411L97.9076 8.46533C97.9023 8.46886 97.8952 8.47063 97.8882 8.47063H97.867H97.8564L97.8229 8.48651C97.8176 8.49004 97.8105 8.49181 97.8034 8.49181H97.7187H97.694L97.6852 8.50063C97.6781 8.50769 97.6675 8.51299 97.6552 8.51299H97.634H97.5916H97.5369L97.5034 8.52887C97.4981 8.5324 97.491 8.53417 97.484 8.53417H97.4628H97.4328H97.3269H97.3022L97.2933 8.54299C97.2863 8.55005 97.2757 8.55535 97.2633 8.55535H97.2421H96.8609H96.4726L98.0453 13.8382C98.0453 13.84 98.0435 13.8418 98.0453 13.8453C98.0453 13.8471 98.047 13.8488 98.047 13.8506C98.047 13.8541 98.0435 13.8577 98.0435 13.8612C98.0417 13.8665 98.0417 13.8718 98.0382 13.8753C98.0347 13.8806 98.0311 13.8824 98.0258 13.8859C98.0223 13.8877 98.0205 13.8912 98.017 13.893C98.0135 13.8947 98.0082 13.8947 98.0047 13.8947H94.1285C94.118 13.8947 94.1091 13.8894 94.1021 13.8841C94.1003 13.8824 94.0985 13.8788 94.0968 13.8771C94.095 13.8735 94.0915 13.8718 94.0897 13.8665L92.2787 8.55711H81.6176L79.0035 13.8718C79.0018 13.8753 79 13.8771 78.9965 13.8788C78.9947 13.8806 78.9929 13.8824 78.9912 13.8841C78.9841 13.8912 78.9753 13.8947 78.9647 13.8947H75.5334C75.5263 13.8947 75.521 13.893 75.514 13.8894C75.5122 13.8877 75.5122 13.8859 75.5087 13.8841C75.5034 13.8806 75.5016 13.8771 75.4981 13.8718C75.4946 13.8665 75.4928 13.863 75.4928 13.8577C75.4928 13.8559 75.4893 13.8541 75.4893 13.8506C75.4893 13.8471 75.4928 13.8453 75.4928 13.8418C75.4928 13.8382 75.491 13.8347 75.4928 13.8329L79.7078 5.33937C79.7096 5.3376 79.7113 5.3376 79.7131 5.33407C79.7166 5.32878 79.7202 5.32701 79.7255 5.32348C79.7308 5.31995 79.7343 5.31819 79.7396 5.31819C79.7413 5.31819 79.7431 5.31466 79.7466 5.31466H98.889L99.8015 3.40837H80.6998C80.6927 3.40837 80.6874 3.4066 80.6804 3.40307C80.6786 3.40131 80.6786 3.39954 80.6751 3.39778C80.6698 3.39425 80.668 3.39072 80.6645 3.38542C80.661 3.38012 80.6592 3.37659 80.6592 3.3713C80.6592 3.36953 80.6557 3.36777 80.6557 3.36424C80.6557 3.36071 80.6592 3.35894 80.6592 3.35541C80.6592 3.35188 80.6574 3.34835 80.6592 3.34659L82.3113 0.0211711C82.3131 0.019406 82.3148 0.019406 82.3166 0.0158759C82.3201 0.0105806 82.3237 0.00881554 82.329 0.00528538C82.3343 0.00175521 82.3378 -9.87248e-06 82.3431 -9.87248e-06C82.3448 -9.87248e-06 82.3466 -0.00354004 82.3501 -0.00354004H100.862H100.905H100.989H101.032H101.053H101.117C101.118 -0.00354004 101.12 -0.00177496 101.124 -9.87248e-06C101.125 -9.87248e-06 101.129 -0.00177496 101.131 -9.87248e-06L101.187 0.019406H101.222H101.244H101.265H101.328H101.392C101.402 0.019406 101.413 0.0229362 101.422 0.0317616L101.431 0.040587H101.434H101.455H101.498H101.519H101.54C101.544 0.040587 101.545 0.0441172 101.549 0.0441172C101.552 0.0441172 101.556 0.0441172 101.56 0.0441172L101.593 0.060003H101.604H101.625H101.646H101.688C101.704 0.060003 101.715 0.0688284 101.722 0.081184H101.752H101.773C101.784 0.081184 101.794 0.0847141 101.803 0.0935395L101.812 0.102365H101.815H101.879C101.883 0.102365 101.884 0.105895 101.888 0.105895C101.891 0.105895 101.895 0.10413 101.897 0.105895L101.93 0.121781H101.941C101.943 0.121781 101.943 0.123546 101.944 0.123546C101.955 0.123546 101.966 0.128841 101.973 0.135902L101.981 0.144727H101.985H102.027C102.038 0.144727 102.048 0.148257 102.057 0.157083L102.066 0.165908H102.07H102.112C102.123 0.165908 102.133 0.169438 102.142 0.178264L102.151 0.187089H102.154C102.158 0.187089 102.16 0.190619 102.163 0.190619C102.167 0.190619 102.17 0.188854 102.172 0.190619L102.206 0.206505H102.216C102.227 0.206505 102.237 0.210035 102.246 0.21886L102.255 0.227686H102.259H102.28C102.29 0.227686 102.301 0.231216 102.31 0.240041L102.319 0.248867H102.322H102.343C102.347 0.248867 102.349 0.252397 102.352 0.252397C102.359 0.254162 102.368 0.255927 102.373 0.261222L102.382 0.270048H102.386C102.396 0.270048 102.407 0.273578 102.416 0.282403L102.424 0.291229H102.428H102.449C102.465 0.291229 102.476 0.300054 102.483 0.31241H102.492C102.497 0.31241 102.499 0.31594 102.504 0.317705C102.507 0.31947 102.513 0.317705 102.516 0.31947L102.569 0.354772H102.578C102.589 0.354772 102.599 0.358302 102.608 0.367127L102.622 0.381248L102.677 0.398899C102.679 0.398899 102.679 0.400664 102.679 0.400664C102.68 0.400664 102.68 0.400664 102.682 0.400664L102.724 0.421845C102.726 0.42361 102.728 0.425375 102.73 0.42714C102.732 0.428905 102.735 0.428905 102.737 0.43067L102.746 0.439496H102.749C102.767 0.439496 102.779 0.451851 102.786 0.467737C102.792 0.469502 102.797 0.469502 102.8 0.474798L102.809 0.483623H102.813C102.815 0.483623 102.815 0.485388 102.816 0.485388C102.827 0.485388 102.837 0.490683 102.845 0.497744L102.866 0.518925L102.873 0.529515H102.876C102.88 0.529515 102.882 0.533045 102.885 0.533045C102.892 0.53481 102.901 0.536575 102.906 0.541871L102.927 0.563052L102.949 0.584233L102.97 0.605414L102.979 0.614239H102.982C102.993 0.614239 103.003 0.617769 103.012 0.626595L103.033 0.647776L103.076 0.690138L103.085 0.698963H103.088C103.099 0.698963 103.109 0.702493 103.118 0.711319L103.16 0.753681C103.162 0.755446 103.162 0.758976 103.164 0.760741C103.166 0.762506 103.168 0.762506 103.169 0.766036L103.18 0.787217C103.194 0.788982 103.205 0.799573 103.21 0.811928C103.215 0.813694 103.22 0.813694 103.224 0.818989L103.245 0.84017L103.266 0.861351C103.273 0.868411 103.279 0.879002 103.279 0.891357C103.302 0.891357 103.321 0.910773 103.321 0.933719V0.935484L103.33 0.94431L103.351 0.965491L103.372 0.986672C103.379 0.993732 103.385 1.00432 103.385 1.01668V1.02021L103.393 1.02903C103.395 1.0308 103.395 1.03433 103.397 1.03609C103.399 1.03786 103.401 1.03786 103.402 1.04139L103.423 1.08375L103.434 1.10493C103.453 1.10846 103.469 1.12435 103.469 1.14376V1.15435L103.485 1.18789C103.485 1.18966 103.485 1.19142 103.485 1.19319C103.499 1.20025 103.51 1.2126 103.51 1.22849V1.23731C103.522 1.24437 103.531 1.25496 103.531 1.27085V1.29203V1.29556L103.54 1.30439C103.543 1.30792 103.543 1.31498 103.547 1.31851C103.563 1.32557 103.575 1.33792 103.575 1.35557V1.37676V1.38558C103.588 1.39264 103.596 1.40323 103.596 1.41912V1.4403V1.46148V1.46501L103.605 1.47383C103.612 1.4809 103.618 1.49149 103.618 1.50384V1.52502V1.52855L103.626 1.53738C103.634 1.54444 103.639 1.55503 103.639 1.56738V1.61328L103.648 1.6221C103.655 1.62916 103.66 1.63975 103.66 1.65211V1.67329V1.69447V1.72624L103.676 1.75978C103.678 1.76331 103.676 1.76684 103.676 1.77037C103.676 1.7739 103.679 1.77566 103.679 1.77919V1.80038V1.82156V1.84097L103.701 1.98571V1.98747Z" fill="white"/>
<path d="M52.3172 1.78804V1.77921V1.73685C52.3172 1.73332 52.3137 1.73156 52.3137 1.72803C52.3137 1.7245 52.3155 1.72097 52.3137 1.71744L52.2978 1.6839V1.67331V1.65213V1.63095C52.2978 1.62918 52.296 1.62742 52.2943 1.62389C52.2943 1.62212 52.296 1.62036 52.2943 1.61683L52.2749 1.56034V1.54622V1.52504C52.2749 1.51269 52.2696 1.5021 52.2625 1.49504L52.2537 1.48621V1.48268V1.4615C52.2537 1.44914 52.2484 1.43855 52.2413 1.43149L52.2325 1.42267V1.41914V1.39796C52.2325 1.3856 52.2272 1.37501 52.2201 1.36795L52.2113 1.35912V1.35559V1.33441C52.2113 1.31853 52.2025 1.30794 52.1901 1.30088V1.29205C52.1901 1.2744 52.1795 1.26381 52.1654 1.25675C52.1654 1.25498 52.1654 1.25322 52.1654 1.25145L52.1495 1.21792V1.20733C52.1495 1.2038 52.146 1.20203 52.146 1.1985C52.146 1.19497 52.1478 1.19144 52.146 1.18791L52.1248 1.14555C52.1231 1.14378 52.1213 1.14378 52.1195 1.14025C52.116 1.13496 52.1125 1.13319 52.1072 1.12966C52.1036 1.1279 52.1036 1.12437 52.1001 1.12437C52.0983 1.12084 52.0983 1.11554 52.0948 1.11378L52.086 1.10495V1.10142C52.086 1.08907 52.0807 1.07848 52.0736 1.07142L52.0648 1.06259V1.05906C52.0648 1.04141 52.0525 1.02905 52.0366 1.02199C52.0348 1.0167 52.0348 1.0114 52.0295 1.00787L52.0207 0.999047V0.995517C52.0207 0.977866 52.0083 0.96551 51.9924 0.95845C51.9889 0.94786 51.9819 0.940799 51.9713 0.937269C51.9677 0.926679 51.9607 0.919618 51.9501 0.916088C51.9466 0.907263 51.943 0.901967 51.936 0.896672V0.889612C51.936 0.866666 51.9165 0.84725 51.8936 0.84725H51.8901L51.8812 0.838424L51.8724 0.829599V0.826069C51.8724 0.804888 51.8565 0.789002 51.8371 0.785472L51.8265 0.764291C51.8248 0.760761 51.8195 0.758996 51.8159 0.755466C51.8124 0.751935 51.8106 0.74664 51.8071 0.744875L51.7859 0.734284C51.7824 0.714869 51.7665 0.698983 51.7453 0.698983H51.7418L51.733 0.690157L51.6906 0.647795L51.6694 0.626614C51.6606 0.617789 51.65 0.614259 51.6394 0.614259H51.6359L51.6271 0.605433L51.6059 0.584252C51.6024 0.580722 51.5988 0.582487 51.5953 0.578957C51.5935 0.575427 51.59 0.573662 51.5882 0.571897C51.5847 0.566602 51.5829 0.563071 51.5776 0.559541C51.5759 0.557776 51.5759 0.556011 51.5723 0.554246L51.5371 0.536595L51.5212 0.520709C51.5123 0.511884 51.5017 0.508354 51.4912 0.508354H51.4823C51.4806 0.504824 51.4806 0.501294 51.4788 0.499528L51.4576 0.478347C51.4488 0.469522 51.4382 0.465992 51.4276 0.465992H51.4188C51.4117 0.453636 51.4011 0.444811 51.3853 0.444811H51.3817L51.3729 0.435985C51.3711 0.43422 51.3694 0.43422 51.3658 0.432455C51.3641 0.432455 51.3641 0.428925 51.3605 0.428925L51.3182 0.407744L51.2758 0.386563C51.2741 0.386563 51.2723 0.386563 51.2705 0.386563C51.2635 0.372442 51.2511 0.361852 51.2352 0.361852H51.2105L51.1805 0.331846C51.1752 0.32655 51.1681 0.324785 51.1593 0.32302C51.1558 0.32302 51.154 0.31949 51.1505 0.31949H51.1417C51.1346 0.307134 51.124 0.298309 51.1081 0.298309H51.087H51.0764L51.0499 0.284188L51.034 0.268303C51.0252 0.259477 51.0146 0.255947 51.004 0.255947H50.974C50.9669 0.243591 50.9563 0.234766 50.9405 0.234766H50.9193H50.9157L50.9069 0.225941C50.8981 0.217115 50.8875 0.213585 50.8769 0.213585H50.8663L50.8328 0.197699C50.8293 0.195934 50.8257 0.197699 50.824 0.197699C50.8204 0.197699 50.8187 0.194169 50.8151 0.194169H50.7939H50.7904L50.7816 0.185344C50.7798 0.183579 50.7745 0.183579 50.7728 0.181813C50.7692 0.180048 50.7692 0.176518 50.7657 0.174753L50.7022 0.153572C50.7004 0.153572 50.6969 0.153572 50.6951 0.153572C50.6933 0.153572 50.6916 0.150042 50.688 0.150042H50.658C50.651 0.137686 50.6404 0.128861 50.6245 0.128861H50.6033H50.568L50.5115 0.109445C50.5098 0.109445 50.5062 0.109445 50.5045 0.109445C50.5027 0.109445 50.5009 0.105915 50.4974 0.105915H50.4727L50.4639 0.0970895C50.4551 0.088264 50.4445 0.0847339 50.4339 0.0847339H50.4127H50.3703H50.3668L50.358 0.0759085C50.3527 0.0706132 50.3439 0.0688481 50.3368 0.067083C50.3333 0.067083 50.3315 0.0635529 50.328 0.0635529H50.2856H50.2644H50.2538L50.2203 0.0476671C50.2168 0.045902 50.2132 0.0476671 50.2097 0.0476671C50.2062 0.0476671 50.2044 0.044137 50.2009 0.044137H50.1797H50.1585H50.095H50.0844L50.0508 0.0282512C50.0473 0.0264861 50.0438 0.0282512 50.042 0.0282512C50.0385 0.0282512 50.0367 0.024721 50.0332 0.024721H49.9908H49.9061H49.8849H49.8479L49.7684 0.00530512C49.7667 0.00530512 49.7649 0.00707021 49.7631 0.00530512C49.7614 0.00530512 49.7596 0.00354004 49.7578 0.00354004H49.7155H49.6943H49.6731H49.6519H49.5672H49.5249H31.0091C31.0074 0.00354004 31.0056 0.00530512 31.0021 0.00707021C30.9968 0.00883529 30.9932 0.0106004 30.9879 0.0123655C30.9827 0.0158956 30.9791 0.0176607 30.9756 0.022956C30.9738 0.024721 30.9721 0.024721 30.9703 0.0282512L29.3182 3.35367C29.3164 3.3572 29.3182 3.36073 29.3182 3.36249C29.3182 3.36602 29.3146 3.36779 29.3146 3.37132C29.3146 3.37308 29.3164 3.37485 29.3182 3.37838C29.3199 3.38367 29.3217 3.3872 29.3235 3.3925C29.327 3.39779 29.3288 3.40133 29.3341 3.40486C29.3358 3.40662 29.3358 3.40839 29.3394 3.41015C29.3447 3.41368 29.3517 3.41545 29.3588 3.41545H48.4605L47.548 5.32174H28.3827C28.3809 5.32174 28.3792 5.3235 28.3756 5.3235C28.3703 5.32527 28.365 5.32703 28.3615 5.3288C28.3562 5.33233 28.3527 5.33409 28.3491 5.33939C28.3474 5.34115 28.3456 5.34115 28.3439 5.34468L24.15 13.8383C24.1483 13.8418 24.15 13.8453 24.15 13.8489C24.15 13.8524 24.1465 13.8541 24.1465 13.8577C24.1465 13.8594 24.1483 13.8612 24.15 13.8647C24.1518 13.87 24.1535 13.8736 24.1553 13.8789C24.1588 13.8842 24.1606 13.8877 24.1659 13.8912C24.1677 13.893 24.1677 13.8947 24.1712 13.8965C24.1765 13.9 24.1836 13.9018 24.1906 13.9018H27.6008C27.6113 13.9018 27.6202 13.8965 27.6272 13.8912C27.629 13.8895 27.6308 13.8877 27.6325 13.8859C27.6343 13.8842 27.6378 13.8824 27.6378 13.8789L30.2731 8.56419H45.4969H45.8994C45.9064 8.56419 45.9117 8.56243 45.9188 8.5589L45.9523 8.54301H45.9841H46.09H46.1112C46.1182 8.54301 46.1235 8.54125 46.1306 8.53772L46.1641 8.52183H46.2383H46.2806H46.3018C46.3124 8.52183 46.323 8.5183 46.3318 8.50948L46.3406 8.50065H46.3654H46.4289C46.436 8.50065 46.4413 8.49889 46.4483 8.49536L46.4818 8.47947H46.4924H46.5136C46.5207 8.47947 46.526 8.4777 46.533 8.47417L46.5666 8.45829H46.6407C46.6478 8.45829 46.6531 8.45652 46.6601 8.45299L46.6937 8.43711H46.7043H46.7466C46.7537 8.43711 46.759 8.43534 46.766 8.43181L46.7996 8.41593H46.8102H46.8313C46.8384 8.41593 46.8437 8.41416 46.8508 8.41063L46.8843 8.39475H46.8949H46.9372C46.9443 8.39475 46.9496 8.39298 46.9567 8.38945L46.9902 8.37356H47.0008H47.022C47.0326 8.37356 47.0431 8.37003 47.052 8.36121L47.0608 8.35238H47.0643H47.0855H47.1067C47.1226 8.35238 47.1332 8.34356 47.1402 8.3312H47.1491H47.1702C47.1808 8.3312 47.1914 8.32767 47.2002 8.31885L47.2091 8.31002H47.2126H47.2338C47.2408 8.31002 47.2461 8.30826 47.2532 8.30473L47.2867 8.28884H47.2973H47.3185C47.3291 8.28884 47.3397 8.28531 47.3485 8.27648L47.3626 8.26236L47.4103 8.24648H47.4244H47.4456C47.4526 8.24648 47.4579 8.24471 47.465 8.24118L47.4985 8.2253H47.5091C47.525 8.2253 47.5356 8.21647 47.5427 8.20412H47.5515C47.5585 8.20412 47.5638 8.20235 47.5709 8.19882L47.6044 8.18294H47.615C47.6274 8.18294 47.638 8.17764 47.645 8.17058L47.6592 8.15646L47.7068 8.14057H47.7209H47.7421C47.7492 8.14057 47.7545 8.13881 47.7615 8.13528L47.7951 8.11939H47.8057C47.8215 8.11939 47.8321 8.11057 47.8392 8.09821H47.848C47.8639 8.09821 47.8745 8.08939 47.8816 8.07703H47.8904H47.9116C47.9222 8.07703 47.9327 8.0735 47.9416 8.06467L47.9504 8.05585H47.9539C47.9663 8.05585 47.9769 8.05055 47.9839 8.04349L47.9928 8.03467H47.9963C48.0069 8.03467 48.0175 8.03114 48.0263 8.02231L48.0422 8.00643L48.0687 7.99231H48.0793H48.1004C48.1163 7.99231 48.1269 7.98172 48.1357 7.96936L48.1993 7.94818C48.2028 7.94641 48.2046 7.94288 48.2063 7.94112C48.2099 7.93935 48.2134 7.93935 48.2152 7.93759L48.224 7.92876H48.2275C48.2346 7.92876 48.2399 7.927 48.2469 7.92347L48.2805 7.90758H48.2911C48.3087 7.90758 48.3211 7.89523 48.3281 7.87934C48.3334 7.87758 48.3387 7.87758 48.3422 7.87405L48.3564 7.85993L48.4111 7.84227C48.4128 7.84227 48.4129 7.84051 48.4146 7.83874C48.4164 7.83698 48.4199 7.83874 48.4217 7.83698L48.4746 7.80168H48.4835C48.4958 7.80168 48.5064 7.79638 48.5135 7.78932L48.5223 7.7805H48.5258C48.5329 7.7805 48.5382 7.77873 48.5452 7.7752L48.5876 7.75402C48.5894 7.75226 48.5894 7.75049 48.5929 7.74873C48.5982 7.7452 48.5999 7.74166 48.6035 7.73813H48.6123C48.63 7.73813 48.6423 7.72578 48.6476 7.70989C48.6529 7.70813 48.6582 7.70813 48.6635 7.70283L48.6723 7.69401H48.6758C48.6864 7.69401 48.697 7.69048 48.7059 7.68165L48.7147 7.67283H48.7164C48.727 7.67283 48.7376 7.6693 48.7465 7.66047L48.7553 7.65165H48.7588C48.7747 7.65165 48.7853 7.64282 48.7923 7.63046H48.8012C48.8118 7.63046 48.8223 7.62693 48.8312 7.61811L48.8524 7.59693L48.8612 7.5881H48.8647C48.8824 7.5881 48.8947 7.57575 48.9 7.55986C48.9053 7.5581 48.9106 7.5581 48.9159 7.5528L48.9459 7.52279H48.9494C48.96 7.52279 48.9706 7.51926 48.9794 7.51044L48.9936 7.49632L49.0483 7.47867C49.0518 7.4769 49.0536 7.47337 49.0553 7.47161C49.0606 7.46808 49.0642 7.46631 49.0677 7.46102C49.0695 7.45749 49.0712 7.45572 49.073 7.45219C49.0765 7.45043 49.0818 7.45043 49.0853 7.4469L49.1048 7.42748L49.1648 7.38688L49.2177 7.35158H49.2266C49.2477 7.35158 49.2636 7.3357 49.2672 7.31628L49.2883 7.30569C49.2901 7.30392 49.2919 7.30216 49.2936 7.30039C49.2954 7.29863 49.2989 7.30039 49.3007 7.29686L49.3095 7.28804H49.313C49.3254 7.28804 49.336 7.28274 49.343 7.27568L49.3589 7.2598L49.396 7.24215C49.3978 7.24038 49.3978 7.23862 49.4013 7.23685C49.4066 7.23332 49.4084 7.22979 49.4119 7.2245C49.4137 7.22097 49.4172 7.22097 49.419 7.21743C49.4225 7.21567 49.4278 7.21567 49.4295 7.21214L49.4454 7.19625L49.4825 7.1786C49.4843 7.17684 49.4843 7.17507 49.4878 7.17331C49.4931 7.16978 49.4948 7.16625 49.4984 7.16095C49.5001 7.15742 49.5037 7.15742 49.5054 7.15389C49.509 7.15213 49.5125 7.15213 49.516 7.1486L49.5319 7.13271L49.569 7.11506C49.5707 7.1133 49.5707 7.11153 49.5743 7.10976C49.5796 7.10623 49.5813 7.1027 49.5849 7.09741C49.5866 7.09388 49.5902 7.09388 49.5919 7.09035C49.5955 7.08858 49.6008 7.08858 49.6025 7.08505L49.6184 7.06917L49.6555 7.05152C49.6572 7.04975 49.6572 7.04799 49.6608 7.04622C49.6625 7.04446 49.6661 7.04446 49.6678 7.04269L49.7526 6.95797L49.7684 6.94208L49.8055 6.92443C49.8073 6.92267 49.8073 6.9209 49.8108 6.91914C49.8126 6.91737 49.8161 6.91737 49.8179 6.91561L49.8902 6.84324H49.8938C49.9061 6.84324 49.9167 6.83794 49.9238 6.83088L49.9449 6.8097L49.9661 6.78852L50.0297 6.72498L50.0508 6.7038L50.3474 6.40726C50.3509 6.40373 50.3509 6.39667 50.3544 6.39314C50.3562 6.38785 50.3615 6.38432 50.3615 6.37902V6.37196L50.365 6.36843L50.4003 6.35078C50.4039 6.34901 50.4056 6.34548 50.4074 6.34195C50.4092 6.34019 50.4127 6.34019 50.4145 6.33842L50.4762 6.25723L50.4956 6.23781L50.5168 6.21663C50.5186 6.21487 50.5168 6.2131 50.5186 6.21134C50.5204 6.20957 50.5239 6.20781 50.5239 6.20428L50.5415 6.16898L50.5574 6.15309C50.5592 6.15132 50.5574 6.14956 50.5592 6.14956C50.561 6.14779 50.5645 6.14603 50.5645 6.1425L50.5751 6.12132C50.5945 6.11779 50.6104 6.1019 50.6104 6.08072V6.07719L50.6192 6.06837C50.6192 6.06837 50.6192 6.0666 50.621 6.06484C50.6227 6.06307 50.6245 6.06307 50.6245 6.06131L50.6669 5.99776L50.7075 5.93775L50.7251 5.9201L50.7463 5.89892C50.7463 5.89892 50.7463 5.89715 50.7481 5.89715C50.7498 5.89539 50.7516 5.89539 50.7516 5.89362L50.7939 5.83008V5.82831C50.7939 5.82655 50.7957 5.82655 50.7957 5.82655L50.8169 5.78419C50.8187 5.78066 50.8169 5.77713 50.8169 5.7736C50.8169 5.77007 50.8204 5.7683 50.8204 5.76477V5.76124L50.8293 5.75242C50.831 5.75065 50.8293 5.74889 50.831 5.74889C50.8328 5.74712 50.8363 5.74536 50.8381 5.74183L50.8593 5.69946L50.921 5.59709L51.0058 5.44882V5.44706C51.0058 5.44706 51.0075 5.44706 51.0075 5.44529L51.9607 3.45428L52.063 3.24953L52.0789 3.23364C52.0878 3.22482 52.0913 3.21423 52.0913 3.20364V3.17363L52.1266 3.12068C52.1284 3.11891 52.1266 3.11715 52.1284 3.11538C52.1301 3.11362 52.1319 3.11185 52.1319 3.11009L52.1531 3.04654C52.1531 3.04478 52.1531 3.04125 52.1531 3.03948C52.1531 3.03772 52.1566 3.03595 52.1566 3.03242V3.0183L52.1725 2.98477C52.1725 2.983 52.1725 2.98124 52.1725 2.98124C52.1725 2.97947 52.1742 2.97947 52.176 2.97771L52.1954 2.89828L52.2148 2.85944C52.2166 2.85591 52.2148 2.85238 52.2148 2.84885C52.2148 2.84532 52.2184 2.84356 52.2184 2.84003V2.8365L52.2272 2.82767C52.236 2.81885 52.2396 2.80826 52.2396 2.79767V2.78884C52.2519 2.78178 52.2607 2.77119 52.2607 2.7553V2.73412V2.71294V2.70412C52.2731 2.69706 52.2819 2.68647 52.2819 2.67058V2.64763V2.62645V2.60174L52.2907 2.59292C52.2978 2.58586 52.3031 2.57527 52.3031 2.56291V2.54173V2.51172C52.3155 2.50466 52.3243 2.49407 52.3243 2.47819V2.45701V2.43582V2.39876L52.3437 2.31933C52.3437 2.31756 52.3419 2.3158 52.3437 2.31403C52.3437 2.31227 52.3455 2.3105 52.3455 2.30874V2.28756V2.2452V2.18165V2.13929V2.11811V2.07575V2.0122V1.96984V1.84276V1.82158C52.3384 1.80569 52.3278 1.7951 52.3172 1.78804Z" fill="white"/>
</g>
<defs>
<clipPath id="clip0_170_88">
<rect width="138.947" height="16" fill="white"/>
</clipPath>
</defs>
</svg>
