<svg width="18" height="11" viewBox="0 0 18 11" fill="none" xmlns="http://www.w3.org/2000/svg">
<path d="M15.8444 7.1C17.3444 8.5 17.6444 9.1 17.6444 9.2C18.2444 10.1 17.0444 10.2 17.1444 10.1H14.7444C14.7444 10.1 14.2444 10.2 13.5444 9.7C12.6444 9.1 11.8444 7.5 11.1444 7.7C10.5444 8 10.5444 9.4 10.5444 9.4C10.5444 9.4 10.6444 9.7 10.4444 9.9C10.2444 10.1 9.94444 10.1 9.94444 10.1H8.84444C8.84444 10.1 6.44444 10.3 4.34444 8.1C2.04444 5.7 0.0444444 1 0.0444444 1C0.0444444 1 -0.0555556 0.6 0.0444444 0.5C0.144444 0.3 0.544444 0.3 0.544444 0.3H3.14444L3.54444 0.5C3.64444 0.6 3.74444 0.8 3.74444 0.8C3.74444 0.8 4.14444 1.8 4.74444 2.8C5.74444 4.7 6.24444 5.1 6.64444 4.9C7.24444 4.6 7.04445 2.3 7.04445 2.3C7.04445 2.3 7.04444 1.5 6.74444 1.1C6.54444 0.8 6.14444 0.7 5.94445 0.7C5.84445 0.7 6.04444 0.4 6.34444 0.2C6.74444 0 7.54445 0 8.54445 0C9.34445 0 9.54444 0 9.84444 0.1C10.7444 0.3 10.4444 1.1 10.4444 3.1C10.4444 3.7 10.2444 4.6 10.7444 4.9C10.9444 5.1 11.4444 4.9 12.6444 2.9C13.2444 1.9 13.6444 0.8 13.6444 0.8C13.6444 0.8 13.7444 0.6 13.8444 0.5C13.9444 0.4 14.1444 0.4 14.1444 0.4H16.8444C16.8444 0.4 17.6444 0.3 17.7444 0.7C17.8444 1.1 17.4444 2 16.3444 3.5C14.5444 5.9 14.3444 5.7 15.8444 7.1Z" fill="white" fill-opacity="0.5"/>
</svg>
