<svg width="19" height="15" viewBox="0 0 19 15" fill="none" xmlns="http://www.w3.org/2000/svg">
<path d="M19 6.80039C19 6.20039 19 5.60039 18.9 4.80039C18.8 4.00039 18.8 3.40039 18.6 3.00039C18.4 2.10039 17.8 1.60039 16.9 1.30039C15.9 1.00039 13.4 0.900391 9.5 0.900391L8 1.00039C6.9 1.00039 5.7 1.00039 4.6 1.10039C3.4 1.20039 2.5 1.20039 2.1 1.40039C1.2 1.60039 0.7 2.20039 0.4 3.10039C0.0999996 4.10039 0 5.60039 0 7.70039V8.50039C0 9.20039 3.7998e-07 9.80039 0.1 10.5004C0.2 11.3004 0.2 11.9004 0.4 12.3004C0.6 13.2004 1.2 13.7004 2.1 14.0004C3.1 14.3004 5.6 14.4004 9.5 14.4004H11C12.1 14.4004 13.3 14.4004 14.4 14.3004C15.6 14.2004 16.5 14.2004 16.9 14.0004C17.8 13.8004 18.3 13.2004 18.5 12.3004C18.8 11.3004 18.9 9.80039 18.9 7.70039L19 6.80039ZM7.6 10.5004V4.80039L12.6 7.70039L7.6 10.5004Z" fill="white" fill-opacity="0.5"/>
</svg>
